<mxfile host="Electron" modified="2025-05-05T13:17:06.164Z" agent="Mozilla/5.0 (Windows NT 10.0; Win64; x64) AppleWebKit/537.36 (KHTML, like Gecko) draw.io/22.0.2 Chrome/114.0.5735.289 Electron/25.8.4 Safari/537.36" etag="gcNX4sgxm87uzw8V6H2b" version="22.0.2" type="device">
  <diagram name="Страница — 1" id="wd5KjnijajmKHRfc0tjs">
    <mxGraphModel dx="1493" dy="872" grid="1" gridSize="10" guides="1" tooltips="1" connect="1" arrows="1" fold="1" page="1" pageScale="1" pageWidth="1169" pageHeight="827" math="0" shadow="0">
      <root>
        <mxCell id="0" />
        <mxCell id="1" parent="0" />
        <mxCell id="Fr4EqGBGlhZ2miJh7v5--23" value="" style="rounded=1;whiteSpace=wrap;html=1;" vertex="1" parent="1">
          <mxGeometry x="270" y="130" width="740" height="620" as="geometry" />
        </mxCell>
        <mxCell id="Fr4EqGBGlhZ2miJh7v5--15" value="" style="rounded=1;whiteSpace=wrap;html=1;" vertex="1" parent="1">
          <mxGeometry x="630" y="250" width="310" height="360" as="geometry" />
        </mxCell>
        <mxCell id="Fr4EqGBGlhZ2miJh7v5--14" value="" style="rounded=1;whiteSpace=wrap;html=1;" vertex="1" parent="1">
          <mxGeometry x="310" y="250" width="310" height="360" as="geometry" />
        </mxCell>
        <mxCell id="JpcwjwnbJIEVLqF5FQcS-1" value="web-app&lt;br&gt;Nextcloud&lt;br&gt;port: 8080" style="sketch=0;html=1;dashed=0;whitespace=wrap;fillColor=#2875E2;strokeColor=#ffffff;points=[[0.005,0.63,0],[0.1,0.2,0],[0.9,0.2,0],[0.5,0,0],[0.995,0.63,0],[0.72,0.99,0],[0.5,1,0],[0.28,0.99,0]];verticalLabelPosition=bottom;align=center;verticalAlign=top;shape=mxgraph.kubernetes.icon;prIcon=pod" parent="1" vertex="1">
          <mxGeometry x="430" y="270" width="50" height="48" as="geometry" />
        </mxCell>
        <mxCell id="JpcwjwnbJIEVLqF5FQcS-2" value="Redis" style="sketch=0;html=1;dashed=0;whitespace=wrap;fillColor=#2875E2;strokeColor=#ffffff;points=[[0.005,0.63,0],[0.1,0.2,0],[0.9,0.2,0],[0.5,0,0],[0.995,0.63,0],[0.72,0.99,0],[0.5,1,0],[0.28,0.99,0]];verticalLabelPosition=bottom;align=center;verticalAlign=top;shape=mxgraph.kubernetes.icon;prIcon=pod" parent="1" vertex="1">
          <mxGeometry x="500" y="366" width="50" height="48" as="geometry" />
        </mxCell>
        <mxCell id="JpcwjwnbJIEVLqF5FQcS-3" value="MySQl" style="sketch=0;html=1;dashed=0;whitespace=wrap;fillColor=#2875E2;strokeColor=#ffffff;points=[[0.005,0.63,0],[0.1,0.2,0],[0.9,0.2,0],[0.5,0,0],[0.995,0.63,0],[0.72,0.99,0],[0.5,1,0],[0.28,0.99,0]];verticalLabelPosition=bottom;align=center;verticalAlign=top;shape=mxgraph.kubernetes.icon;prIcon=pod" parent="1" vertex="1">
          <mxGeometry x="350" y="360" width="50" height="48" as="geometry" />
        </mxCell>
        <mxCell id="JpcwjwnbJIEVLqF5FQcS-4" style="edgeStyle=orthogonalEdgeStyle;rounded=0;orthogonalLoop=1;jettySize=auto;html=1;entryX=0.5;entryY=0;entryDx=0;entryDy=0;entryPerimeter=0;" parent="1" source="JpcwjwnbJIEVLqF5FQcS-1" target="JpcwjwnbJIEVLqF5FQcS-3" edge="1">
          <mxGeometry relative="1" as="geometry" />
        </mxCell>
        <mxCell id="JpcwjwnbJIEVLqF5FQcS-5" style="edgeStyle=orthogonalEdgeStyle;rounded=0;orthogonalLoop=1;jettySize=auto;html=1;entryX=0.5;entryY=0;entryDx=0;entryDy=0;entryPerimeter=0;" parent="1" source="JpcwjwnbJIEVLqF5FQcS-1" target="JpcwjwnbJIEVLqF5FQcS-2" edge="1">
          <mxGeometry relative="1" as="geometry" />
        </mxCell>
        <mxCell id="JpcwjwnbJIEVLqF5FQcS-6" value="PVC&lt;br&gt;для всех подов" style="sketch=0;html=1;dashed=0;whitespace=wrap;fillColor=#2875E2;strokeColor=#ffffff;points=[[0.005,0.63,0],[0.1,0.2,0],[0.9,0.2,0],[0.5,0,0],[0.995,0.63,0],[0.72,0.99,0],[0.5,1,0],[0.28,0.99,0]];verticalLabelPosition=bottom;align=center;verticalAlign=top;shape=mxgraph.kubernetes.icon;prIcon=pvc" parent="1" vertex="1">
          <mxGeometry x="420" y="510" width="50" height="48" as="geometry" />
        </mxCell>
        <mxCell id="Fr4EqGBGlhZ2miJh7v5--25" style="edgeStyle=orthogonalEdgeStyle;rounded=0;orthogonalLoop=1;jettySize=auto;html=1;entryX=0.5;entryY=0;entryDx=0;entryDy=0;" edge="1" parent="1" source="Fr4EqGBGlhZ2miJh7v5--1" target="Fr4EqGBGlhZ2miJh7v5--15">
          <mxGeometry relative="1" as="geometry" />
        </mxCell>
        <mxCell id="Fr4EqGBGlhZ2miJh7v5--1" value="Ingress&lt;br&gt;nginx class&lt;br&gt;89.169.137.73" style="sketch=0;html=1;dashed=0;whitespace=wrap;fillColor=#2875E2;strokeColor=#ffffff;points=[[0.005,0.63,0],[0.1,0.2,0],[0.9,0.2,0],[0.5,0,0],[0.995,0.63,0],[0.72,0.99,0],[0.5,1,0],[0.28,0.99,0]];verticalLabelPosition=top;align=center;verticalAlign=bottom;shape=mxgraph.kubernetes.icon;prIcon=pod;labelPosition=center;" vertex="1" parent="1">
          <mxGeometry x="430" y="180" width="50" height="48" as="geometry" />
        </mxCell>
        <mxCell id="Fr4EqGBGlhZ2miJh7v5--4" value="cloud.of.by" style="image;aspect=fixed;html=1;points=[];align=center;fontSize=12;image=img/lib/azure2/networking/DNS_Zones.svg;" vertex="1" parent="1">
          <mxGeometry x="990" y="20" width="64" height="64" as="geometry" />
        </mxCell>
        <mxCell id="Fr4EqGBGlhZ2miJh7v5--6" value="" style="shape=flexArrow;endArrow=classic;startArrow=classic;html=1;rounded=0;" edge="1" parent="1">
          <mxGeometry width="100" height="100" relative="1" as="geometry">
            <mxPoint x="500" y="150" as="sourcePoint" />
            <mxPoint x="960" y="60" as="targetPoint" />
          </mxGeometry>
        </mxCell>
        <mxCell id="Fr4EqGBGlhZ2miJh7v5--7" value="ns: nextcloud" style="text;html=1;strokeColor=none;fillColor=none;align=center;verticalAlign=middle;whiteSpace=wrap;rounded=0;" vertex="1" parent="1">
          <mxGeometry x="495" y="250" width="85" height="30" as="geometry" />
        </mxCell>
        <mxCell id="Fr4EqGBGlhZ2miJh7v5--8" value="ns: logging" style="text;html=1;strokeColor=none;fillColor=none;align=center;verticalAlign=middle;whiteSpace=wrap;rounded=0;" vertex="1" parent="1">
          <mxGeometry x="790" y="250" width="85" height="30" as="geometry" />
        </mxCell>
        <mxCell id="Fr4EqGBGlhZ2miJh7v5--9" value="grafana&lt;br&gt;port: 80" style="sketch=0;html=1;dashed=0;whitespace=wrap;fillColor=#2875E2;strokeColor=#ffffff;points=[[0.005,0.63,0],[0.1,0.2,0],[0.9,0.2,0],[0.5,0,0],[0.995,0.63,0],[0.72,0.99,0],[0.5,1,0],[0.28,0.99,0]];verticalLabelPosition=bottom;align=center;verticalAlign=top;shape=mxgraph.kubernetes.icon;prIcon=pod" vertex="1" parent="1">
          <mxGeometry x="710" y="270" width="50" height="48" as="geometry" />
        </mxCell>
        <mxCell id="Fr4EqGBGlhZ2miJh7v5--10" value="&lt;div style=&quot;line-height: 19px;&quot;&gt;alertmanager&lt;/div&gt;port: 9093" style="sketch=0;html=1;dashed=0;whitespace=wrap;fillColor=#2875E2;strokeColor=#ffffff;points=[[0.005,0.63,0],[0.1,0.2,0],[0.9,0.2,0],[0.5,0,0],[0.995,0.63,0],[0.72,0.99,0],[0.5,1,0],[0.28,0.99,0]];verticalLabelPosition=bottom;align=center;verticalAlign=top;shape=mxgraph.kubernetes.icon;prIcon=pod" vertex="1" parent="1">
          <mxGeometry x="710" y="366" width="50" height="48" as="geometry" />
        </mxCell>
        <mxCell id="Fr4EqGBGlhZ2miJh7v5--11" value="&lt;div style=&quot;line-height: 19px;&quot;&gt;&lt;div style=&quot;line-height: 19px;&quot;&gt;prometheus&lt;/div&gt;&lt;/div&gt;port: 80" style="sketch=0;html=1;dashed=0;whitespace=wrap;fillColor=#2875E2;strokeColor=#ffffff;points=[[0.005,0.63,0],[0.1,0.2,0],[0.9,0.2,0],[0.5,0,0],[0.995,0.63,0],[0.72,0.99,0],[0.5,1,0],[0.28,0.99,0]];verticalLabelPosition=bottom;align=center;verticalAlign=top;shape=mxgraph.kubernetes.icon;prIcon=pod" vertex="1" parent="1">
          <mxGeometry x="800" y="318" width="50" height="48" as="geometry" />
        </mxCell>
        <mxCell id="Fr4EqGBGlhZ2miJh7v5--12" value="Loki&lt;div style=&quot;line-height: 19px;&quot;&gt;&lt;div style=&quot;line-height: 19px;&quot;&gt;&lt;/div&gt;&lt;/div&gt;" style="sketch=0;html=1;dashed=0;whitespace=wrap;fillColor=#2875E2;strokeColor=#ffffff;points=[[0.005,0.63,0],[0.1,0.2,0],[0.9,0.2,0],[0.5,0,0],[0.995,0.63,0],[0.72,0.99,0],[0.5,1,0],[0.28,0.99,0]];verticalLabelPosition=bottom;align=center;verticalAlign=top;shape=mxgraph.kubernetes.icon;prIcon=pod" vertex="1" parent="1">
          <mxGeometry x="800" y="420" width="50" height="48" as="geometry" />
        </mxCell>
        <mxCell id="Fr4EqGBGlhZ2miJh7v5--16" value="PV" style="sketch=0;html=1;dashed=0;whitespace=wrap;fillColor=#2875E2;strokeColor=#ffffff;points=[[0.005,0.63,0],[0.1,0.2,0],[0.9,0.2,0],[0.5,0,0],[0.995,0.63,0],[0.72,0.99,0],[0.5,1,0],[0.28,0.99,0]];verticalLabelPosition=bottom;align=center;verticalAlign=top;shape=mxgraph.kubernetes.icon;prIcon=pv" vertex="1" parent="1">
          <mxGeometry x="340" y="643" width="50" height="48" as="geometry" />
        </mxCell>
        <mxCell id="Fr4EqGBGlhZ2miJh7v5--18" value="PVC&lt;br&gt;для всех подов" style="sketch=0;html=1;dashed=0;whitespace=wrap;fillColor=#2875E2;strokeColor=#ffffff;points=[[0.005,0.63,0],[0.1,0.2,0],[0.9,0.2,0],[0.5,0,0],[0.995,0.63,0],[0.72,0.99,0],[0.5,1,0],[0.28,0.99,0]];verticalLabelPosition=bottom;align=center;verticalAlign=top;shape=mxgraph.kubernetes.icon;prIcon=pvc" vertex="1" parent="1">
          <mxGeometry x="750" y="510" width="50" height="48" as="geometry" />
        </mxCell>
        <mxCell id="Fr4EqGBGlhZ2miJh7v5--19" value="StorageClass&lt;br&gt;yc-network-hdd&lt;br&gt;(по умолчанию)" style="sketch=0;html=1;dashed=0;whitespace=wrap;fillColor=#2875E2;strokeColor=#ffffff;points=[[0.005,0.63,0],[0.1,0.2,0],[0.9,0.2,0],[0.5,0,0],[0.995,0.63,0],[0.72,0.99,0],[0.5,1,0],[0.28,0.99,0]];verticalLabelPosition=bottom;align=center;verticalAlign=top;shape=mxgraph.kubernetes.icon;prIcon=pv" vertex="1" parent="1">
          <mxGeometry x="600" y="650" width="50" height="48" as="geometry" />
        </mxCell>
        <mxCell id="Fr4EqGBGlhZ2miJh7v5--20" style="edgeStyle=orthogonalEdgeStyle;rounded=0;orthogonalLoop=1;jettySize=auto;html=1;entryX=0.995;entryY=0.63;entryDx=0;entryDy=0;entryPerimeter=0;" edge="1" parent="1" source="Fr4EqGBGlhZ2miJh7v5--19" target="Fr4EqGBGlhZ2miJh7v5--16">
          <mxGeometry relative="1" as="geometry" />
        </mxCell>
        <mxCell id="Fr4EqGBGlhZ2miJh7v5--21" style="edgeStyle=orthogonalEdgeStyle;rounded=0;orthogonalLoop=1;jettySize=auto;html=1;entryX=0.5;entryY=0;entryDx=0;entryDy=0;entryPerimeter=0;" edge="1" parent="1" source="JpcwjwnbJIEVLqF5FQcS-6" target="Fr4EqGBGlhZ2miJh7v5--19">
          <mxGeometry relative="1" as="geometry" />
        </mxCell>
        <mxCell id="Fr4EqGBGlhZ2miJh7v5--22" style="edgeStyle=orthogonalEdgeStyle;rounded=0;orthogonalLoop=1;jettySize=auto;html=1;entryX=0.5;entryY=0;entryDx=0;entryDy=0;entryPerimeter=0;" edge="1" parent="1" source="Fr4EqGBGlhZ2miJh7v5--18" target="Fr4EqGBGlhZ2miJh7v5--19">
          <mxGeometry relative="1" as="geometry" />
        </mxCell>
        <mxCell id="Fr4EqGBGlhZ2miJh7v5--24" value="" style="shape=image;aspect=fixed;image=data:image/png,iVBORw0KGgoAAAANSUhEUgAABLAAAAC0CAYAAACE/9XKAAAABGdBTUEAALGPC/xhBQAAACBjSFJNAAB6JgAAgIQAAPoAAACA6AAAdTAAAOpgAAA6mAAAF3CculE8AAAABmJLR0QA/wD/AP+gvaeTAAAAB3RJTUUH6AcPEQQSVrGCAgAAffdJREFUeNrtnXl8G8XZx3/PSrIdx87F7QRwEmnXxiQc4YZCuMpVCuUqUEpLW85S7rMHTS/KW+67UEpbSmlLgUIpN4VwlDsFEoS9K+UAEidcCYkTx7aked4/JCeyI8mSrZF2pef7+SRRvOvnmZ2Z3Z35aZ5nAEEQBEEQBEEQBEEQBEEQBEEQBEEQBEEQBEEQBEEQBEEQBEEQBEEQBEEQBEEQBEEQBEEQBEEQBEEQBEEQBEEQBEEQBEEQBGEdJFUgCIIgCIIgZOPbs7hOjcFGSGAjKGzEBhrAqEsNJBvrahAwCN3jxiLe4IcaNx68xQREQfgkofD5cXvQWqlFQRAEQRBGighYgiAIgiAIVc73buDNEMd0RWgDYTIrTAahGcDWAMYwJ8/jdX+t/5z677r/E4D6OsTHNuCTTcdi9SZjkBhdD/IbWOQjRMmHRQSEVRzzDt+DlkjtC4IgCIKQDyJgCYIgCIIgVBFn3sbjVQy7J4A9CNiVFaYD2BQAOIs4lelYIecRARMaoaZsgWVbb4bRfh/Gpgahy2HgXQN4A4z/Jgy8evhO9Jm0kiAIgiAIgxEBSxAEQRAEoYI5/zoe1e3DPsQ4hA3sz4xWMAwgbfVUmgI1QIBKfcjnvKzHBp8HYPNx4G2n4PPNxmKj/vEorR+VdsDAc37CE/Dj+YO2ozXSioIgCIIgiIAlCIIgCIJQYXz/Ft6IFY5iwtfAmMnAKGCQyJT6q5giVqbzch0bOxqYPgUrt9oEYwBQv4hF60epvQBeBOGfvgAePGg7+kRaVxAEQRCqExGwBEEQBEEQKoBLfs+Na9biWADHMbA/GP4hBahBxzLltMp0Xt428jxvo0Zg91asHtuAhgwiVv/nBDFmw8DffYz7D9yJVkqrC4IgCEL1IAKWIAiCIAiChznnNp6hFE4D4UQADcPNVVWoiJXJRqbzctoYZK9lS/AOQSifAd+6wSoNHLSm/t8N4H7y4XcH7UCvSC8QBEEQhMpHBCxBEARBEASP8YObuBY+nECE8xjYDlnyUWXMQZVvrqoc5xUruXum8o6rB/bZDj1j6lG3bsCaWcTq//weCDckGnHvoSHqld4hCIIgCJWJCFiCIAiCIAge4fy7eILqwxkgnA1gC+0J10uZ3D3tPL8BfGk64k0bwU/pg1ZKG7zSIEGL8DGAW3wx3H7ArvS59BZBEARBqCxEwBIEQRAEQXA55/2Bxxk9uEARzgUwptBk6euODyNXVTmSu/cPUndpgQo2wRicFyuriAXAALpAuLHXj+u+Mp1WSO8RBEEQhMpABCxBEARBEASXctat3FDnx/kALmBg3LByVWU4zyvJ3cHArq3gYFPGHQo3ELQGhBYCX4BwfaAW1+3bRqulNwmCIAiCtxEBSxAEQRAEwWXMmsXGqiacTMCVGBwqmG++qyLlqip3cncmYK9twM2b5SlibXis0yD88OXt8edZREp6lyAIgiB4ExGwBEEQBEEQXMTFd/GezLgBwE7FSLie6TyvJXc3DODAHaA2HrthOGH65/SBbYawwzfBOOfAGfSa9DJBEARB8B4iYAmCIAiCILiAS+/gsWzgKgZOB0AjyR9VicndR9UAh+6CRF0NfIN2IRwwqM16LCliKSLcXjcKl+/VQl3S6wRBEATBO4iAJQiCIAiCUGYuuYuPJMYtTJgIFClXVQUmd998PLDf9klhargiVuqfj8jAWQdsT/+W3icIgiAI3kAELEEQBEEQhDIx614e09OLqxk4DUD+ydJzHKv05O47W4A5cf1IdnDuq1w7FG4Qdgj82V+LsyTJuyAIgiC4HxGwBEEQBEEQysClv+e9DAP3MGOyzvxRlZbc3ecDvroH1KgAjHUD2my5sLKJWAOPRQwDJ+2/Pb0hvVIQBEEQ3IsIWIIgCIIgCCVk1iw2epvxY2JcwQwfkEdInYaE65nO80py98mbA7u15k7anv45Y2jhwGMxg/DD/bbHtUTE0ksFQRAEwX2IgCUIgiAIglAiZv2Bx8UI9zLjsP6flSp/1EjOc11ydwIO2Qk8bjQor1DBDKGGGY8RHqgbhe9IgndBEARBcB8iYAmCIAiCIJSAH/6JpxuMhxiYCqAs+aPSz/N6cvetNgX23Gb9iLYQESvTeWmhhe/7DBy133ZkS691P1OmTBlbU1OzVTwebzYMY3NmHkdEowDUAxif+rcWQC+AbgCriWgtM3cy8wfMvKi2tvaDcDgsedAEQRBcjghYgiAIgiAImvnxPXwoMf7GQGOxEq5nOq+akrsDwGG7gRvqUloU5bELIXLvUJh2zgoGjjpwB5otvdc9mKa5MRHtwcy7A9gOwDQAk4pkfgGAOUT0FhG9EY/HX41Go71S64IgCO4hp4DV1ta2eV9f34tE5NPg+wPHcfbHwHQHlYrPNM2XAWxabMPMfGMkErlJurIglBfLshqZ+Z2iP6SJHrRt+xKpYUHwLlfcw6cCuI0ZfqD8+aMqKbm7tSWw/dS0QW1++a5yilhpn/uI8N0Dtqd7pReXbwwdCoX2BHAYgEOJaNsS+l5DRM8BeIKZ/+U4zhLdDkOhkKNh3vWc4zinSlcShKqbmxzDzP+nQX84IxKJPFOu6/LnOhgOh5eZpvkOgGM1+J5imuYhjuM8XgWd5yhm3k2D6RgzPyS3pyCUn1gsZvj9/ikaXhKbSO0Kgkdhpp/ei98w4yIgKZQwJ8URJgD9n9OOZTqPgHVCTlYbqfOy2cjkq1+wGeArTSAarq91NtLOy+arX5zK6av/2jPY+OBjYPvJYBhJt8SDykdp153tGKf8p87B+s81zLjn2bd5qwN2oCulQ5eOYDC4IxF9k4i+DmCLMhVjNDMfDuBwALeYpvkcgHsCgcA/dYUbEtHkoeZnw7AZlh4lCNWHUqqRiIo+NyGi0eW8LiOPAv5G37iOL66O8Sufp8n036PR6GK5PQVBEATBXcyaxcasP+MOABdRlvxMRMg77A25bGDgsay5oPJdgVSAr6w28jyP8vFF2W30xIAlK0A5V4Hls0Js8Aqw9ceIGb969n98lfRqvcyYMSMQCoVONE3zVcMw5hDReSifeJVpznQAgHtisdhHpmleZVlWk7SaIAhC6R/GObFt+y1mnq3DORHNDAaDu1VyBVuWtROAPTSZv1m6sCAIgiC4i/vvZx8FcTcMnJpLgEr9eINjA86jdZpSbgGK8hC7hvKF3DYy+dIlzmU6L5uvJZ8lP2cSqrIJVIzs+bgyHgMufeYdvn0WsyE9vLi0tbXVmKZ5WldXl01EfwHg9rnBOACXMvNC0zTvNE1zorSiIAhCacjrJUxEV2srgGFcUMkVzMwXajL9kuM4b0gXFgRBEAT3MOt59nfE8TcA30oXjDKKR9l3wVt/3rq/hhCghvCFfHwNIZhl8pXRBvIobxHFuY+XA6pffMq+kiq/PFuc/RgUzvjSO/gtM8smSEXCNM2vxWKx9wHcAWCyx4pfA+BUInIsy/rF9OnTR0uLCoIg6CUvASuVp+odTWU4aurUqcEKfSlPBHC0JvPXS/cVBEEQBPcwaxYbxhL8AYxjciQGH3IXvMHnEYYQu3L5Qm4bVIAN0BA20q6pKOJcnr7WxoCu7g1FqKFCBTlHsvhsxxTj1GffwXXS20c8Rp5imuYzAB4CMNXL18LM9cz8456ennmWZe0nrSsIgqCPQpZB6xJMfD6f7/wKrd8fAAhosLvIcZx/SfcVBEEQBNdMYsln4jYycFK580cVIphl8pVT7BqBr4LFOeQvzn22Chl3LMwVKpj+ed05+ewGyTjv6Xf459LrhwWFQqFzAMxFMqdUJTGZmZ81TfNr0syCIAh6yFvAamxs/CsRfaipHN+ZPHnyZpVUsU1NTfUAvqflzU90I4CEdF9BEARBcAe//Cv+j4DTky/q8uaPqsbk7su7NhShhgwVTP886NhQubNI4SdPv83nSs/PnylTpoy1LOsfqXFspYbbETNvKq0tCIKgh7wFrDlz5sSY+SZN5agLBAJnVlLFNjQ0fBvARhpMd8VisT9I1xUEQRAEd3DlX/lUg3CxF/NHVUpy9+61yc8FhQpmWbGFDOeln9P/DzGue3oOy2qbPDBNc7tAIDCXmY+W2hAEQRCGS0E7qRDRnQC+0FSWH1RQ8kNCMnxQB3ctWLBgpXRdQRAEQSg/V/6dDwVwW//L3zX5o5Cfr0pJ7t4Ty7ySCoM+ZxSqch3L8Ptpfgwi/OWZObyb3AnZsSzrYAAvMvNWUhuCIAjCSChIwLJtuwvAbzWVZUJPT88plVCpoVDoMAAtGkwnANwi3VYQBEEQys9V9/M0YtwPgr8oOZ0kufvQ5c1ioyeW/FlB+a4wdKhgVlvrj40C4Z//eYcnyh2RcUx8IjM/CmCM1IYgCIIwUoxCfyEWi90AoEdTeS6YOXOm3+uVSkTnabL7sOM4C6TbCoIgCEJ5+fVfeDwzHgJhdNFyOkGSuw9XCGSVZ6jg4HDAPEIFNzhnw2ObK4UHHo9wrdwZ6wmFQmcQ0Z8B+KU2BEEQhGJQsIC1cOHCjwH8RVN5Ji9duvQoL1doa2vrtgC0bKHLzDdIlxUEQRCE8jJrFhuGH/cSEPRS/qhKTu6+fqyU+jf1V9ZwwHxDBZE5OXwGP7sFVuE6uTuSWJZ1EhHdOpy5hiAIgiBkY1gvFSK6GoDSUSBmvtjLFaqUumDQWKpYzHEc52XpsoIgCIJQXka14ScgHFop+aMqIbl7weGAuY5lCzvEECGJhLOefZu/Ue33h2VZX2XmP0DEK0EQBKHIDOvFYtu2DeBRTWXaybKsfb1YmVOnTt2UmU/QYZuZ5Vs9QRAEQSgzv3mQ9yTGT4A88kdh4DFAkrtntIE8yjuEL58P+YcD5hsqmP45z5BExfjt029zqFrvD9M0t2Pmv0DCBgVBEAQNDPvlQkRXM/MROgqVWoX1vNcq0+fznQWgToPpzpqamgekuwqCIAhC+bjqfh5rMO5VBB9hvXhBlPxMAJgApH3uP29drqb0Y2lCSD42Mp1H/QJKvr4GnbeBr9R52Wxk8pXNRiZfA2z0++pfRZXNRlqZsvkK9I9oeVD5KPW7KQPr7KQdw6DzBtR5/+dBx3L4aQDwx+ef53323Zfi1XR/mKa5MYCHATSUuSirichhZgfAKiJaycxriahbKTWaiBoANDDzZkRkApgCoEaecIIgCO5n2AKWbdv/NU3zFQB7aCjXIaFQaPtIJPKOVyoyGAzWAjhdk/lbwuFwn3RXQRAEQSgfPgO3MKN5naCR+tD/eYCgg4ECTVYBCpltDBCPhrCBPM/L5qsQwSyTLzeIc34jzV8WcSmjsJgunlEWoQo5jmX2s0esET8E8PMqu0V+B6C5DH4XAXiamZ9m5tej0ejiQn555syZ/o8++qjZMIxdDMPYm5n3BtAqTzxBEAT3MdLlvVcD+KeOghHR+QC+5ZWKJKITAWyuwW43Ed0pXVUQBEEQysfVD/JhxDgJ6UIGMHCFULqggwyrjDKJR1lsAINEkxw2kOG8jKJQrvJmEMy8JM7VBbBueVWmlVQb1FM+IlZ/fSGzwIVctgg/eupNfuignem9arg/LMv6DjMfWcJxd3cqVPFWx3HeHYmt2bNnxwFEU3/uS11PEzMfxcxHE9GXAPjkKSgIglB+RpRc0XGcRwC0ayrbCVOmTNnKKxVJROfqsKuUuqejo+Nz6aqCIAiCUB5uupfH+IDfVmr+KGQ4L5svtyZ3r60ZIqcVsu9QmDWnVYbz0n8/m63Uf2rgw+/vv58rXviwLGtyqXbKTn2xe0VNTc0kx3FOG6l4lQ3btjsdx7klEonsGwgEJhHRZQDmy9NQEAShvIx0dxAGcL2msgX8fv85XqhE0zT3B7CdBtMM4CbppoIgCIJQPuKjcDUDkzIlXE//nC46SXL30opzdYH1AyfOkrQdyC5iZRKhhhKxOEdy+JSNXcZOwfcr/PbwMfM9ABp1O2LmB2KxWKtt27+YN2/eilJdYDgcXmbb9v85jmMqpQ4C8KQ8FQVBEMrDiLe3VUrdA2CppvKd1tzcPM4D9XieJrtPRiKRdummgiAIglAern2QdwPh1KyrjAYLOllWCGU7L5vYhRH6oiy+ChHMMp3nVnGurnbonQMx6HO6iJVpxVbWY9lsZTpG+OVjb/DmlXp/mKZ5JoC9NLtZy8wnRiKRYxcsWPBhGS9XRaPRpx3HOUQpNYOIHgSg5CkpCIJQOkYsYEWj0V4AN2sqX2Ntbe3pbq7A1tbWEIBDddhm5uuliwqCIAhCeWBmMgg3rtNKcoW5IY+QujzD4foFnnx9ZbOR6TwqwJcucW6kvjKJc/W1/W2WWYTa4FiucMB8QwXTP2f30xjw4cpKvD8sy2oE8GPNbpYA2CcSifzVTdcejUb/Z9v2MUqp6QD+IU9LQRCE0mAUw0g8Hr8NwEpNg8fzm5ub69xagYlE4rxi1eMgwpFI5FnpooIgCIJQHm54GN8iwi6Vnj8qZ3k1iHPQIM6Nrh0U8pdvqGDaOXmHCqadk00sS/+sGN968k3epdLuD2a+DMBmGl0sArCr4zhvurUOotFo2HGc45j5ywDel6emIAiCXooivCxYsGAlgN9rKuNmtbW1J7qx8lLhjSfrGjcjbRwkCIIgCELpuPopHm0guXKm0vNHeV2c8xlATQ0GCkjIM1QwXajKciybrf4f5CGWGSBcW0n3h2maE4noPI0uliUSiQMdx1nihfqIRCLPNDY2bg/gcsMw1sgTVBAEQQ9FWzmklLoeQJ+OQjLzJdCzymlE1NbWngagQYPpT7u7u/8i3VMQBEEQyvSOX4tzQdiiFPmjkOE8Se6evzg3ujb5OT0EcJg7BxYmYuXwk0EQ2+upN/mQSrk/mPnnzFyvwzYRdQM4eP78+VEv1cmcOXNijuNcZdv2vfIEFQRB0EPRRKFoNLoYwN81ldMKBoOHuaniZs6c6Qf07CzDzL9dvHjxWumegiAIglB67rifxwK4sFT5o7IlXJfk7vmJc/V1I9g5EHkcyyZU5fCTSRBjwi+Ymbx+f1iWNZmIvqXRxUWO47wrTyJBEARhMEVd1WQYxtXQFPZmGMbFbqq4zs7OY5h5Kw2m+/x+/+3SNQVBEAShPPTV4nwiTHBj/qhKTu6OYfqqT2VKHdbOgVxAqGD6OfmEJG7oZ8ZTb+GrXr8/mPn7AHyazD9p2/Zv5SkkCIIgZKKoAlZHR8c8AE9qKuuXgsHg7i6qu/M02f1re3v7UumagiAIglB6UquvzgeqI39URhvwljhXX1P0nQM3+P1MK7YKDjtM/vsTL98fTU1N9QC+o8n8qlgs9m1IDlhBEAQhC0XPK0VEV2srrGFc5IZKa2lp2QPArjpsM/MN0i0FQRAEoTz01eJ0IoyplvxRlSDONdT3j6FS/2LkOwfmFMTyFMsyrdgCMOPxObyfV++P0aNHfxPAeE3mr1q4cOHH8hQSBEEQslF0Acu27ecBvK6pvEeGQqHWcleaUuo8HXaZeXYkEnlHuqUgCIIglJ473uKAQTi7///lzh+FDOdJcveBNvw+oMavZefADQWxAvNqZfNDChd69R4horM0mV6yevXqG+UpJAiCIORCy85+RHSdrvIahnFuOSustbV1awBf03Rx10uXFARBEITyEF+KE0DY0i35oyS5e3Zf/TZGj0qdw/mLWAWFCqbbKtBPjmOHPPk6b+e1+yMUCu0NYLom8z/v7OzslqeQIAiCkFMz0WHUtu0HAWjZ+paZv93W1rZ5uSoskUj8AIBfg+mFtm0/Jl1SEARBEMoDEb5fbfmjBviCd5K7TxgDTJ8M7BxKjQ9Tf+WT06qQnQPXncOF+8lxjBThdO/dH/R1Taa/WL169b3yBBIEQRCGwq/JbgLADQBu0WC7Nh6Pfx9lSILZ1tbWEIvFvqvDNjNfn6o3QRAEQRBKzG2P8HQCdmECqF94SPtMtF6EIAA86BjSz0PyGDKct85G2nnZfPWLNzl9pc7LWd5BvrLZQIbzBtgYwtc6G2nnZS1vvxg1hC8ygPGNwBbjgUmbAFttAmy9KdCYynv1yvvA/KWDrrFf+Er7nO434zFaLzxlspXrWDZbQxw78dG3+KLDdyKvrDoyABypwzAR3SWrrwRBEIR80CVgYfXq1X9oaGj4KYBNNIg9Z02fPv2quXPnrillZaV2RhmnwfRKwzD+6NI+4jNNczyAMUqpsYZhNABoIKIGAF3MHE8NPr6Ix+NfENEn0Wh0ldxaepgxY0agu7u7CUBjIpEYBWAsEY1mZgKwOnXap4FA4ONwOPwJAFWN9WRZViMztzDztkS0NYAGAI1IJp5VAFYCWEFEy5VSYaXU3Pnz538kPax485HW1tat4vG4SUQWEY1n5tFENI6ZRwOoTWuHOIAvACxVSn1ARB8x8wJ5jggl77Q+nDFYnMooQPULGYOODRB0+gUaHkLsKoavIQSzTL7cKs75fcAmY5JC1aRNgC03BiZtDNQEsrfbitX9Y8MNxSVkEKGyHuP1K7w2sIUcx4YQy7L5YWAsJXAsgD954f5oaWnZTSnVpMG0isfjd8gTSMhGW1vb5rFYLMTMwdSYri41nqsDMArJBQCrAKwB0MPMy4goahhG1OfzLQqHw31Si0K5aW1t3SKRSLQBaAGwBYBGImpg5gYAPak+vCo1Dp4Xj8fnLViwYKXUXAkFrM7Ozm7TNG8FMEuD+Qlr1679LoCbSlhXBjOfQ+nr4YvHXbZtd5V77B4MBrchop2JyAJgArAABFOTTRjG+ohT5oE7HDMzfD4fAMA0zRiAZUiGkUaJKKqUejuRSLwhN2L+BIPBST6fbyaAnZnZBBDs6upqHnzfDm4LAIjFYjBNMwFgEYB5zDyPiF7s6+t7edGiRT0VKlgdAOBgAAcw85TkJCr3/crMICL4fD6YprkcwNNE9E8AT7jgnvRU/ScSiZmGYRwIYC8ishKJRH1//ff30Ux9dcBDNvWMISJlmqYD4C1mftMwjKds27alpgVd3PMUj+6O4xsYLD5kEqBSggxzFgEqDxvI87xsvgoRzDL5yip2YWS+ChHn6mqBiROAiRsDTRsBEzcCNhsHGAUkt1AK+GJ1mr9B4lLGFWWZjmUTsQa1KSizn4yryfLz8z2vCFhKqaM0mX5l/vz5UXkKCQAwffr00T09PbsD+BIR7cPMM2KxWEM+Y7p1E5rUeUopKKUSpmlGALxERC/G4/EX5AtLoUSC1dbxePxgIjoEwN6JRGJ8pnlItp/5/X6EQqEIET0K4J+O47yCKl2YsME9rtO4aZobE9EHzFyvwfyipqam0OzZs+MlmqB9lZkf0WA67vP5gu3t7R+UQSBpI6L9DMPYh5n3hobVcoPHPwDaAbyglHqktrZ2tlu+FTFN8zkAWxfTJjOfEYlEningV4yWlpa9lVInANgfwNSi3/BE3cz8DBHdvcUWWzxeqvtH1/PLNM39AJwN4FAANUW03QPgb0qpq6PR6Pv5/MKUKVPG+v3+LzRc5x8dxznFbZUfDAbHGIZxEoDjAewGIKDZZQeAhw3DuK+jo2NeCZ8NVwL4ukYX7zuOc0Q5ByWWZV3CzEXNx8PMCSI62HGcBV54mPz2CT6BFO4bMjk3cifuzus8IL8cTMXwNUQy8YLPG6aNMaOAzcYDm45LrqiauHHy/yMdhC7vAv79+voR7ZB5uTB0IvsNbOU6lmcOsRzJ6dmXwJRDdqdFHnjfLgDQrMH2hY7jXAeh/50TQ5EXGBDRo7Ztf9Wt19zU1FQ/evToI4noGwAOLMV4gpn/YhjGX2zbXujGOgkGg22GYfxLg+nrHce5pZTX0traGkokEk9qMH2b4zjXuq0vNzQ0fAPAmQB2KLL5pQBu7uvru33RokV5zTdCodApRHS3hkv9muM4D5ernv06jTuO85lpmn8A8H0N5puXLFlyLIC/lqKimPk8Tab/WUrxKhgMbmMYxtcBHIfkEsYhV0UUEQNAG4A2wzDOisViK03T/KdhGLd0dHTMKfMzZ0sAU4psc1Kek8cmAGcB+KZSaivN/bgewBHMfERnZ+dHpmn+vKmp6Y8eE7J8pmmeAuACAK2afNQB+LZhGCebpvkoM18eiUTaZWgNtLS0zFBKnQHgBACjS+kawGVKqctM03xOKXVDNBp9TLfwk0gkbvD5fKcDmKDJxZRQKHRaJBL5bZkmSxOZ+YpityUR3ekV8QoAiHFcJeaPGhDelstX+iqjTL4GlSmbDQPAxmOALTZKrqpqmpD8d3SdnnZb3rVeNKNcOa2QZ6hgpvpCfvmusvkZIncWKQPHArja5c/9bZVSzZrMPwyhWscT05RSFwI4Csk0DyVzTUS/YOafm6b5ChHdbtv23+CuXMS1GuYlIKLxpb6QWCxWYxhGRVxLjrHUxkR0KTN/F8nwVh1sAeDKmpqay0zTvC0QCPwqHA6vrsZnh78EPq4DcAYAn4aOe3EpBKxQKLQ9gH21KDqGcUMJRKsxRPQtAKcR0bYu6n9jAXxbKfVt0zRfAfArx3Eer5Sbi4hyTnhbW1u3TiQSl6QedrVlKOKWAH63ZMmSc4PB4MnRaPRtt9epaZr7A7gewLQSuTQAHEFEB5umeZVS6tfRaLS3Gl8Wpmm2ALhKKXWEC4qzn2EY+4VCofcMwzjXtu3ndDmaP3/+J5ZlXczMv9f4rPh1a2vrI+3t7UvLUJe/QvGFyC+UUj/2St++6XEeQ8nwY0/njypHcnfDSCZVn7JF8t9JmwCjakrXdsu7sK6BMobpAfmFCmaqc+SZVyvdViF+1ufl+rrbBSyl1N6aTL/jJaFbKA6WZe3EzD9KjSeojEUhAHsy856mac4iol83NDT8ec6cOTFpJSEf2traamKx2PcBXMHM40rkdgyAy+Lx+ImhUOj7kUjk39VW74ZuB6kX0wOazO9gmuYBJRAiztNk+o2Ojo5XdE44TdO8xTCMxUR0k8vEq8HsAeAxy7KeCgaDbRVyf2UUsJqbm+tM05yVSCRsJFde1ZazkES0rWEYr5mm+X23VmRLS8tGlmU9AODZEopX6dQC+KlhGP+zLMuqppdEMBjcJBQK3QZgHoAj3FQ2ItqWmf9jWdYDU6ZM0bZ60bbtPxDRCxovZVw8Hr+pDPfVDADf1NAus6LR6Kde6eOjCF8Foa5/NrNBuFiG8K/B5xEhV5jYBuFoyGIjU9jasH1RbhuFhMiln1fjB6ZPBr6xL/Cj44FTDwH23x4ITSyteAWkrcDKEsrIyB5SydnCODOcl/772WyhUD+87tiMx9/iqS6/TfbS9Ax/BkLVYFlWk2maDzLzm0juaEkuKl6QmX/f1dXVYZrmIdJawlCEQqFdY7HYPCQX64wrtX9m3oqIHjVN855JkyaNqqa6N0rixDC0fbOUWoWljba2ts2RzPGig+s13VCtpmn+DUAYyfDNRq90SGb+ckokONdlL7bh9M2NMry89wwEAnMB/BRlFq4GUQPgFtM0f+bCAc+eSqm3mfloFxRnG2Z+raWl5aBqeEG0tLQcZBjGPCI6E6VZsTvc58bRfr//7VAodJguFwBOB9Cr8XlxTDAYPLyU9aaUuk7DOOD9hoaG2zzW1Q8n5MiHhPzyGWWzse5zfjmRRuQLGc4rxFdWsYuSuauO2Qu47OvAcXsD22wN1NWUt+E+X7X+Bs0kDq1/Rgw6lnZnDxahhhKxsvnhQvxg4LGEwmEuv0f21GT3ZZkGVwVkmubJzDwPyXBBNzMFwOOmad4/derUTaXphEz92bKsc4noRSQ3PSs336yvr39F5xe5bqMkAlYqv5GWEA9mPjAV4qeFvr4+XStkPmpsbHywmAZN05ximuY9RDQPySXphkf7ZQ0z32Ca5kNtbW0NXr25mHnCoJf3hcw8m4hCLi72FaZpXuCWwpimeQEzz0Yy3NEtjFNKPWaa5mmV+mJoa2ursSzraqXUEwA280ixJxDRo5Zl/VLHsy+1C+KVOi/A5/PdUqpnXigUOhpA0cOCmPk8L4VfzHqe/UQ4cN2DerCgkyVhd6bzstlI+2dIG3klAB8iCXkmwWy44pwBoGXL5Cqr0w4FtpuSXIHlBrrWAn3xDEIV55/cPtOKrazHhpnYfyixjAFAJUNY3YhlWZM1vYM5kUi8KnPhymby5MmbWZb1PJK7bU7wUNGP9fl87aX+Yklw/fi4wTTNfzHzDSju5lEjZXu/3/9qBUUx5aRkAgcR6VqFRQAu0mG4ubm5jojO0FQftxZrkN/U1FQfCoV+juSKq29CQ76xMnFkLBZ7wrKsRo+WfyMAmDFjRiAUCv0ZwDVw8SqWNH4TCoUOLHchTNP8NYBrXVpnPgC3m6Z5cqW9FKZNmzY+Fos9x8wXwXurIImZf5TaPKToz8FAIHAVkjupaoGZt+rr6/ul7koKBoO1RPQbDaYfKXDn1bKzZQ92AzA+q3iU+pB1B7tsYXmDxSPKYxe8LL4ow3k5xS7Kc8e9IXxN3gz43qHACTOTq6/cxuersoTppf7KJ4RvwPn5hgqmf843VHBoPzMffUvLjt3FeC59SZNp20uhxsKw3jU7BAKB15l5H49ewgTDMB4xTfMqeHdRgFA8XWBcLBZ7CsBXXFrEJsMwnquGVCcluxlt234KwFwtMxai41pbW7cutt3a2tpvANhEQ5HX1NTU3Fmkl8PhDQ0N7xPRT5DcOa3S2AvAU01NTfUeLHuTZVk7dXV1PZLaGtgr+AzDuKuMq98M0zRvBXCZB56fvw+FQkdVys3W1ta2eW9v72zoCxcpFSebpvlHFFnECofDfUiGEmrbupWIzjZNc2edlUNE56D4uxv1pnaT8hRs4OBS5o/KKkDlyneV4bxsvigfX8htY1QtcNSewLcOBCZu5N6260/gPmCFU6EhfIz8QwXTzskmluWVOyvzsVGqD3u78h5h3l2T6TdkSly5WJZ1kmEYrwDY2uOXQgAuNU3zH9OnTx8tLVudTJ48ebOamprZSOZsdjObMvOTwWBwUiW3RynVZNa4CisQj8fPK/YDSyl1nqby/mnevHkrRmJgypQpY03T/INhGP+qgJfDkIOnhoaGOzxY9JZUospDPFjnW8Xj8SvK4ds0zWuQTG7vBfxE9BfTNLfz+n3W0tLSHIvFXgIwvUIeHSeZpnl7sY06jvMSgN9pLLcPwJ0zZ87UsvIwGAxuQkQ/0mD6umg0Ot9zgyDGPrrzR3kpuXtoInDWV4Bpk93fdutWYPFARTmvUMF0oSrLsWy2+n9QqFjGQ4hlhuFOAUvXBkBEFJZpcWVimuapzHwPKuuL9aN6enoe9egX6sIIsCyrMRAIPA3AK2P9Zp/P90gwGKyt1DYp6XLIhoaGvxPRh5pehN+bNm3a+GLZC4VCB2h6aSvDMG4c4QSkNpUI/NtV9Pw4yc275FUo3zdNs6SBI6m8Uud7rJ7qANxvGIZXQ10xbdq08UqpJwEEK6wPn6ojV1ltbe1lAJZpLPf2S5Ys0XIfENHPAIwtstnOQCBwpdc6x02Pcy0IO+nKH+Wl5O5kAPtMA47fBxjtkSnnZ2kJ3NN29Ev+rAg7ByKLrbxDBTPZynFMuXfla4sOo0opEbAqkFAo9G0Av4XHN2LKwr4NDQ1PykqsqsJQSt0Lj325y8w7GoZxbcU2SimdzZkzJ5ZKeqaDht7e3jOLOMg/T1M5H+/o6HBGOHkKMPNWqD7+r9KXRLrs4VeP5C6WJcE0zQMA3OLR6jINw/itFws+Y8aMQG9v7wMAKjVm/ibTNHcppsHUCtrzdBbaMIxZqeTJRSMYDLYR0akaintZOBxe7bWO0eDDDKLkCoFi548qanJ36E3uTgQcvguw97SBNtxMTwxY05P/zoFZhSrkGSqYYefAYoplqZ/tcn+Y3ZQUGMFgcBMAWr7IIqJ2CBVFKBQ6kYh+j8rOF/Wlnp6ef86YMSMgLV4Vffo6IvqqR4v/fSI6uhLbpeQPmEAg8DsAKzSZ/0Fzc/OIvzs0TbMF+sK+bpDHwbAZbRjGb6QaSsq3UYJv0SZPnrwZgPsAeHlAcJgXC93V1XUbgP0quA/XAvjrpEmTRhXTqOM4fwfwuK5CM3O9UqqoIZBEVPRNEYjoVcdx7vXkAMhI5rIoZv6odZ+Lmdw9y3nFSO7uM4Bj9gKmT/FW2w1I4J76a8hQwSxJ24Fh7hxYoB8e2k9dXRd2dFM9E1GrJrvdjuMskiFW5RAMBncgortQHcnOD+zq6rpWWr2ysSzrCCI61+OXcVgltk3JHzKpb2lv12R+85qamm8WYeJwrqZJ+1zHcf4jj4QRcbxlWTtJNZSM5mAwuJtuJ4FA4A7o2TBByEEoFDoBwPeq4FKn1NfXF31TAJ/PdxaANRonjweFQqETi2HLNM1DiOigIhdRpd6X7MlewZhRzPxRXkzufugugOnBdc2frUJpdw7EMPwg/7xa/Z8TjB3cVM9EpCt8cAEAJW/hyqClpWUjwzAeBDCqii77B6FQ6BRp/cokGAxuwsx3SE24k7Ko5IFA4GYAPZrMXziS62pra5tgGMbJWsbK+sInqwlKTZiEUj0kDEPr0lnTNL8F4Aip6dLS2tq6BRHdUkWXfElra2uomAbb29s/AKB1swMiur6trW3CSGykEsJfo6Fsf3Ic503PvkyAacXIH+XV5O4zpwPTmr3ZdgNWYJVi58ACxLJMK7YyHstgy1CY5jZtQtO4olPewhWDTyn1DwCTq+3CiejWUCi0vXSBipz73AlgM6kJl7ZPOZyGw+FlAP6sybxlmuawJ9yxWOy0VO6fYvNJLBb7q3S5onBcW1vb5lINJUPbzkipJPE3SBWXnkQicSeACVV0yXWJRKLoIchNTU03EdH/NJZ703g8PiLxqbOz83QA2xS5XKv6+vou92pnSCVwt0aaP2rwedlsZDqvnMndpzYBu7d692b+bCVcsXNgsfysE7HIdYmCdQWXLpG3cGVgmuY5APat0ssfRUR/knxYlYVlWccAOFJqwr34y+WYiK5l5u9Cj4h2MYCHC/2lGTNmBLq6us7WdMm3L1q0qEe6XFGoicVi3wAg8eelYafm5uY6Hf2XmX9MRONKfD0JAGEA7cz8ARGtJKIEM9chuTubheRuIxW7YYBlWccx81dKWN9zmfl9IvqQiFam2n4MEW3BzNMBbA/AV4KyHBEMBreJRqPvF8vg7Nmz4y0tLacx8+u6roGZv93S0nJPR0fH7EJ/t7m5eRyAWRrK9IuFCxd+7NV7YGwA2xDBz5wUdBgpgYfXf153LPXz9PP6xYfB5xEy20CG87LZyOQro400ASSrjQy+GuqAr+zq3edXPAGsXJO6bh54jf0iXf/n9HNSVZj9WDZbBfohDFGGDLbSRKxtmZmIyC1hubq+LBQBqwKYOnXqlgB+XmK3iwG8x8wdqfHbWmb2ARgDYGsArQC2LdGYAgCmr169+gIA/yc9wvvMmDEjsGrVqiup9DuadAGYC6AdwKf9Y2UAjQA2ZuZtUmPlRmmlMgpYtm3bpmk+AuBrGszvYVnWnrZt/7eQX1q1atWxRDRRQ3l6Y7HY7W7vDETUzczziOgdpdTbRBRVSq0wDOOL2traFfPmzVvR3NxcN3r06PpYLDaOiCYopaYR0bYAdgGwB0q3qu+rVSRgrUQyV8RYlGfVZE1NTY0F4N0iiyiTmfnMEl0DE9EzzHx3bW3t06ld5HISDAbbDMM4BsBZADatpJdzV1fXr0rg6jUAt9XW1v57qPpOrcQ7CsAF0LsbIhmGcTGAouat6OjomGOa5k0AztdVbqXUHc3NzdsVKiTX1NT8GMXfRcypqam5ycv3AVGynw0QGFIKB2UToDDwWEaxK4uNTL6y2cjkK6vYhRzlzSLOHbgjMKrGu223vAtIqMzCETPWrTwbLCABmYUj4kF1nn4Osh/L5mddHxien7H/eh2bAnCLOKwlhEYpJQJWBWAYxi0AGkokWt3OzP+MRCJD7l45bdq08b29vQcBOBWl2aTmCtM0/+E4zgLpFd6mq6vrNCIKlcIXEXUrpf7k8/nuHz169H/nzJkTy3V+W1tbTSwW2xvAyQCOh7c3vvKmgJV6gV1tGIYOAQvMfDGA/xbYkc7T1EHvc/E31e8w86OGYfzLtu23kVwtkZXU5KkHwHIACwC81X+stbV163g8fhIRnQWgSXO592hra5sQDoeXV9D9uIKZHwfwhmEYc5jZdhxnOdISnVqW1aiU2oaIdmLmw4nowBKJWi3FFrAA/BKA9mkUEb3AzOfatl1Q+aPRaBhAeNKkSb8ZNWrUhUT0YyR3tPM0q1ev/h6AoEYXC5j53Egk8u+81RDH+QzAnQB+b5rmuam+oSsZ7Immaf7YcZyiTqACgcAVsVjsKCS/AdaBWVtb+yMAP8n3F6ZOnRoE8AMNZTk/HA73eXriRWjuz0mUvqIpowAFDFzRlOO8AUJJJqFqKBv9QlUuG0P4yiaYgYApmwGhid5+hn22qn+cl2X1UwZxKOux9PbNJBxmOjaErZzHsolYaX7icUyudAGLiD6G4GlCodBXiOirmt2sBPDDxsbG3w01uU8n9aXZ3wD8zbKsnZj5ViS/aNcCM9cT0Q1IfrkueJS2traGWCz2kxK4SjDzzYFA4BeFzGNT465nATzb2tr6k3g8flMJ7kF3juHK6Twajb4K4GVN5g83TTPv5JOmae4FYGdNZbnBTY3OzBEAF/l8vmbHcXaIRCJX2Lb91lDi1VC0t7d/EIlEfhUIBCxm1r3izN/X11cJMfeKmR8AcGhjY+NmkUjkpEgkcpNt2/9NTeoH7NJj23ZXJBJ53XGcWyORyMEAQgAeK0E5i7oqJrX66uuayxwHcLZt2/s6jjNs8W3x4sVrI5HIL30+304AFnm5s02fPn00M+tMOv5IPB7fsRDxavBL3XGc65RS+wP4XFMZawB8q9hGw+Hwamb+vuZn9yXBYLAt3/N9Pt9vUHyR+HHHcR73+oOXCc15J1xHZSR3NwjYb3vvvzQ/W5l+T6T+7ReNkH3nwIzHRrBzIDLZGsJPxtxZg/wQodkN9RwMBsdA0xcJaeExgjchIpql2cdrRLSN4zi3FSJeDca27bccx9kDyVB6baG5zPwV2SXd2/T19X0H+hO3f0REu0UikfNHsggjNec+goi+ByBWbW1llLsARHS1xmu7sIBynKepHM/Ztj3XBW2dAPCIUuqgSCRiOY5zbWoHraITDodXRyKRszTWaX+bzfDy/AnAn4lom0gkcqzjOE8M5wXtOM4Cx3EOZ2at3xgw8+ZFtvd9aMxPQETdAA5xHOfWYg1Y2tvb3wsEArsDeN+rna63t/dkaMppQkT3OY5z9IIFC0Y8MYlGo68y82EA1mrqzyfosBuJRB4DcL/GJqwxDOOOfN7dwWBwHxQ/RL/PMIzzUQEQY/IA0QhZRKEKSu7euhUwoQKyZ3y2Kr8d/QrZORDpn/PcOZBH6gdZj7liN7dAIKBtIicClrcJhUKHAZihsX882t3dvZ9t28XarTLhOM7PmPkkjPDL+lzFVkr9RHqHpzWRszX7eNfn8+2aWjRSFGzb/r1S6isAequtscqKbduPIpmwTAffzGe3utRqkCM1TZSuL3MVKyK6zzCMbRzHOTIajT4Njd9ADGrbG4lIW54UZt7Ro/fdXMMw9nIc52Tbtu1iVEUkEvklM9+t7UFhGEXLATV9+vTRAL6jsX7jSqnjHMd5ttiGw+HwMp/PdyiApV7seEqpszSZftnv959SzIFhJBJ5nZm1iCVEtG1ra+u2miZ95wL4QmMz7hkKhU4b6pb1+XzXaai3mzo6OpyKGP0QJm6w8gkZxCMMWtGUTTzCEGJXPr6GEMwy+copdqUdMwjYrcX7zcYMfL6q/z95iFjIb+dAzrJia7h+kI+fbGIZuWMDkUQioU3AisfjX0Dw7uOTSKdQ83pXV9fxixcvLvoXWJFI5D6dK6WJ6KuyCsubhEKhQzTnvloQCAQObm9vL/r8IRqNPk1EJ5dqfu8GDBeUgYnoGk22a2Ox2Dl5CCE/gJ7VIE4kEilnqMVDPp9vO9u2v1GuSceaNWsuI6IPNb0otvfe4JtvDAQCO3d0dLxSbNt1dXUXIbmLhY5yb1IsW2vXrj0JwHiNdXx5aiWMFlIrF7/ptRdFS0vLzNSGC8VmJYDjdeREikQid0JTmLlS6ngddsPh8DIAl2qePFzV2tq6RY6B2MkaBP6PE4nELypmAgZsnDF8L/1ztvC9weIR5SF2FeCLCvCFTL4ynNe8WWWsvvpiDRCL5xmmx8MIB8w3VHAIPzwSP4yN3FDXSqnxGs2vkimzN7Esaz/oyyf1WSAQOLKzs7NbV/kjkcgdAP6kcQx6ofQSD44JiHSuvurx+XxHpMaHWrBt+34At1VLe7lBwEIikfgLgE5N5s+wLCvrsC0V469rNchNGJTDqER0ENF+juMc3d7e/l4523bx4sVrlVK6BMpNJ02aNMoj91oPER0XiUTO05X8OJW08i5N5S9aPRPRSRrr+cVIJHKd7sZ0HOc/RHSnlx72Gldf/bDYCdEHjgX5R5psH6Kxf9wFffkdAWBsPB7PuLq1ra2tgYh+paEhLo9GoxUx6WRmAmECkH/+KGQ4L69cVWli0oh8ZTmP8vS1/dTKGLR+tjKPML1CQ/i4gFDBTLYK8YPcx1KfN3ZDXft8Pp2bloiA5d3n5ym6bBPR93VO8tPGQ+fo+nIdwJHTpk0bLz3FO0yePHkzAAdqdPHjUszH6+rqLgWwsBrazBUCVjQa7dUYajaemb+X4wV9CoCxGvyuqKur+2Mp6zGV9+eHgUBgO9u2n3dLJ6upqfkL9Ah5VFtb64X9lFYppQ62bfsfJXgpP6nJdFEGspZlNQHYQ1MZE4ZhnI0SicbxePwKAGu88KBPifiHazC9sLGx8Xc6yx6JRF4E8LaGQfh2zc3N4/Tdiup0ANp26iOiY4LB4AZt2tfXdwmKvwvsm5FI5E+oEP44G2MJCIw44Tq8kdx9dC0webPKaLtPU5mTcopYyDNUcFAIILjwcEAU6ofzyt+1kUuqu06XBhKNRvsgeI5gMDiGiI7SZP7l1CqSUsw7VzHzj3XdN319fcdLb/EONTU1R0FfXl67qanpxlJcx9y5c9cA+Gk1tJnhloLEYrHfQtM3MkR03owZMwIZDvmY+RwdPpn5d6mOVCreIKIdHMf5tdu2N0/tshDW1LauFrCIqFspdVA0Gn2hFP58Pt+r0BPaVluk++Iojc+dezs6OuaVqm3nz5//CYBbPPKsP0TTZOSakewOVEC/+aOO2yUQCOylcYD8PjP/n9YXuGHcmr7CeOrUqVsahlHs8AVWSp2L8qwm1sJoIxnCnG/+KK8ndw9NGlheL/PZysJ29BtwbN2B7HmoCt05kFF42GHOY8nPblm9oWsFVgJVlKuloiaNhnEcM9drGi9fVsprcRznL8ysZVUMM39Heot3SM1NdHHZ7Nmz4yXs1/cB6Kj4Z5FbCrJgwYKVukJymHmr1atXf33wz03T/CqAKRpcxpVSpZrYxgH8rKmpaU+XJ9d9SZNg4+bvleOJROL4aDT6Wqkc2rbdBT1CsK9I9+LR+t4/esWCjA0cj98GfTvaFLNyvqbB7Jp4PP6XUpSfiJ7WNBjfR2e5Y7HYlQB0Ppe3VEr9Iu16fq1hcnFvNBp9tZIGPnGF2kLyR637sUeTu5sTK6ftPlnV/0xLf76hoBC+TCu28goVzL1z4Aa2kMkW55G/S9/Kp0LfG7oErKrb8r2C+KYmu2/atv3fEl+LIqKbNdneKRQKtUp3cT+maW4MYKYm8x2O4zxS4ktKMHPF58Lyu6kwiUTiRsMwzgFQo+FFfBGAv6SNPWAYxopUmEfRx1jz58//qARVthTAcY7jvOw4rt8Y6n1NAyw358Cyo9Hoo2Xwuxx6wmJHxJQpU8YS0Zc09YMXIpFIe6mvacGCBR+apvkkgMPc2gmDwWAtgEM1mP73ggULSrIVuuM4HaZpfgRgyyL3mz10lnvRokU9LS0tpyulnsPABTdFg4jONk3zLyn7JxbZ/OpSfyteCgxGLfeLQikRgSj1b7+QQMnP645xf32vPy+1Y9wG5/ULS+nnbeArdV42G5l8ZbORyVe/jboaoGmjymi3Vd3A2h6sExiZ0z73X3+mYzyofTPVV6Zjg34fSGu3PPxwv5hYqB8u/hh4mOgSsOIQPMe0adPG9/b27qnpPfbbclxTIBC4LxaLXQ1gjAbzhwFol57jbojoYGb2a+zXJV9tGovF/lxTU/N/KGL+YrfhKgErGo0uNk3zrwC+pcH8di0tLV/u6Oh4qv8HHR0dswHM9mjbvRQIBI4rRbLDIk0UV5CGGAaXC1jlqus15MJ4Eb/fvyc0xZgT0R/KeGl/h4sFLL/fv7tSaoyGOi+1OPsfAN8uss023YXu6OiYHQqF/kBEukIKfADuBNCN4otkV9q23YlKw0BNRvEoJUwgXaTIJB4NOraBAIXMNjKdN6RgNpSNLOf1l3fSxoBRIeGDy5ZvKPpkEiAHHMsmYiHzMXBmW7nEspx+KK3PcH4iFgi1LqlyXSvBZAWWB+nr6ztA0xiuN5FIPFCOawqHw6tN03wEGlaWEdGXAVwjPcf1c6a9NZmO+/3+P5fjmhYtWvRF6sv1r1VquxluK5DP57sGmtRKpdTFldBo4XC4u6mpaT+viFepB/kKTXZFwPIO2l4SgUDg32V7iBrG43BxGGEikdCS54mZZ5f4UuZqsDnWNPUHWNXU1FwM4BONLrZH8TdHmK+Uug4VCFMygXs++aPKldydipTcfetNK6fdlqVGEQXu6JctTK/wnQO58HxX2cIbh8id5ZYVWLrKISuwvDnRP0jXWKKcO9wys64Qry81NTXVS8+p2rnJi6kc0OWad/+7khvNdQJWapvJxzWZ3z8YDO5YAe2mSpkQrkg3kq4E/TUQvNIHdL0kXirnS6Kjo+NzAK+7uN51LPn/2HGcJSW+jgWaBq/b6C57OBxeTkQXeOx+vTAajfZW6MgnkW/+KK8nd99io8ppto8+HdaOfgXtHIgstnLuKjiUrUL8JP/rli9EdK2U8kHwIl/W9K55tJwXVVNT85Smvl7X0NCwj3Qb9zJ58uTNAJiaxpaPlPPa/H7/45XcdoYbC6WUulrbBRvGxXLLlp5EIqE0PSBIatf9NDU11TPzTpoGP8+7YLL/X5dWvQ/FX5kDAP8rQx1rEbAMw9imFOW3bfsvupLRa+AZ27YfQYUSUOgD0oQfyi/huteSu/t9wITGymizNT3Ap+kJ3IezcyDyODb8nQMLFsuyCmIMtwjHPbpuQRkVeYtgMDgVRc5BmcbL5by2cDi8GsDbmszvLb3HvdTU1HwJmvKT+ny+58vcr5cBiFZq27lSwIpGoy8AeEOT+WMsy5ost60glI7GxsZtNA5ayy4eMfMrbqx3y7LaoCE5KRGVXMDy+XwLNbXd1BL2kzOJqNvlt2tMKXVeRT+QfOgbIPyk/soqQOUK38twHrKcl00wyyh2FeArm43NxldO/qsPPsHIdw7kke0ciCx+OIcfHp4ftwhYfZrsioDltUemz6cremWV4zjvueAStYwjmXkH6T2uZntNdr/o6OgIu+D6Xq3UhjPcWjAi0rUKy8/M58s9KwilQ2OYVsLv979R7utTSr3lxnpXSulKUj631NeS+pZUR+j05qW6BsdxFgD4mcvv1dui0ej7qGQSqRVYQ+SPyjtXFfKwka+vIQSzvH0B2GRs5TRZZElmcSjvcMB8Vz8h84qtgsUyDEMsW///Sl+B5YfgNaZrsjsHLgiZZeY3Nc1lt5euU31zEyJ6A4BywfW9Valt51oBy7bth5g5oqljfdc0zY3l1hWEkqFLwFqYEjbKSjQaXQJgldsqnYhaNJleUqZLWqvB5malvIAtttjiOugLVxgpn8ZisVmV/jBSCl355I9yY3J3FJDcfeMKEbB6Y8AHH6cG5OsG5uv/n1c44KBjeYcD5imWZVuxlbdYNvDYardUvSa7fmgK2xG0TYR1rSRywyoVEJGuL202a21t3UJ6UNXNTea65L7tqNSGM1xcNmUYxvWaGrSeiM6U+1YQSjY40PWSCLvkEhmA48Kqb9HUnp+W6Xp0hN+VVMBKbcBxOty5c+WPFi1a9EWlP49WNOJzEDhnvit4P7n7phUiYDlLgLjKvqNf+ucy7hw4MrFs4PV87pL3tq4VWBQMBmUDHm+xnSa77W64uL6+PlvXOzmRSEgYoQtpa2urAaAlhYRSyhWr2Jm5vVLbz9XLeNesWfPH+vr6WQA21dCoZ0+aNOmaxYsXr5XbOK8bvaG3t3drABsbhjGemccT0XgimsDM49P6Uj2A2gwmNpJarF6YubWSBz8pIgB2clnV61qBVa4J1hoNNjcr9UU4jvOmaZq3AfiBi/rK247j3F0Nz6PTd6LYAy9xFwNjiNYLDERJEaFfCGIANOgYBp3Xv40IZbPRf17qWCZfnPp5+nnZfBFylDftPJ8BjGuojPZ6d0F/xaS1SaoumNeLef2f089JVU32Y9lsFehng3bJw0+/iJXetpy8zk9dUvXaQhkTicQ4AB/L6Mgb4/9YLDZJ1+vQDde4aNGiHtM0PwLQXGzbRGQCeFx6krvo7e0NGYahRQdxi3A0f/78xaZp9gCoq7T2c7WAtXjx4rWWZd3CzD/XYH7T+vr6kwD8Tm7jJM3NzXV1dXVtzLwdM28LYAqArQFsFYvFJhiGkf5A7r9JpeKEfNAy+CGiD91ygUS0xIX3g45vl+IdHR0rynQ9OnJgjWtra6sJh8N9Je4vP2Lmr+m6NwodbwE4F+5cFaapAfAZMcZwSuHIKFT1CwucRYBKCRPIcN4AAQrrj2XylU0wyyh25Spvmo2NGpMiltdZuhz4eMX6XkpZRCxQZqFqXdtkOpZNEEP2Y9n8rGuX4vj53CXV36XLcE1NzTiIgOUJNIpXALDYTdNOaBCwmHmS9CL34fP5ttQ1Zg8EAh+45DIZQGdqPl9RuD6RIhHdxsyXAhitwfx5AO5C2krvaqKlpaU5kUjMJKJ9kVw5YiqlJLmmUFSmTZs2vre3V4v6n0gk3DT4WeKmercsq5GZdTw311qWdXRZ3sTMjTrsrl27dhT07biVEdu2uyzLOpuZH3ZBd/m74zgvVdNziYBPmDAlqwDVL5gMOjZAPMKg1VPZxK5cNvL1la9gljq28ZjKaKc37AJWPw0Sh7IeS6/zTAJSjmPZbOU8lk3EyuLHAD5xQ90nEomP07+4LCZKqXEyOvIM2gQYInLTuElXWSZKF3IlTZrsxtrb2z92Wb8WAavUdHR0fG6a5t3QE2qxjWVZB9m2/WQ13KkzZ870L1269ABmPgbA/kqpZiLJoynopaenZ3ON/cw1gx9mXuameo/H45v5fD4dphuZ+f6KEjOIasvh17btR0zTfAjAUWW89u54PH5J1T2YGIuIsFtWAQrYICwv44oeZBexkElQySRAZfFVsGCW5qsSErh/uhKIdKZd11ChgoPEobxCBTOspBquWJbNT0ahKocfBSx0Q/3X1tYui8Viut6XYyFU+0S/y7btLhddZ6cmu7ICy41DAGYt6SOIaClcsANhGssqsf08scDcMIzroCd0BADOr/SbNBQK7W2a5h2dnZ3LmPkJAN+FhmWygpDl/t1co/lP3HKdzLzaTfXu9/s3k96Xd9uVMz/AOSjvDpZXzZ8//6Nqa3MiLAKyJEuvgOTum1TACqwX5gGs8tvRL/1zvjsHIv3zyHcOzM8Phj7GnOyb5SYcDq+AppWphmGMlzePZ9CVAmKFy67zC012ZQWWK8cApGVuwsyfuOw6V1di+3lCwOro6FgE4B+aOtqXLcuaXmkN29bWVmNZ1rGmab5GRC8AOA2SSF0oA0opbVsI19fXu2YARERrXVbvm0vvy7vtyrYjluM4SwD8sEzX/WFXV9e11djmbGBRVvEo9f+sQlWGYxvYyHIeFeArm2CW6bzBNiZ4XMBylgALlo58R79cOwdyEXcOHErEGnD+EGIZfO5YgZW6lE80PXvk/eQddE30V7rqncD8haa+Ll8munEMwKzrGeS2ft1die3nmRSfSqmrNTbuORXUpj7Lss6MxWKLUmE+u8pjSijrQ8YwdIUKJObOneuaB7NSqttl9T5Oel9+BAKBUWWdrDvO7QBeK4PrCzs7O7ursc1JYUFycpE+0cDAFU3ZhKoMx6hQG3mcl00wyyh2pdkYUw/UeDibZV8c+M/bQ6x+Wjd+W39OJnEIGc7bQKjKdawAP1wcP/HaT/Ghi5pDV/iJhFV5Z6I/WpPpL1z1TiBaqan+RmHgQlnBHe09TpNdt/XrtZXYfp4RsKLR6NsAntVk/htTp07d1OuNaZrm/qZpvs3MtwHYAoLgjsGPrvCsLrhoAwbDMLpdVu+10vvyIx6PB8pcBGUYxmkAYiX0+bxt2w9U7XNJ4b0BolCu8L2085AtfC/9vCFsZDoPw/VFG/ryevjgU28BK7v7n2Opf4HcYXqFhvBxAaGCmWwV4ge5jw06zz7uOOpzUXNoSUbMzFvKm8cjE0XD0DWGW+Oyib6u8tCkSZPqpCdVx9yEmbtcdp2yAqvcaFyFVefz+c70aiNOnz59tGmaf0BS4JsmjyXBZegSUnpcNshz27ccMmDyEB0dHfMAXFMid3HDMM6t5vo+em9aCsKnmfJHZcxVhfX/zzdXVU4BKh/BDDnyXWUQwvr/2cjD6bHfXQCEP0B+IXyDQgA53xA+FBgqWIBYllUQy9OPAua5bFKva6dfWYFV5RN9Ioq57FK1lWfs2LGjpCdVx9yEiHpd9gwXAavcRKPRpwG8o8n8mW1tbTVea8BQKLR9T0/PHADflmeR4FJ0CSlxN11kPB5320tCVmB5j89K5OdfKcGs2pmXKX8U4O3k7ht7dAXWh58kV1/lFSqIDZOpAwWEA+YbKojMSdsLDTvMeWzgeXNd1iwdmuyKgOUdtIgvzOyqMRwzaxOw4vG4fKHoPmq91o+Gg1JKQghd8oDRtQprs76+vsO9VBfBYPBwInoVgCXPIaHaXhIobbjVkPj9/rVVUu+CBizLagLw01L4IqKDTdOcUu11bgBz88pVBW8ld5/Q6L22+PgL4B8vAXGFYe8ciEGfc4YD5jo2jJ0D8xHL8hHlwO4SsIioXZPpLZuamurlye8JdIkvrhrD6RQeEomErMCqkn7tNmFWVmC5hIkTJ94P4ANNjXyKV+rBNM3jDcN4EBImJLgfXUJKwk0X6fP52E3lISKfdD3vwMzXABhTIl/1RHR71dc54bWc+a7SP3skufuoGmC0x0YFncuB+54DelKZn/Le0S/XsVzhgPmGCqZ/zjdUcGR+WMXwhpvapq+vT5eAZYwZM6ZVnvzuh4h0zRVdNWZiZm2J1n0+n5Ke5Dq0RF0ZhhGXqtWP5wSs2bNnx4noek3mD2ptbXV98nPLso4FcC+AgHRhwQMTc13farlqhVF3d7er7kelVK/0Pm9gWda+AE4o8X35ZcuyvlHN9e5jvJwz35UHk7t7LXww0gnc+yywpre/X66f2RZz50AMY+fAXGJZnuGAeYtYqc/t3zmUPnVT+yxYsOAjJDdM0fGOapOnvyfGcLpWl7tqzERE2tLIuHCFvqAvDYnb0hHVVGLjGV4sdG1t7V0Alut4xiQSiRPcfO2hUGh7AH8EIKsrBE9ARLqSrbtqSbZhGG57SfRI73M/M2bMCDDzLWWamFzf0tKyUbXW/eF70BIAH+ZMlg5vJXef4CEB65X3gb+/APTGoWtHv4FCFYbhZxhiGQ9DLEv5edmN+gUAW9PzRwQsb9Cjqf39LhurahPU1q5dKwKW++jV1K/rq6Vfl3XO5cVCz507dw0R3abJ/BFuvW7TNDcmoodddnOsAbAAwHwAc1J/XkZyR8T0P2/Ks1JeEkV+KLvqJeHz+dz2baIIWB5g1apV5wHYpkzuN1FKXVPN9U+E/6Z9Tv6b+suLyd038kD+q+VdwJ+eAZ59G+BUYI2OHf3y3TkQw/AzpCBWiJ/+9nSngAUAusIIt5M3gCfQIr7oXPHktom+YRgyHnMfPZr6kavmJkqpihSw/F4teDwev9nn812E4ueA2qOlpWWjjo6Oz9030KbfMPPWZXDtAHiXmecS0QdEtEQptdQwjMW2bee1tDwYDO5uGMYr8rysSnR9y1GXmru5JY+C26aOMmByOcFgcBIRXVHmYnzLsqw/27b9XDW2AQPPEuGEflGBKCkwrHuwEEApkaH/WKbziNaLEenHQKmfDWWD1okYmW3k4YsJ2MjFK7BiCeC1duDFeUA8kSp7qhEovZ76hcO0z+nXmPFY2u8jg61cfjj1OxvYGo6fTO0+lJ9kW3Is+WWf6yCiOcz8TQ12d0cymiABwbUQUQ+zlmHWaJddqq4xXCIajUpKh+qZm4xy2f3bWImN51kBa/78+Z9YlvUnZj692HWilDoUwJ9dNtHZnZm/XSJ3a5n5MQD/rKmpeS4cDi+T55zgQiHFmDRpUt3ixYtdsTSbmccSkWsqXeOgUyhWBzaM6wA0lLurMPMdkyZNmu6We6mU1PrxRF8cTAQaIAr1ixT9okk2AWq9AJFd7MpgI5OvIQWzIc4L+IAxLtzXTTHw9nxg9rtA19q0OuH1q8g4g7gEbChCZT3GOQQx5PYzXLEsm5/hiHIA3j39YFrqxnskkUi8aBhaAjbGhEKhaZFI5B15G7gXZl6jyfRYl12nrvKskV5UPXMTt4UQMvMYN81NijZ+9vjg/1oAOnZ22N+F13ojBqbl0MEyIro0Ho9vEYlEjo1EIveJeCUUgS5dhseOHeuabzo0Dn6GN2lUaoV0PfcSCoUOBHCsS4oTrK+v/0k1tsPBO9FSAub2qyqDE6mnf3Z7cvcJjQNDDMs+O+gDXm0Hrn8IeORVYFV3YTv6pX8u2c6ByONYtnBAFJBXa5AfEJ5w6z0SjUbnAlipwzYR7SVvA3fDzB/rGsK57FJ1rV9dKr3IlazS9Exz2wqscZXYeH4vF769vT1iWdY/mfnoIpve1U3XGQwG9wGws873ExHdnEgkfhKNRldBEIorpCzT9O0tent766FnQ4fhvCRclQybmZdq+talD8CLldRHA4FAVyn9tbW11cRisZtdVg0XtbS0/LWjo2Ne1T2kDDxOKpmPJ2MoGG+4iip5zw9aRZPhvGw2MvnKZgOZVgZlWB02wQWBAvEE4CwB3l0AOIuBuFovsm2w4qyQcEAMsfopU5jecPxkWoWXTzgg8gwVzBQqmizbEy6+QxIAXgFwiAbbewG4BYKbWazJ7niXXecETXaXSBdyJboWaLhtBdaESlyB5ff6BSilriaiYgtYVnNz87hFixZ94YqxtWGco9H8WiI62bbtB+RZJujA5/Mt0xXKRkQbaxxcFcpEN9V7bW1tZywW0/I+dBzny3BP7jHPEYvFLgRguaxYAaXUnQD2hJ6Vza6FFB5kwuUYlGcqW66qdWIIcuSqShczkEPsGsoGDxJ/soldKF8C9xVdQKQTiCwB5i8FemMDV6hx2kqxvEIFBwtV2PBYNlsbtA3yE7Gy+RkyHBBFEeWWjl0Ft+cIfRl6BKyD2traasLhcJ+8GVyLLgFmjGVZjfnm0i0BkzTZXSxdyJXoWlm4iavGN0RbVmLjGV6/gEgk8joR/a/Y7R0IBHZ2w/VNnjx5M+jbGTFBRCeIeCXoJB6P6wxDdY1oZBiGq14S4XD4UwBxDaZrp06duon07OExZcqUrYjoxy4t3m6maZ5VbW3yld1oDgHR/pC/wbsBpn/OFr6X7bycOxnmYyPLeZTB14QSJHDv6UuKVC/OA/78H+DXfwN+8wDw8CtA+AOgJ6WZl23nQJR258BC/TAyhjc+cNxx5PZE5i9psjuut7d3prwZXI1OAabJRdc50YP1JwyfZRr7tJv0lYoUsPyVcBHMXPRcL4ZhbAPgmXJfWyAQOAjJXVqKDhFdZ9v2I/IME3Qyf/78z0zTjOt43hCRawQsZnbbSyKB5DdMEzXU+yQAn0jvHsZL1++/wW1JPgfxq2Aw+HA0Gq2qQTcR/sGMy/NNuA6UILl7vrshpkbL44q8p1dPH7B0ObD4M2BJ6s+nqwb6HnAdQPaVR7mOFXPnwEzhmfp2DsxehgL8MOGvbr8/lFJvGIaxChryBBHR1wA8LW8H186xlugKQUqNm2yXXKqu8aSEELrynU+6okMCU6dO3Xj+/PllHyNPmjRpFICNKrH9DOnCWZniknIcosnup11dXbOkmYVSjH2JqFOT7ckuus4WF9b9RzqM+ny+SdKtC8c0zUMAfM3lxRxjGEbV5aRRjL9TAQnXM51X9OTuhLyTu48ZDfhH8FVXVzfQ/iHwzP+APz4N/OqvwI//BNz6KPCv14A5UeDjLwCl0iefqX9Tf2VMUp622mjIVUnYMGn7cPygED8Y+lg2WzmP5e/ng9MPxmtuvz+i0WgvEf1b00TyCGj6olYoStuvAtCpqe1DbrhGy7IaoWk1mGEY70svch+JRELbl3RE5AoNob6+3oT+DeDKgl+6cGaY2S0C1v6aru+3nZ2d3dLSQonoALCVhn68jRsurqmpqR5Aswvr/T0Au2mwO1G6dGE0NzfXAbjJI8U9IhQKHRWJRB6qlvY5fFd69/E3+H8g7JhPwnW3JXcvJP/VyjXJVVUffQos/hRY9gXw+aosQhuKk6Q856qkTDmtMHS+K2DDFVtD5dXKaAt55tXK1C4YIn/XEH4A/IGIPJFPUCn1IBGdqMH0FpZlfUUiAlzNOzoEHmZudcmcr0XTRJ8DgcC70n3cR3d3d0dDQ4OChsU8RNQKlP+LCWZuq8QE7oAIWLkou4CVyn+lK9fMQ9LEQgkHvu8T0Zc1vCRcIWCNGTOmVSnluhWtzDxXx8tLKWVKry6M2trai5k56JXyEtHNU6ZM+c+CBQtWVksbMeN3INyeT8J1wF3J3bPtQLhyTVKo6v/zwSfA6rXrfa9vbw07+iH/0Lrh7Og3nJ0DXSbKqTjhj165P9asWfNkQ0PDGgCjNZg/C4AIWO7lHQCHarDb5pLr0zWW/GDevHkrpPu4j87Ozm7TND+Ehi+fU2mI3DCOa6vU9hMBKztbuGDC06qUls2gVkQiEflGQCjlQ7Rdk+kpU6ZMGVvuSbZSand3Tsj1CFhEtJP06vyxLGsyM1+uwXQMQEBTsZt8Pt+vUxPLqqC+AfeuXYPfMNC4gXiEHDmo8s1VNUicyip25eNrkKgyviEpVn34CfDhp8k/H3ycFKsGCFXYUKgBKmpHv/xzZ6G8opwBPHH2YfSBxyZ8jwM4VsO76sDW1tZQe3t7RN4YrhzDvaMpX9BOSIaPlnUTA2beVdNKlXek97ia96FBwGLmHVxyfbtXasNJDqzsjC13/SQSCS3brBNRBwZuoiMIpXhJaHmGGYaxqwuuby83Vnptbe08TaZ3aGtrq5FunTc3AhhV5Od4t2EYXyYibaHgRHS6ZVl7Vksj7dtGq2Hgb/nkqqICclUhw3nIdd5QvrChjZseBi6/G7j9MeCxN4D3FgJda/sH0xjejn7syR39hvbDhee7yuaHR+AnwbjDg7fJg7oeN/F4/Hx5Vbh0smgYuoSYMaZpblvu6yMiXe+5t6X3uBpdX67vgjLn9ZsxY0aAiHat1IYTAStH3TQ3N48pZwGISMvOAcy8VJpXKCVKqbnQ9A2bYRh7uOA5uo8b6z0cDi8HsEiD6dHxeHxP6dlDEwqFvsLMh2swfVVHR8dspdQsnX2bme+oJrGSGNeCoNITpLs9uXssAXyxpuDk4QPEmKIlKR9CLMsqiBXZD4bhp8SinP3pHDzmtftj9erVjwJYrmnM+72pU6cGIbhvlp9cGadlNz1m3ruc19bW1jYBgC4R7XnpPS5+3xPpEhgbg8Hg9DI/q3dx+Y7XI554CVmora0dX+YiNGqyu0ZaVygl0Wh0FRHpCls9tJzXFgwGdwGwuVvrnpmf02T6EOnZuZk0adIoIrpRg+n5vb29VwPAxIkTrwegMyS8LR6PX1otbXbIzmQT8CQow+opZBGg0o5lFbsyHMt0HhXgq/+XYnGX7OiX76qkTGXJdawCRTkGrpk1i5TX7o/Ozs5uZr5Lk/mAz+f7pbw5XDuWeEqTiHB4Oa8rFot9RdN8uKuxsfE16TnuJZFIvKBNYDGMco+Rj6jkthMBK3fHHlfmIjRosiuhP0LJUUq9pMn0TqZplm1XPMMwjnRzvRPRM5oGs8fLOyQ39fX1l0HDhiBKqfMXLVrUAwCzZ8+OAzgNGnOIMPMPLcuyqqXd2MC1Q4bvDQrlyyl2ZbGR6TwU4Kvfxtq+/nZKbzMUtFookziU16qkQeLQSMSyIUMFUTGi3CejG3CvV+8Pv99/m8bnzXHBYHB3CO6bMBrGU5pM7zNlypSxZRwjfVWT6f/MmTMnJj3HvUSj0cXQE6UAlFlAUkodWcltJ5OP3NSWeeKpKznvRtK0Qhl4UdetAuC4clzQzJkz/QC+4eZKV0r9B4COb/q3DAaDB0i3zkwqFOYSDaYfi0ajj6b/wHGcNwDcpvFy6gDcAT3bjLuOQ2fQc0R4PVeuqnUCFOUhYiH/82gYvtZ0Z1kRlPorn9VCA87Pd1VS+ud8VyUV2Q/y8YM8jpVQlGPGtafsSz1evT/a29s/gL4dA4mI/jR9+vTREFyF3+9/FnqEyxq/3//1clxTW1vbBGY+VFNHftqN7cjMcm8NRNeX6zsHg8Gp5biglpaWPYgoVMmNJgJWrsoxjEA5/TOzruS8G0vrCmXozy9pElKA5AqUkk+ulyxZcgSASW6u92g0+ikRvaPpGXmJ9OzM+Hy+m5AUfopJbyKROC/LYPlHABZrvH/3sSzrO1XzvCL8dKgcVIA7kruv7MaIk5RjGEnKc4lleYXpIX8Rq4JEuWU1Bm7x+v2hlLpJl20iCq1du/ZqeYu4i1ROzVc0mT+jHNcUi8W+hSJvsNJ/i8RiMbfmuCt1ehyfz+f7mVv7NRG9oM80nVaOa0okEhW/e7QIWLl7XqDM/nUJWK3Nzc110sJCqYUUAK9qMt/S0tLy5dLfonSRJybjzLq+Ld8/GAzu4/GuWXTh0zTNI6EhRxgRXTN//vxopmO2bXcB+IHmfnT15MmTN6uG59UhM+gpYryYVYCCO5K7MyUFrKLs6JflWDZb/T9ww45+nhHlGL8+/XB9O4eW8H3+AoC3NL5cz7As6zgv1k0wGNzRNM1KXZ18jya7O1iWtW8pL2TGjBkBAGdrMj97wYIFH45ogm4YusJ0tyzl+CoUCt3MzEe7tUP7/f7HoCkkmohOaWtrayjl9bS0tDQT0bGVPkYTASsHiUTCX+YirNJkt9bv9+8qLSyUAV1bcEMp9UuUcBVWKBT6GoDdPPGgN4x7oGn1m2EYtweDwVqvdcTm5uZxpmneWmzhs6mpqR7ADRoGQh92dXVdmescx3EeBvBPjdU2PhAI3IAqgYGfZhSgXJTcvacXiCc2EEmqbUc/T4hyAD5qHIs7K+X+UErp/AKHmPnPXhKCZs6c6bcs61LDMF5l5qmV+ExUSt2v68t1Zv6/Uo7hurq6ToOGHJWp9/UfilAffZoufQ8AvhJUsc80zTuI6Ew39+lwOLyMiF7WZH6TeDx+fonv0V+gCnJdi4CV+wFU7hDCDzRe26GV0kzSU71DPB5/EAPnI8VkJ9M0TyrFdViW1UhEnglx6OjoWARA1zLpVsMwfu2hbugLhUKn1NTUdAA4SylV1IFcQ0PDjwBsraHcF3Z2dg45cVBKnQN9X34AwPGmaVbK+yMnh+xMs5nx6AbiEdyT3H1NT5pgwtW5o99w/GAYfkYsyhEu93Luq8GkVmHpDJOqAfCPUCi0vdvrwrKsnTo7O19j5qsqefIYjUZXMbOuLyJ3Nk3zm6W4jmAwuAmAKzSZX9XV1fVQEeZpvZrKN9Y0zd013w+Npmk+AOBUL/RrpZS2L9eZ+aJgMFiSVCOmaX4JwInVMD4TAStX5RiGr5z+mXmRNtWH6LRgMDimhHV5ribTAemp3iG1pPpNjS5uLNGOhDdC0zd3GvmTRtvnW5b1Xbc/0kOh0AmmaYaJ6G4ARQ+Fa2lpMQFcqKHsz9q2/UCeE4zFAH6kuS5vq5Yky0w4H0Bv8r2JIXNVlTq5+5qewpKUF3tHv+H4YRR350CPiHKv/uCruK/S7g+l1KXQuAMqgHFE9EJLS8tBbrz+1EreW5j5dQAzqmRudLfOsdXUqVO3LME13AlgU03zq7/m82XTkJObQEBbqDERactf2tLSMo2Z3wJwpFf6NBE9BH05escQ0V3QvOAitZPnn6tF2xEBa4g+XeYbar7OQYFhGGeX4jpCodCPAHxdUx3VSDf1HL/XaHs8gAdSYVxaME3zfGY+xWuVXldX9wCAz7VN9JnvME3Tdd+2TZ8+fXQoFDrDNM33iOg+AJbGOrgZxd+9NsbM5xTyC47j3AbgDY3VunVPT8/Pq+FhdehONN8wcMvgnFZuSe7e3YvSJinHMPxA786BxRblMAw/Q4hyCgrnEhFX2v0RjUbDAO7W7GaMUurfpmm6JjFxU1NTvWVZl9bU1MwH8P1qmk91dHTMBvCarrmJz+d7xLKsRo1juCs0iivxRCJRlNX5m2yyyWfQFLHAzF8JhUJHFdNmc3NznWmaP1NKvQnA9FKfdhxnCYCnNM7nDzJNc5Yu+21tbTV+v/8B6Fn970pEwHL3DfUZgAUaXfw0GAxqzeFjWdalRPRLjS5qpad4i9WrV98LYLlGF7s1NDT8Q4eIFQqFzgBwrRfrfe7cuWsAXKfRhQ/AHaZpXueGnFjBYLDNNM1re3p6FhPR7QBaNT/rjmFmHRsJ3BSJRNoL/B2F5M6ccY2XfG5LS0tVrDgghV+AsDSvhOsobXL37t4SJynnYewcWIBYNhw/GIaf4YplG9hCXmLZ3ecdTW9W6v0Ri8V+AuAzzW78AG4NhUJPWpY1uVzXOmXKlLGmaV7Q0NAQTYULTqjSoZzOLzB2YOaHdUSJhEKhcwDM0lj2+6LRaFEWH8yePTuucaxMRHRPMRLnz5gxI2Ca5rdqamrmIRmW6cl5GRHdpNnFFZZlFT0aadKkSaNisdjfAFTqxhEZEQHL5TDzqxrN1xiGcX9LS0tzsQ03NTXVm6b5p9QLXieyAstjdHZ2dhPR7zW7ObShoWF2seLOg8FgrWVZN6aEEM/mXVNK3QK94iEBON8wjDfLkXy3tbV1a8uyLjVN813DMN4DcAGAcbr9trW1NTCzDnFwKRENa/tpx3He1VSmfnzMfOfMmTP9qHAO3IlWGpTc4TFnwvUyJHdf24vK2zkQFSXKLeupwSWVfH8sXLjwY2Y+vUSTzIOYeV4oFPpRc3PzuFJdYzAY3MY0zVv8fv9iJL/E2qKax3GO4zwBvat89zMM4+WpU6cGizWGM03zZiK6UeMYLmEYxq+KPAdcqrGORzPzM6ZpXmWa5sbDqNOppmlevnr16iiAPwIIerlP27b9FABb85z+hlAodENbW1tR5q6tra1b19fXvwDga9X2DBIBy+UQ0YuaXWyplHrTsqz9imUwFAod1tDQ8C6Ak0swIRcBy5v9+jboXR0CADsbhhEOhUI/GMHLgkzTPMQwjLmFhnG5kVQC1utK4GoagGdM03zOsqxjivWyHkxzc3NdMBj8smma14RCoXmJRGJRSjSfXsp67evr+wk0bE1NRJfYtt013N9fs2bNz6BxFS8z77hkyZLzquGZdeCO9CCldnjMKkAht4iV73n5JncHAb2xwnfac/3OgYyKEeUU4fuXf4VWVPr9EYlEHoLePIsDJt5E9MuampqPQqHQ9ancg0WntbV1W9M0fxoKheYZhhFGMlSwQUZw695PP9U9jvD5fHNN0/zhSHIuBoPBLxuG8Q4A3WlT/tLR0eEUuY4dzWX2AbgUwGLTNP9qWdaZpmnuPHXq1E37V9K3tbXVTJ48ebPW1tZtLcs6KRQKXW+a5luGYUQBXMnMW1VIl2YAt5Tgvjk3Fov9r6WlZeZwbTQ1NdWHQqGLE4lEGMDO1fj88UNwNbFY7JFAIHAb9G55ujEzP2Wa5p+UUr8e5vJXXygUOpKIzgXwpRJWkQhYHqSjo2ORaZp3IxnmpJMxRHRTLBa73DTNO5j5kUgk8i6GyCvQ2toaUkodxszfA9BWSXVvGMZNzHwGgFLsirIvM+8bi8U+M03zGQBPKaXenDRpkpNaHp83U6ZMGWsYxhQi2h7AzkS0c0qoqkkNCspSn6FQqJWIdIg4L9m2/ZeRGOjs7OxuaWk5Syn1pMbB2CzLsh60bXth5c/YcDYx9mVgHNF6kYIo+UChlIBBtF7M6D+vX3QafN4AG6nzuF/IGuK8WByIJwb5T4lfqV3v1n1OPwcYeN6AY1lsbVD+PPysu44i+em/xTfwkybsZT2WzVaBfghDlGGgrYcuOpoeQpWglDrHMIx9ADSXyGUDEZ2nlDrPNM0OZv4XET0N4N1UCo68MU1zY6VUyOfz7QpgL2beM5FIbF7Od4vbsW37SdM0HwJwlEY3owD8qqen50LLsu4mon92dHS8jiE2Dmhtbd06kUh8BcD3AGxfgupYEYvFdKy07ChRc9YCOJ6ZjwcAn8/Xf18kYrGYLxAIIJFIoNLvh76+vrtqa2svLoEo16aUet40zTcA/I6IHrdtu3OoeXZq98gjAZyC6g1fFgHLCyxcuPDjUCj0EhHNLEFf+K5hGN8yTfMxZv4PMz8XjUbfzzTZb2trq4nH4y0ApjHzwQAOAbBRyecTksTds/h8vlmJROIbAEqxm9kWAGYR0SzTND8novcALGDmLwD0pfr/uNTAe5tEIlGx4QG2bXeFQqEziejRErrdGMAJAE4wDAOdnZ09oVAoCmAJES0D0AVgTdr54wHUI/lt95YAJrv1ZU1Et6D4QnoCwA9QhASuHR0dT1mWdR8z69paeTQz35Z6B1Q0X96ROp/6H59KjH9sIFT1i0I8hAA16LwNxK7BIlM2EQtJ8Sqn0JJBHMp6jNavKMokyGU8NoStnMeyiVg5/HhJlFPAxzU1OAtVRDQaXWWa5skAnivD/KKFiFqAZLimaZqfAngPydxcKwCsBhAjIh8zj2Hm0UQ0Gsmkx1MBjDEMA8wMoSDOQTL3ju5dzScw80XMfJFpmqsAtAPoYOYviKiHiAxmHsvMWxuG0ZpIJEq9KuiShQsXfqzB7txyD9WrqTMvWrSoxzTNn6B0q0l3AbALM7NpmguRFCwXp55ZIKJRzDweyc2HWgE0yiNHBCzPkNryfWYJ+8QRRHQEEcE0zQSSO5d9BmBtakI5JhaLbeKS/iMClkdpb29fGgqFriOin5TY9UbMvA+Afaq17iORyL81ixpDUUdE2wLY1sv1aJrm8QD202D6dsdx3i2Wsb6+vgsCgcDB0CcCHhwKhU6MRCL3Vfq9c9CO9MDT/+M/E+ObG4gZaaJTJgEKGc7bQOxKHQNnEbvSbMTS1iDktSIIea5KGiRC5bUqKYtYls1PLrFMuyiXh1g2QlGOQfjOeUfQx6gyHMd5KRQKXZjKNVRONgGwQYLqfoFKVlUVrb2XmKb5Q5Qg9CqNMQB2BbBrfzumt2sZRMiXHMfRktfV5/O92L/ySShZn77XsqxzmXnHUk71AUxJ/dngeSVsiOTA8gCBQODvADrL5N4HYFMA2wCYgaQKvAXcI36KgOXlB5BhXA3gA6mJ0sPM5wL4RGpieKS2+daxI+WntbW1VxTT4MKFCz8mIq2JpIno+ra2tqpY0h7vw9kwsGBdYnaUJ7l7POHCHf2G4wcF5u8a6c6BXEBerQz1MWT+LuDaS46hx6v12RiJRG5i5t/KW6JqJvy3A3iySi9/hVLqFBRhtXQm2tvblzJzRHpZSVGJROICJHdzFtw6f5QqcD/hcLjPBd9muRURsDyMbdtdRHSKvCjKMuj8DMDRSIZQCgXCzLMANBXbLhFdPm/evBUa7rW7AejcFGTTeDx+TTW0/aG70SoDOB6EHuSTcB2akrunqTiu2dEPWnf0G2jLnaLcK92MH1X78zESiZxNRA/Km6I6JvyBQOAb0LhhiFuvm5m/Ocy8wflP1A3jEelipSUajb7AzDdJTbgXEbA8Qm9v701V+HLIhzqpAm9j2/bzzHxzBVzKKgC/81KBHcd5mYjOlF5YGK2trdsimfuj2Lxh2/YfNBWbAZwOoFdXvTDzty3L2rca+sABO9Cb6N+EgnIIUIOOZRW7KA8RK4OvatrRzwOi3Mcx4LhZx5F8KQAkEonEN5j5KamKyiccDi8HcBQRdVfRZf8iEok8VgI/f5ceVnrWrl37Q5Quib5OXgLwZqW1jwhYHmHRokU9AC6UmhgIEY2TWqiIF8XlKH+yypFO3s8E8F+vlTu1Muda6YX5P3YSicStKH4YtUJym29tqxEdx+kAcJXOulFK3dHc3FwVXyx8eUf6MzF+NzjMb4BQNehYVqEql400gWtA6GHaKqyMIlahIXxcwKqkTLYK8YPcxzwoysVAOObHx9ESeUQmiUajvcx8BABZQVIFOI7zrlLqmwDiVXC5f3cc5+clGqO9BeBd6WGlZfHixWsNwzgJyfzPXuXz1GZZFfdeEgHLWy+Hh1G6nRG8IhpsJLVQGS8KIjoEyd03vNgP745EIvcReTNpr+M4FwO4Xnri0JimeRKAvTWY/r3jONq/JQsEAlciuYOTFogoVFtbWzUhVLEx+AEIL2cUqnLlu1pXXznyXWUQwtI/1wSGWBGEPFclDVptBC48HBCF+uECQgXz9INh+CmiKHf2ZcfRy/KEHEg0Gu1tbGw8Vsau1UEkEnkIwElI7qRbqfOOB5qamk5CCVNfMPP/Se8qPR0dHXOI6FvQlONMd7chou/Mnz//I2ZeVmltIwKWxwgEAmejMpY0FgsRsCoE27Y7DcM4EsAajxX9v2vWrPkBACilvPqSYMdxLiCiX0lPzM6UKVPGAviNBtMrlFIlEX3C4XCfUupMnQMyZr40FWZZ8Rwaol7qw5EAnA2EKuhN7l5fm6pvFDdJecZjQ/hhDCMcMNcxb4lyV11+PN0pT8jMzJkzJ+Y4zrcB/MijE0GhABzH+Tszn4zKFLEeGjNmzImzZ88u6SqzSCRyP4Cw9K6yzE3+AeCHHiz6LNu2/5UcX1TejrgiYHmMcDi8GsBhAJZ6qNhziUhXXpeGYDBYKz2jMkh923GMh/IozKutrT28s7OzGwD8fr+nXxK2bf8YyVBl2bc5A4FA4OcANtdg+ifRaPTTUl1HNBp9AcDdOqtKKXVntYwxDtiVPvczDgPw2TqhqgTJ3QO+5J9+Cg2tK8qOftC+o5+7RTnG3y7/uicnN+UQNq5k5sMBfF7p10pEVf0OjUQi9wE4BkBXBbXpHY2NjcfPmTMnVgb3CSI6Hd7b8CgO4FTDMDydG9NxnKvgrSiFW9JDXGUFluCWG2mBYRgHAVjugeK+FQgE9q2pqdGWvysQCEyQXlE52Lb9JDMfDGCly4u6wOfzHZS+Y1x7e/sn8PiOio7jXKeU2h8eDecskLWGYeQlOpqmuR0zn6WhDO84jlPyLecDgcAlAD7RZZ+ZdzdNs2o2CNh3BkUJ+CqA1UPmuypicvexDbmTlHt8Rz93i3IK/2kch28Tkawqyl/YeCyRSOzAzLMr8fqIqJuZL2lqavqjzFWch5VSuwOIevxS+pj5DNu2zyiTeNU/Nv4vEV3noXpbw8xHOo5zl8/nm1sB/fkCAD/1wDPoPsdxzh30M1mBJbiDjo6OeUS0B4D5Li7mM/F4/IBwOLw8NcnXpQBLGGHlDXxeUkrtC/euNHwjEAjs2d7ePrh8CQCfer3+Uyt0dgDw7wruZk8A2Lajo2NOPmMCADoStzOAH6AMK97C4fByZj5fs5srTdOcWC3PrQN2pFcNH46AgZ6s+a7SOlQxkrtPaFzfk4a1ox+7dkc/d4tyhNfiARx5zqHUC6Eg5s+f/1EkEtmPiM5CZa3QeTSRSEyPRCJXlzrEzMVjiXBtbe0uRPSoRy/hIwD7RyKRO9xQGNu2LwPwpAfqrV0ptWv/Lo3hcPgLePzL3dTc5OdIbrbj1vv7etu2Tx5c1x5Ob5IVEbA8jG3bdurbjWfdVjZmvr2pqenQBQsWpK+i0ZI4OBaLiYBVmQOftxOJxPYufFn/o7u7e2Y4HM72QqiIbzocx/nMcZyvAjgBwAcV1LXeJaIjHMc51HGcBfn8QigU+haAPTWU5V7HccqW+Dm18cDTGl2MAXBLNT239t+OnjOAI0DoBbIIVUVM7r7xmBHu6JflWDZb/T/QvKPfsP2USJSbE/Dh4FnH0Wp5Uw9/mGjb9u0+n88C8EePT27nATjQtu2vRqPR+dK0gypn3rwVtm33jyW8Mj5SAG4morZyvqMzkKirqztG83t7RPc1gDsDgcAu0Wg0PKg+v6iQsfGtAPYlog9dVKw4M5+ZWiW2wRei+UYaeAkRsLw/yf/UcZwvM/M5Lskb9DERHRGJRM7K8A3UO1o6sWFICGGFMn/+/E8cxzmUmS8G0FPOsqTurwscx/n64sWL1+Y4r5K+6WDHcf7W3d3dimQCXi9P2N4louMcx9mhP7FlPkybNm08EenYAWiVz+e7tOwNzHym5nfHkaZpfq2anlv7b09PE3A8ZRCxip3cfdNxgA8Vt6Ofe0U54C1/HAdddhythDBi2tvblzqOc4pSaidm/he8leT9HSI61nGc7R3HeVZac8iJ/99qa2tbAdwFd+fZfJuZ93Ac5xzbtl23QnDu3Llr/H7/4RpzCw+7aIZh7OU4zumpfM2DWV5Bffnlmpqa7YnoQTdIAQD2i0QiWVNRrF69WlZgCe6cZEYikZsTiYSVeqCV48XQy8w3ANg2x+TwcU2+ZQVW5ffvawzDaAXw93IMcJl5diKRmO44zvVD+WfmivumY/HixWsdx7kSwGQkd2P5yCNF7yWi+4hoL8dxtk/tJlNQ/+nt7f0lgE01lO1nGUJQyzEQWwDg55rd3BwMBsdU00PrgB3oYSYcQYRuIE2oKnJy94Af2GhcBqEln5VHcOWOfnmJZcPxg2H4GSSIvciM/X/4LfocQnFnYNHo25FI5Ail1IyUwOHW0EIF4AlmPtxxnB1t234AFRAaVSrmzZu3wnGcU30+X2tqvhJzUfHeIqIjHceZEYlEXndzPYbD4T7btr9DRMeh/Gkrwsx8ouM4O3Z0dLyS47zPK60v27Z9jFLqICRXYZaaBIBrV69evZ3jOC/lOjG10dSqSqp/EbAqawCw2Lbt7wDYFsl8LaUYACwHcLNhGC2RSOR8x3E+y3ZiIBB4UccNREQiYFUBHR0dixzHOd4wjL2QDCssxaDxbSI6NhKJ7JdvaECFrcAaLHZ85jjOr5uamqYw8zEAnnHZABSp8jxJRN8zDGOibdvfsG37v8MxFAwGdwRwuoYyvt/Y2HizWyqsoaHhOgA6k6xONAzj19X2zDpwe3oKBg4mSr73dCV333LjYaw8KvHOgYzi7hyI0otyz6EGh806iVZB0DmOfdtxnFMDgUATEX2PiF51SdEWAbjSMIypjuMcGolE/g1vrRZzFe3t7RHbtr9jGIbJzDeifKGFMSRzfR7mOM7Otm0/4qV2tW37H0Q0FcAslDZEry+1YvJrjuNMj0Qif8XQiyeWV2JfjkajTzuOswOAUwF0lMBlAsDfiWhHx3Eu6t8FfSgq7ct1fyVcBDNHiGhc0XtIIvGFF+vDcZwOAGdblnU5gCOUUkcQ0cEAGorkYhmA5wE8opR6OBqN5pXENBwO94VCobuJ6EvFvF6lVDHCX95D8Xe9W1CO9iei9wEUO7Gsa1bcpL7hOWTq1KlBv99/OjN/C8AmRR7Q/IeIbrRtu+D8W8z8HoA5RSyP6/JPpcKDHwTwYHNz87hAIHAIER0B4GAAY0v9CgDQzswvENGLtbW1T6XvDDkSDMP4LjSEPhPRxeXczWgwc+bMiYVCodOI6FaNbna2LGuybdsLq2midsB29NIzc3kviuMxJmzZv18dE0Ap0YRovYBCg45h0Hn94kr6eVttBrwdSY5qGanzUwIX83rxiznt9/qFmkHnpf8+BttK/R+Uhx9Ku55sx4bwk/FY2u9jsC3k9kP9QlW6LeQ4tv73/0h1OH3WcdQn0kNpSIUg/R7A7y3LslLvlv2ZeSaAxhIUQSEp6j/CzA9HIpF3Snj5/0MyMriY42RX5ubq6OhYBOC8mTNnXtTZ2XkggBMBHK55HJEA8DqA+wD8PdcX7x4RsboA/GzSpEm/qa+vPwbAyQC+BKC2yK5WEtGLAJ4govs7OjoKXVH1Noq8mp2ZO13SDAnHce4C8HvTNPcDcBaArwCoKaKP5UT0D8Mwrm1vb48M4/dfQhEXkRiGUVaNhOQ1WR3MmDEjsGbNmunMvAsz74BkKNBWRDSJmeszPahSIsgSJONro0QUVUq9GolE2qVGBRdhhEKhnYnoYCI6CMB2Wfp0LpamBjQP19bW/qtYAkgV4mttbW2Nx+M7EdFOAHYGsA2KJ573AWgnojAzz2Pm95RSb8yfP/8TqXrBzTz/Lk9KKDzGwHQUkO8p3/NeDgMffpJf4vd8dkDMFK6YM29Xif3k2qkxLz8ZypnhGBPhJz8/mX4lPdgdzJw5079s2bJdEonEfkS0LQAz9Wf0SObBqbFuO4BXiejV3t7e1xYtWvSF1Hh5xhHBYHA7n8+3NzPvA2AGgEkjmLOuJKL3mflFAC8qpV6ORqMVvZJy+vTpo3t6evYGsCsRbcvM03LM9za4H4joo9TikCiADiJ6qaOj4x24O3eZq2hra2uIx+P7KaUOJqL9AARRmDCdABAhoheUUg9OnDjxednddNB7XxAsy2qsqanxf/755735LkcUBJdimKbZzMythmEElVKNABr7V2ky8xdEtBLASmZ2lFLvigCil+bm5nF1dXVbJhKJrQBsaRjG2NRAqhbJb9P7VwP3AuhGMndVNzN/zsxLASypqalZFg6HP4aEbQge5fHXeExNLf4G4JCsQhVyiFjIHvr36RfAM//LLNqkD/TyErhyiENDJZgfjp9cIlbetkboJ4OItdZgfPfn36a/Ss91P1OnTt3S5/OZACYS0Wgkd0BtVEqNJqL6tHf/WiJay8wrmHkJgAWxWGzhokWLeqQWXT2GqBs1alQwkUgEiWhrZh4FYByA/nEEAKwAsJaZu4lomVIqCiAajUY/lRpcP9cjoi1S94YBYKxSak3qvlillOqKx+Ndcj8Un2AwWGsYRguAVmbekogaUuPf0UhGfqwkopVKqU+I6P3Vq1e/J/Px7IiAJQiCIAiCUAJmMRtfehs/Y8KPmNdFriXJJ39VjmNPvQV8nlpXoHOF03BFrFL5KYIot4AZR195Cr0jPVYQBEEQ3IUIWIIgCIIgCCXkmbf5MAL+zIzxQB4i1qBjmc5b8hnw/NwsQlXqQ5FC67LbKrKffHdjLJZYRsDjiRqcdNU3SMLIBUEQBMGFyC6EgiAIgiAIJeTAHegxSmBnEF7vF1IyiSqFhMhN3BjYbGzhO/oVZedAlHjnQB6GH855rI8JlwY+wOEiXgmCIAiCe5EVWIIgCIIgCGXg+efZnxiPK5jxQ3AywetIkrt/thJ48s20nfUwzBVOGH4eqlL5GTJUMP+www4onHjV9+ht6ZGCIAiC4G5EwBIEQRAEQSgjT7/NexrAH5gRAkaW3P1NB+j4MDXIK8WOfsPxU4CIldFWcfwoALeOiuOyWaeTJMsVBEEQBA8gApYgCIIgCEKZeeUVHrW2HlcohQsBBIab3D2eAB59DVi9NjXQK/+OfiX3k4co954inHbNd+lV6XmCIAiC4B1EwBIEQRAEQXAJz/2Pt0sQ7gBj1+Emd1/eBTzxJqBUarBXvh39Ruwnl4iVt631/+8G49ejx+E3s46jPultgiAIguAtRMASBEEQBEFwEcxMz76NbwL4NYCmnEnUsxyb3wn89/38QusK3jlQg4il2Q8bwN8Sflx63XfoI+lhgiAIguBNRMASBEEQBEFwIc+HuSHeh8vAOI+B0YUmd393PvDuwjyEqlzHhpGHqlR+8hLlGK/BwIXXnUavSI8SBEEQBG8jApYgCIIgCIKLeXYeb8ZxXMqMM8AYBeSf3P0NG+j4qIg7+mEYIXwjFLGG5Ycwh4Gf3nA6PSY9SBAEQRAqAxGwBEEQBEEQPMDT/+MmAJcC+C4Yo/NJ7q4YeDcKzF2UNvAr/o5+GX+/TH7eIMKV15+Of4GIpdcIgiAIQuUgApYgCIIgCIKHeDLME4w+nMEKPwCwOTB0cveOxcAbNph5vSZUpB39ctsajp8CRKzUP4oJ//Yzrrn+LHpJeoggCIIgVCYiYAmCIAiCIHiQxyNc6+/Cccz4HoAvgUG5krt/uhJ4cR7U6h4YRdjRb8NjIxSxhuHnUwD3KMadt55NjvQIQRAEQahsRMASBEEQBEHwOE+8yZZh4HsATmRGE5A5uXtfHHjTBqLLwMQpnWiYOwcOmTsr17Hh+4kz4RkfcPdGm+Bfs46jPml9QRAEQagORMASBEEQBEGoEGYxG7u/jb2g8HUGjmZgs0zJ3ZevAl7vQN9nq1AD5LmjH0YedjhMEUsBeJWAfwQS+NuN59HH0tKCIAiCUH2IgCUIgiAIglCB3H8/+xqD2IUUDmHGIQB2ZMAAkiIWA+j8DJi7EKs/W4mGYu4cmHeoYDY/jE/IwFMMPMF9eObOi+gzaVFBEARBqG5EwBIEQRAEQagCnnqXN+U+fEkBewHYE4wdGPADwOergMgSrFj0CXzxOMasGySWbofCJQS8TIT/EuHlzZfj3VmzSEmrCYIgCIIADBxrCIIgCIIgCFXEU+/yaNWD6QkD04gxnRnTAFifrMAmH36CJZ3LkVjTg80ZqFs3aBy5iLXWAKIMhEGYC8Z7Ph/evfNc+lBaRBAEQRCEXIiAJQiCIAiCIKzj0be4nhUmgzGZY2j+aDmmLl+NmhVdGN3di7F9MdQohQYFjAInQxJTg8ovQGACVoLxKQifG4TPASwjHxapGBb+8RJaJjUsCIIgCIIgCIIgCIIgCIIgCIIgCIIgCIIgCIIgCIIgCIIgCIIgCIIgCIIgCIIgCIIgCIIgCIIgCIIgCIIgCIIgCIIgCIIgCIIgCIIgCIIgCIIgCIIgCIIgCJXM/wPSlm0UAPt3FwAAACV0RVh0ZGF0ZTpjcmVhdGUAMjAyNC0wNy0xNVQxNzowNDoxOCswMDowMPEuYUEAAAAldEVYdGRhdGU6bW9kaWZ5ADIwMjQtMDctMTVUMTc6MDQ6MTgrMDA6MDCAc9n9AAAAAElFTkSuQmCC;" vertex="1" parent="1">
          <mxGeometry x="660" y="138" width="280" height="42" as="geometry" />
        </mxCell>
        <mxCell id="Fr4EqGBGlhZ2miJh7v5--26" style="edgeStyle=orthogonalEdgeStyle;rounded=0;orthogonalLoop=1;jettySize=auto;html=1;entryX=0.466;entryY=0.006;entryDx=0;entryDy=0;entryPerimeter=0;" edge="1" parent="1" source="Fr4EqGBGlhZ2miJh7v5--1" target="Fr4EqGBGlhZ2miJh7v5--14">
          <mxGeometry relative="1" as="geometry" />
        </mxCell>
        <mxCell id="Fr4EqGBGlhZ2miJh7v5--27" value="" style="shape=image;aspect=fixed;image=data:image/jpg,/9j/4AAQSkZJRgABAQEASABIAAD/4QpWRXhpZgAASUkqAAgAAAACADIBAgAUAAAAJgAAAGmHBAABAAAAOgAAAEAAAAAyMDI1OjA1OjA1IDE2OjE2OjI2AAAAAAAAAAMAAwEEAAEAAAAGAAAAAQIEAAEAAABqAAAAAgIEAAEAAADkCQAAAAAAAP/Y/+AAEEpGSUYAAQEAAAEAAQAA/9sAQwAGBAUGBQQGBgUGBwcGCAoQCgoJCQoUDg8MEBcUGBgXFBYWGh0lHxobIxwWFiAsICMmJykqKRkfLTAtKDAlKCko/9sAQwEHBwcKCAoTCgoTKBoWGigoKCgoKCgoKCgoKCgoKCgoKCgoKCgoKCgoKCgoKCgoKCgoKCgoKCgoKCgoKCgoKCgo/8AAEQgAGwCgAwEiAAIRAQMRAf/EAB8AAAEFAQEBAQEBAAAAAAAAAAABAgMEBQYHCAkKC//EALUQAAIBAwMCBAMFBQQEAAABfQECAwAEEQUSITFBBhNRYQcicRQygZGhCCNCscEVUtHwJDNicoIJChYXGBkaJSYnKCkqNDU2Nzg5OkNERUZHSElKU1RVVldYWVpjZGVmZ2hpanN0dXZ3eHl6g4SFhoeIiYqSk5SVlpeYmZqio6Slpqeoqaqys7S1tre4ubrCw8TFxsfIycrS09TV1tfY2drh4uPk5ebn6Onq8fLz9PX29/j5+v/EAB8BAAMBAQEBAQEBAQEAAAAAAAABAgMEBQYHCAkKC//EALURAAIBAgQEAwQHBQQEAAECdwABAgMRBAUhMQYSQVEHYXETIjKBCBRCkaGxwQkjM1LwFWJy0QoWJDThJfEXGBkaJicoKSo1Njc4OTpDREVGR0hJSlNUVVZXWFlaY2RlZmdoaWpzdHV2d3h5eoKDhIWGh4iJipKTlJWWl5iZmqKjpKWmp6ipqrKztLW2t7i5usLDxMXGx8jJytLT1NXW19jZ2uLj5OXm5+jp6vLz9PX29/j5+v/aAAwDAQACEQMRAD8A94+IHjiLwr9nt4rR7y/uFLRxg4UAcZPf8AOx6V5THqnivx9fhGe8WxBORZxlYoyASAeeTnHU55qb4kXNxrHxSFvZPMr27RWySRZ3J0JIx6FjXerbTNfNqF7Y6lZW2kyyRQW1tiRbuNtyCTyhyG+bcTjn+X0lKFPBUISUU5yV7vpfay/y+Z5U5Sr1JK/upnB6H4+8U+GbtbDWLae7RRkwXassoX1DYzjjvmvaPCmv2viXRo9RslkRGJRkkxuVh1HFeea/pV/ZeHdT0eGK+lhs7QyxapJIHeRty74lwSUQrkbfb82fs/X5+zavpr5BR1nVT7ja3/oK/nWeNpUcRh5YinFKUWtuqfW3T8+5dCc6dRUpO6fc7X4k+N9O+H/hl9c1iC7ntllSHZaqrOWbOPvMBjj1rb0DUo9a0LTtUgR44b62juUR8blV1DAHHfBryD9sD/kjsn/X/B/7NXK+A/H3irxve+GvC/w6mSw0fR9NtY9X1Sa3WT5hGoKorj1VgPU5PQZr589I+l6bI4jjZ2zhQScV4tF468QD9pk+DGvVfQVtBJ5RhTcW+zh87wM/e5o+HnjrXte+L/xA8PandpLpWlrILWIQopTDhRlgMnj1oA7b4WfEbS/iTpV7qOi217b29rcfZyLtVVmO0NkBWPHPrXa18RfAuP4lQ/D/AF/U/AGradaadY3DTXFtNEry3DrGpIXcjD7oHcc16/afHqQ/AWTxhPZwHXI7r+zBCMiJrnAYNjOduw7iM9iM96APfqK+R/8AhcXjjwvDoniDWvFfhjxBp19Iv2rRrKSE3FqrDdghAGBAyMkkBsA5zXbfGLx342X4seHvBvgTU7LTl1SyjuEnngV/mZpc5LK2BtjHRc5oA+gqK+c/ix4v+I/w3+Gejtqet2Fx4ju9Rkhlu4LZGQRbSVCgoozxySveksPGvxH8CfFbw54b+IGp6drVhrjLFHLbQqhjZm2AgqichiuQQRg0AfRtNmljhieWZ1jiRSzu5wFA5JJ7Cvnb4m/FbxBc/FG48GeEtd0Xwzb6em661XVXjVWfaCVXzAR/EBgDJIJ6Cl+HvxM1bxV4Z+IXhrxPc6ff6npWnXLx6hYMpiuo9jKWBX5TztIIAyG6AigD3vRtZ0zXLVrnRtQtNQtlcxGW1lWVAwxkblJGRkVfr5Q/ZZsPiFLodjc6Hq2kweEE1JvtlpMmZ3xs8zafLPUYx8w/Cr+vfFrxV4p8da9pvhTxT4c8J6TpDtCk2qyRK144JXjzA2clSeAMDGeSKAPqCivnvwl8bNZ1P4KeKtems7a48SaAywv5QzFKHYKsuAegyxIBwdmRgHhPgX4k8eeMdR0zVL3xzoOoaW2977SY4Y0uoBhtowIwfvbec4x3NAG78XPC15pd1ceIdDmuI4Lgj7akTlSrZ+9x1UnGfQ/XjOs/EdiNJl1GW9k0jX9T2rJcxR+cGSM8uFBBQueo5B2npmvdp4o54XimRXidSrKwyGB6givFNR8JaJFf3EcdltRZGAHmvwM/71fQYLGQrU1Sr3vHqrars7/LvsebiKEqcuen1/MyPGGu2nkSTeGg4k1p913cg7XLoRlETqoJw/Uk7sdsV6V8LfCU2h2cupaq8kmsXoBl3sSY167Se57n8u3OJ4E8MaPF4hinSyXzYVLxlnZtrdjgnFerVjmGLjGCw9G9ure77L5aF4ai3L2s/keV/tKeGNY8XfDR9M8O2TXt8buKQRK6odozk5Ygd/WvNz8L/FvgHW/Cfin4daa0t09lDDreki4RFZwi+ZyzAEMQehOGGRwePpyivFO8+fPiX4O8a6f8XNN+I3gXSotSle2WO5sJ5VRkbYUIPzAEbSOVJwR6U/4G+EPGVr8QfGPijxdoqaV/bMLbI1nR/nZwxACsSB7mvoCigD5A8CeH/i/4I8Ia34V0rwbGx1WR83r3MZ8rcgQlcPt6DIJ7+tdx/wAKFvB8AD4TF1b/APCQG8/tYtk+V5+3Z5ecdNny59eelfQ9FAHyh4X8KeLoP7N0rVfgz4YnaJ44rjUZEiG+MEBnOHwWxk5Hft2rv/GfgfX779o/wj4k0/TS+gafZpDNciWNRGQZuNpbceHXoO9e4UUAeLftQ+CfEHjfw5olr4YsPts9temaVfOjj2psIzl2APJ7U34xeCPEPiH4ufD3WtH0/wC0aZpVzHJeTedGnlKJ0YnazAngE8A17XRQB8yfFT4WeIbH4qXfjDw94b0zxXpuoqPtGnXoUmN8KGIDEf3QQwyRkgjHXtPhV4XvrzS/E8es+AtJ8Gve2v2O3ksghkkR1YPuwxPB2EcCvZ6KAPmz4M6X8VPh1LF4WfwpZ3eiPqQlm1EXKfJExUSMvzjPyrkAjOeMdqwtd+FXibwh8QNb1HS/BekeNNB1OZp447oIXtyzFtoyQVILEZAIIA6Hp9YUUAeNeE7PxLoXwx1q8034c6LpniOe4VU0i3ZBHcwAqCXO/BO1peCR0HHPPmvhP4feLdV+L+g+IrXwTb+CLGynWW8MNwNkwByyqgPG5crhQBzzX1fRQB//2f/bAEMABgQFBgUEBgYFBgcHBggKEAoKCQkKFA4PDBAXFBgYFxQWFhodJR8aGyMcFhYgLCAjJicpKikZHy0wLSgwJSgpKP/bAEMBBwcHCggKEwoKEygaFhooKCgoKCgoKCgoKCgoKCgoKCgoKCgoKCgoKCgoKCgoKCgoKCgoKCgoKCgoKCgoKCgoKP/AABEIANwFAAMBIgACEQEDEQH/xAAfAAABBQEBAQEBAQAAAAAAAAAAAQIDBAUGBwgJCgv/xAC1EAACAQMDAgQDBQUEBAAAAX0BAgMABBEFEiExQQYTUWEHInEUMoGRoQgjQrHBFVLR8CQzYnKCCQoWFxgZGiUmJygpKjQ1Njc4OTpDREVGR0hJSlNUVVZXWFlaY2RlZmdoaWpzdHV2d3h5eoOEhYaHiImKkpOUlZaXmJmaoqOkpaanqKmqsrO0tba3uLm6wsPExcbHyMnK0tPU1dbX2Nna4eLj5OXm5+jp6vHy8/T19vf4+fr/xAAfAQADAQEBAQEBAQEBAAAAAAAAAQIDBAUGBwgJCgv/xAC1EQACAQIEBAMEBwUEBAABAncAAQIDEQQFITEGEkFRB2FxEyIygQgUQpGhscEJIzNS8BVictEKFiQ04SXxFxgZGiYnKCkqNTY3ODk6Q0RFRkdISUpTVFVWV1hZWmNkZWZnaGlqc3R1dnd4eXqCg4SFhoeIiYqSk5SVlpeYmZqio6Slpqeoqaqys7S1tre4ubrCw8TFxsfIycrS09TV1tfY2dri4+Tl5ufo6ery8/T19vf4+fr/2gAMAwEAAhEDEQA/APqmiiigAooooAKKKKACiiigAozSU3PvSAdkUbhjNRySRxRs8rqiKMszHAArz/xD8VtE0x5IbESalOvQwkCPPpvP8wDW1GhUru1ONzOdWNNe8z0MkDqcVw3jH4i6T4fLQQN9uvhkeVCw2of9pug+nJrxXxR4y1jxHJIt5cstozZW2Q4jAzkZ/vEeprne1fQ4Th+9pV5fJHm18x6QPSH+MOvliVtNMCk8AxyZx/33U1p8ZNZWdTeWFhJBn5ljDoxHsSxH6V5hRXrPJ8I1bkOJYysup9ReFvGej+Io0WyulW7K5a2k+V1OMnAP3seoyK6TI9a+ORz1ruvBvxI1Tw+i21yPt9iDwkrneg9Fbnj2OfwrxsXkE4+9Qd/I7qOYpu0/vPo7IozXGeGPiHoWv3K20EsttdPkJDcrtLfQgkfrmuxBBr5+pSnSdqisz0oTjNXi7jsijNNzS1BYtFFFABRRRQAUUUUAFFFFABRRRQAUUUUAFFFFABRRRQAUUUUAFFFFABRRRQAUUUUAFFFFABRRRQAUUUUAFFFFABRRRQAUUUUAFFFFABRRRQAUUUUAFFFFABRRRQAUUUUAFFFFABRRRQAUUUUAFFFFABRRRQAUUUUAFFFFABRRRQAUUUUAFFFFABRRRQAUUUUAFFFFABRRRQAUUUUAFFFFABRRRQAUUUUAFFFFABRRRQAUUUUAFFFFABRRRQAUUUUAFFFFABRRRQAUUUUAFFFFABRRRQAUUUUAFFFFABRRRQAUUUUAFFFFABRRRQAUUUUAFFFFABRRRQAUUUUAFFFFABRRRQAUUUUAFFFFABRRRQAUUUUAFFFFABRRRQAZoyKSmkjNIB+aMiqt3e29jayXN5MkMEY3M7nAArzXXfjBptuskej2s15MOFkkHlxn3/vfhgV0UMLVxDtTjcyqVoU/idj0+aWOGNnldURRlmY4AHqa828X/FXT9MzBoYj1C56F9xEaH6/xfh+dePeJPEep+Irtp9SuWdc/JEuRGnH8K54/n71jda+jwnD8Vadd3fY8ytmLelPQ6XxL421zxCGS9ufLtj/ywgGxD9R1P4k1zf0NJRX0NGhTox5aasjzZzlN3kwooorUgO2e1FbXhfw3qPia/NtpkSnaMySyEhEHOMnB646Dn8qb4o8PX/hrUFs9TWMSMm9GjbcrDJHB49Kw+s0vaey5ve7Gns5cvNbQx6KKK3IuBHXHeu08OfEfXtDtfsyyRXkAOVF1udlHoGyOPrnFcXRXPXwtLEK1RXLhVnTd4ux9K+D/AB9pPiRhDG5tr7GTby8E/wC63Rv5+1dkCPWvjiuq8KeOdY8OBIbaYTWSn/j2m5UZ67T1XuePWvnMXw+172Hl8j06OZJ6VD6d3ClzXn/hz4oaFq9wttKZbCUrkG4CiMn0DAn9cV3iurKCrAg8g+tfPVaNSi+WpGx6UKkZr3WSZFGaYCD0zTqzNBaKKKACiiigAooooAKKKKACiiigAooooAKKKKACiiigAooooAKKKKACiiigAooooAKKKKACiiigAooooAKKKKACiiigAooooAKKKKACiiigAooooAKKKKACiiigAooooAKKKKACiiigAooooAKKKKACiiigAooooAKKKKACiiigAooooAKKKKACiiigAooooAKKKKACiiigAooooAKKKKACiiigAooooAKKKKACiiigAooooAKKKKACiiigAooooAKKKKACiiigAooooAKKKKACiiigAooooAKKKKACiiigAooooAKKKKACiiigAooooAKKKKACiiigAooooAKKKKACiiigAooooAKKKKACiiigAzRkUhrI8Ta3a+H9In1G93eVFgbU5ZiTgAe9OKlJqMVdsUpKKuzRu7qC0t3nuZUihRSzu5wFHqTXlPjD4twQo1v4bQTS5wbiVPkH+6OpPucD615X4o1678R6xNf3rEbjiOIMSsS9gP6+prINfV4LIacffru77HjV8wlL3aehqa5r+q69Msur30twV6KcBF+ijgH3xWYaSivoadKFNcsFZHnSk5O7CiiiruSFFFFABRRRQM9++Bgg/wCEOk8oAS/aXEp7k4GP0xWR+0E0Qs9GBUecXkKnHO0Bcj8ytH7Pk2bfWoefkeJ/pkMP/Zax/j7OW8SafCekdrvH4u3/AMTXyNKm/wC1rebf4HsTkvqh5hRRRX1x4wUUUUAFFFFAC55/Wuk8P+N9e0KOGCyvWNpGwPkSqHXH93kZAPsRXNUVjVoU60eWorouFSUHeLPoTwh8TtM1uRba/A0+8I/5aOPLc+itxz7EfnXoQYEDBHNfHJ556Guk8GeLL/wzqULwTytYmQedb5yrJnnAPRsd+Pyr5zGZAledB/I9OhmPSofUe4etLms3QtUttZ0u31CyfzLeddy5HI7EH0IOQfpWjXzDTi7Pc9ZNNXQtFFFAwooooAKKKKACiiigAoyKK+ZP2sfiB4p8Ka7pOm+HtYn0+0u7MyyrCqBywcjIfG4cDsRQB9Ngg96q6hqVjpsIl1G8trSInAeeVY1/MmvzN1rxLrWutu1vWNR1FhwDd3Ly4HoNxNZORQB+kB+J/gk6zaaTD4l0651C6lWCGK1k8/c7HAXKZA59SMd67Kvzg+DJz8WfB/8A2FLf/wBDFfo/QAUUUUAFFFFABRRRQAUUUUAFFFFABRRRQAUUUUAFFFFABRRRQAUUUUAFGaK574g6hdaR4B8Talp8vlXtnplzcQSbQ2yRImZTggg4IBwQRQB0OaQsAuSQB1ya/OLXPip451zd/aPinVCrfejhmMCH/gMe0fpXHTzSTytLPI8sjHLO5JJPuTQB+les+O/Ceij/AImviPSLVv7kl2m7/vnOf0rS8O67pniPSYdT0S7S8sJiwjmQEBirFTjIHcEV+X+RX3z+yz/yQ3w9/vXP/pRJQB6zRRRQAUUUUAFFFFABRRRQAUUUUAFFFFABRRRQAUUUUAFFFFABRRRQAUUUUAFFFFABRRRQAUUUUAFFFFABRRRQAUUUUAFFFFABRRRQAUUUUAFFFFABRRRQAUUUUAFFFFABRRRQAUUUUAFFFFABRRRQAUUUUAFFFFABRRRQAUUUUAFFFFABRRRQAUUUUAFFFFABRRRQAUUUUAFFFFABRRRQAUUUUAFFFFABRRRQAUUUUAFFFFABRRRQAUUUUANJry34+3MaeHdPtif3sl15gUHqqowP6stepYr59+OOpC88XpaIfksoAh/3m+Y/ptr0soo+1xMfLU48bPlpM87ooor74+fuLSVs+FfDl/4n1JrLTvLDqhkZ5WIRQPUgHqcDp3rT8V+AtZ8NWSXd6IJrYttaS3YsIz23ZAxnsf8AEVyzxlCFRUpS97saKjNx5ktDk6KXoMmkrqMgoyBU9laz315Da2kTS3EzBURerE16p4a+D9zJIJfEN0kcYAIitm3OT3DMRgfhn6iuPFY+jhV+8epvSw86vwo8ohhknlWKGN5JGOFRFJJ+gFa0fhXxBI4VdE1LJ6E2zgfmRivpfRPD+l6JAsel2UMGAFLKo3N9W6n8a1OMdjXz9XiKV/3cdPM9GGWK3vM4T4ReGJNA0KSW+t3g1C6fMqu2SFXIUccDqT681n/F3wTeeIZbO/0iHzb2NfJdDIFynJHUgZBJ/OvS+1KTXixxtRV/rK3O54eLp+y6HytdeEPEVrIUl0W/YjqYoWkH5rkVjTRSQSNHPG8ci8MrqQR9RX2Fjg1j654b0nXY9uq2MNwVGFcjDL9GHI/Ovao8Qzv+9jp5HDPLFb3WfKNFep+JPhFf2vmzaHcrdQgbhDKdsn0B+6x+u2vMbq3mtLh4LqJ4Zozh0kUqyn3Br6HDY2jil+7Z5tShOl8aIqKKO9dbMgoPHWu68P8Awx1zWLCO8JgtYZBuQTsQzDscAcA/XNcz4j0W78PatLp1+Y2mjAbfHkqwIzkEgZ646dQa5aWNo1ajpQldmkqM4x5mtDLooorquZntfwAvJpdP1ayd90EDxyID2Lhs/wDoI/WvW818/wDwN1IWniySzc4S9hKqP9pfmGfw3V9AY5r4LOKXs8VLTR6n0GBnzUUOooorzDsCiiigAooooAKKKKACvjv9tz/kcvD3/YPb/wBGGvsSvjv9tz/kcvD3/YPb/wBGGgD5vooooA7T4Mf8la8H/wDYUt//AEYK/SCvzf8Agx/yVrwf/wBhS3/9GCv0goAKKKKACiiigAooooAKKKKACiiigAooooAKKKKACiiigAooooAKKKKACuU+LP8AySvxj/2Br3/0Q9dXXKfFn/klfjH/ALA17/6IegD81qKKKACvvz9lj/khnh7/AHrn/wBKJK+A6+/P2WP+SGeHv965/wDSiSgD1iiiigAooooAKKKKACiiigAooooAKKKKACiiigAooooAKKKKACiiigAooooAKKKKACiiigAooooAKKKKACiiigAooooAKKKKACiiigAooooAKKKKACiiigAooooAKKKKACiiigAooooAKKKKACiiigAooooAKMiivnD45fHvWvAvjO68PaLpOnSPAkb/AGm7LvkOgbAVSuMZ9T9KAPo/IoJAGSeK+Atd+P8A8RNXMgGufYIXGPKsoEj2/RsF/wDx6vPtY8Razrb7tZ1fUL9h3url5f8A0I0AfpRbeJdCutUGm22taZNqJzi1juo2lOOvyA5478VrV8Hfsnf8lp0sd/s9x/6KavvGgAooooAKKKKACiiigAooooAKKKKACiiigAooooAKKKKACiiigAooooAKKKKACiiigAooooAKKKKACiiigBpOK+S/Eeotquu6hfli3nzM65GPlz8v6Yr6j8QX66Tod9fsARbwtIAe5A4H4nAr5Kr6XhyneU5+h5OZy+GIUUUV9WeQdx8JvEsHh/X3S+wtteBYmk4Hltngk9hyc/n2r36OXT9a06QRSW17Zygo2xlkRh3Bxwa+SvfP4Vs+GPEmpeG737Rpk20NgSRNykgHTcPz56814OZZQ8RP21J2kehhcZ7JezlqjqfiP8P7rRr+S70azkl0lwDsi3O0OF53dTjgnPTHBrmfDXhjUvEOqmxs4GUpgzSupCxA9C31wcDv+FfQngXxPF4r0X7asXkSrIYpYt27aw5HOB1BB/TtXQLCiOzqihmxkgcnHrXlLOcRh4OhOPvLS51/UadVqpF6GF4U8IaX4agUWFsv2ooqy3DZLSEDk8k4yecDiuiyBzmq+oXsFhZTXd1II4IUMjuQThQMmvCvG/xRvNXjNroyS2FruIaUOPMlHbp9zv0P41wYbCV8fO617s6KlWnho2PWdb8aaBo8MxutSgeaJtjQQuHkDehUHIP1rzzWfjLIW26Npqqv9+6OSf8AgKn+teQsxZixJJPOSaSvpKGQ0aavU95nmVMwnJ2ifWfhu7l1Dw/pl5OF824to5n2jA3MoJx+JrK+Ieu3fh3w5JqNjHE8qSIpWUErgnHYir3gn/kT9D/68YP/AEWtY/xeiEvw/wBU4GV8tx7YkX+ma+Wowi8QoyWl/wBT1pyfsuZbnKaL8ZIJJI49Y05oV6NNA+4D/gJGQPxNeiaN4q0TWdg07UraaR84i37ZOOvyHDfpXylTkdo5BJGSrqcqQeQexzX0+IyGjNXpPlZ5VPMZx0lqfYZIx1rl/F/grS/E6NJdxGO/Eflx3KMcpzkcZwRknr6npXn3gr4rzJJBZeJFR4idpvRkFRg/eUDnnAyMcetezwypLGskTq6MAyspyCD0Oa+brYevgKib0fRnqQqU8THufKd54a1q01J7GXTbw3SAsUSItuUHG4YzkZIGRxXffDr4ZteqL/xHBLDbciO0cNG7npl+hUeg4J69Ovt2wZyVG7171zHj3xdD4R06Gd7ZriedykcQbYOOSS3OB+HcV6E83xOLSoU1ZvscqwVKi3Um9Ddv7+z0yATahdQWsOQoeaQIpJ7ZPfj9K+cfibrcOveLbi5tJBJaRIIYnC43AdT/AN9Fse2KyfEGv6l4gvDc6ncNK2Ttj6Ig9FXoKy88V6+WZT9Vftaj1OPFYz23uR2Eooor3TgNLw3qLaRrun36sV8iZXYgdVz8w/LIr6yjcOgZSCpGQQetfHdfUHw2v21LwPpNxICGEPlHJzkoSmf/AB3NfLcRUfgrL0PWy2e8DqKKKK+YPXCiiigAooooAKKKKACvjv8Abc/5HLw9/wBg9v8A0Ya+xK+O/wBtz/kcvD3/AGD2/wDRhoA+b6KKKAO0+DH/ACVrwf8A9hS3/wDRgr9IK/N/4Mf8la8H/wDYUt//AEYK/SCgAooooAKKQsAcZ5paACiiigAooJAHNFABRRkUUAFFFGRQAUUUUAFFFGaACiiigAooyKKACuU+LP8AySvxj/2Br3/0Q9dXXKfFn/klfjH/ALA17/6IegD81qKKKACvvz9lj/khnh7/AHrn/wBKJK+A6++/2WP+SG+Hv965/wDSiSgD1miiigAooyKMigAoozRQAUUUUAFFFFABRRRQAUUZoyKACijIozQAUUZpMj1oAWiiigAooooAKKKKACikBBpcigAooozzigAooozQAUUZHrRQAUUUZFABRRmjIoAKKMiigAoozRmgAooyKKACiiigAooooAKKKKACijIozQAUUZozQAUUZoyKACiiigAooooAK+Df2sf+S2ar/wBcLf8A9FLX3lXwb+1j/wAls1X/AK4W/wD6KWgDx2iiigD2P9k3/ktml/8AXvcf+imr7xr4O/ZO4+Nel5/597j/ANFNX3jQAUUUUAFFJkUtABRRRQAUUUZFABRQSB1NGaACijNGRQAUUZFFABRRRQAUUUUAFFFGaACigHNGRmgAoozRQAUUUmRQAtFGRRQAUUUUAec/HHU/sXhBbSNwsl7MseO+wfMT+YUfjXz7Xpnx31H7T4ltrEY22cOTz/E5BP6Ba8zr7jJKPssKn1ep8/jp89V+QUUUV7BxBRRW14P0R/EPiOz04MUSRi0jjnagGWP5DH1IrOtUjSg5S2RcIuTSR7F8E9AGn+Hv7Ul8wXF9k7SSAEBwOOnJBOfQ16TkZqOCFIIEhiUJGihVVeAAOAK4P4m+N5vCt5pkVnHHM8haSdGOCYxwBntkk8/7Pevz2XtMdXbjuz6JcuHpK+yOv13SLPXdOex1GIyW7kEgMVII6HI9DXgfjn4eX/h2fzbJJr7TmDN5iRlmiA7Pjgex7+1e5eEvEVn4k0mO8s3QPgebCGy0Tnqp6fnjmtkgEcjNa4XG1sBUcV80TWoQxMU1958edqK9v8c/CuO9kudR8Py+VdPmQ2jAbHYnna2fl7n0z6CvH10jUG1QaaLOf7eW2eRt+fP09PfpjmvsMPmNDE0+ZPVbnjVMNUpSs0fT3g1TH4S0VHGGWyhBH/AFqp8SIxN4H1hWxxbs/P8As8/0ra0y2+x6ba22B+5iSPjpwAKg8RWcmo6BqNnDgS3FtJEuemWUgfzr4aM1Gsp+Z7zj+7sfJVKOenNaem6FqOpa1/ZVvbv9uDlHRvl2beu49gMV7l4G+Gtj4fkF3fsl9fggoxTCQ8D7oJOTnPzfoO/22LzWlhYXvdvZHhUcJUqvayOE8A/DO71K6jvPEFvJbWCk/uJMpLL7Y6qPrzx75r2/S9OttK0+GysIvKtoV2om4nA69Tk1axgDHFcx438Y2PhSzDzfv7xxmK1VsM3uTzhff8q+Rr4mvmFRX17JHs06cMNH9TqQa8m+OegXF3ZW2r2rSyJagpNFkkIp53gdunP4elb/AMMPGj+KrS5ivVjjv7dssEPDoScED26Hr2Peu0uoI7m3lgmQPFIpRlPQgjBBqKcqmBxCclqhzUcRSsup8f0Vb1Wyl03U7uyuOJbeVo2OOpB6/Q9aqV+h05qcVNbHzsk4uzCiiiqICvoH4HagLnwg1oWG+zmZNvfax3g/mWH4V8/V6Z8CNS+zeJbqxbAS7hyOf4kyR+havIzqj7TCu3TU7cDPkqo98ooor4Y+gCiiigAooooAKKKKACvjv9tz/kcvD3/YPb/0Ya+xK+O/23P+Ry8Pf9g9v/RhoA+b6KKKAO0+DH/JWvB//YUt/wD0YK/SCvzf+DH/ACVrwf8A9hS3/wDQxX6QUAFGRRkV5B+0P8Vk+Hegpa6U0EviK/BWCNm5t48EeeRg5wQAAcZOeoUigDJ+Nvx7tfAWsxaLotnBqmqJ812JJCqW4I+VeOrnOfYY9ePNf+Gstc/6FrTf+/0lfONzcy3VxLcXMryzzOZJJHJZnYnJJPcknNQUAfSv/DWWuf8AQtab/wB/pKX/AIax1z/oWtN/7/SV81YNex/s+fCMfEfUru81O4kttE0+SMShYzuumOSYlbgLgDLHkjcvHOQAfTXwP8d+J/iFp82r6volnpei/ctpEdy9w4OCVB42jBBPc8DocerVWsLK3sLKCzsoI7e0t41iiijXCooGAAOwxVmgD5n+MH7QOv8Agf4i6v4d0/StLuLaz8rZLP5m9t8KSHOGA6uRXG/8NXeKf+gFon5S/wDxdcV+1H/yXbxP/wBuv/pLFXlVAH0V/wANXeKf+gFon5S//F13/wAEfjvrnxB8dxaHqWl6bbW7wSS+Zb79+VAIHLEV8bV7X+yH/wAlktv+vKf/ANBFAH3TRRRQAV86fG747658PvHcuhabpem3NukEcvmXAfdlgSR8rAV9F18Lftef8lkuf+vKD/0E0Ab/APw1d4p/6AWiflL/APF0f8NXeKf+gFon5S//ABdfOtFAH2r8AfjXrPxJ8Y3mkarp2nWsENg92Htg+4sJI1xyxGMOfyr3+vir9ir/AJKpqn/YGl/9HwV9q0AFcp8Wf+SV+Mf+wNe/+iHrq65T4s/8kr8Y/wDYGvf/AEQ9AH5rUUUUAFfTXwx+PXh/wD8INI0ZbS71HXYPPLQqPLiQtNIy7pD7MD8oPWvmWigD3DxD+0v481KTOlyafo8YJwLe2WViPcy7h+QFYn/DQfxP/wChm/8AJC1/+N15VRQB6sv7QfxNDAnxKDzyDYW3P/kOvSfA/wC1RdRzQW/jXSIpoMBXvLDKyDj7xjY4bJ64K+w7V8wUUAfpZ4M8eeGfGVsJPDmsWl5IV3tbh9syDplozhgM8ZIxXUZHrX5caVqV3pOoQ32mXU1peQNuimhco6n2Ir7X+AfxttvHYh0LWYxaeIoYFIYuCt9tX53UAAK3BYpzxyDgHAB7hRRmigAooooAMiquo6jZaZZSXmpXdvZ2kYy89xII0Qe7MQBWb4v8SaX4S0C61jXLkW9lbrknqznsqjux7CvhL4wfF7WviVcxx3SLYaPA/mQafE24K+CN7tgb2wSM4AAPA6kgH0p8SP2j/DHhmZ7Lw/H/AMJDeheXt5Qtsh548znce/ygg+orwPVf2jviNe3RltdUtNOTPEVtZRMo/GRXP6149mm0Aem3Hx1+JE7Ev4puASQf3cEKDj/dQelSQfHv4lQZ2eJ5Tn+/aW7/AM4zXl1FAHuvhb9prxtptxH/AG59h1u23fvFlhWCTbnkK0YAB+qmvor4ffHTwb4yVYTfLo+o4GbXUXWLcSQMI+drcngZ3H0r4Ap+RQB+qOaK+PP2ffjvc6OdJ8I+JovtOnSTLb29+0uHtg7YAfPDICRzkbRnqAAPsPIoAKKKKAEyPWuX1z4heD9CadNV8TaRbzQ/6yA3SNKvt5YJbP4Ve8a5Hg3XivDCwnPX/pm1fmRkd6APsvxV+1L4XsPNj8Pabf6vOpISSQC3hb3ycv74KD8K8m8RftNeONSbGlf2do8YPBhgErn6mTcOPYCvC6KAPVf+Gg/if/0M3/kha/8Axuov+F9fErzRJ/wlEu4dvssG38tmP0ry+igD1X/hoP4n/wDQzf8Akha//G6v6Z+0d8RbOTdcanaXy/3LiyjA+n7sKa8booA+0Pg5+0JL448W2HhzU9BS1vLwSFLm3nLR5SNpDlCMjhT3PJr6Er4q/Y20L+0PiTeaq4zHpdm2046SSHYP/HfMr7VoAyvEniPR/DOn/bvEGo22n2hcRiS4faGYgkKPU4UnA9DXjvib9pzwVpkjRaRDqOsSL0khiEUR/FyG/wDHarftpZHwt0s/9RmL/wBET18W5oA+itf/AGq/Ed2pTRNE03Tgf45na4cD2PyjP4fhXGz/ALQ3xLlmd08QpCpPEaWNuQvsMxk/rXktFAHqU/x8+Jcy7X8TuADnKWduh/MRiqk/xt+Is+3f4qvRjpsWNP5LXnFFAHqMHx7+JUAOzxPKc/37SB//AEKM10Hhv9pjx1ps8Z1aSx1iAMN6TW6xOV7hWjCgH3Kn6GvDqKAPu/4eftB+D/FamHU5l8PXyjJj1CVVicc/dm4Xj0baeeM17DbzxXMEc9vIksMih0kRgyspGQQR1BFflkCK96+APxv1Lwzeaf4a15vtuhzzRW0M00wU2AZgM5IOYwD904xjggcEA+16KQMCMg5HWloAKKKKACjIpMjPWvmn4+/H8aRPqnhXwesn9pRMYJ9UDhRbuG+dI1wcsMFd3GD0yRmgD2Hx18TvCXglHXXtYgS7UZ+xwHzZz3HyDkfVsD3r5r8Z/tR+IdQ3w+FdPtdGhPSeX/SJvqMgIPoVb6189zzyXE8k1xI8s0jFnkkYszE9SSeSahoA9Sm+PnxLmTa3idwM5+Szt1P5iPNQRfHP4jxNlfFNyTu3fNDEwz+KHj26V5pRQB61b/tDfEuKZHfxAkyg5Mb2FuFb2O1AfyNeyfD39qLT7+5S08bacumZH/H9ab5It3HBjwWUdeQW+nevkGloA/UTRNZ0zXbBL7Rb+1v7N+BNbSiRc9xkdD7dRV/Ir81/h74913wDrQ1Dw/dlA2BNbPloZ1HZ179+eCM8GvvH4VfELSviP4aXVNLBguImEd1Zu254JOuM91PZsc46AggAHb0UUUAFfBv7WP8AyWzVf+uFv/6KWvvKvg39rH/ktmq/9cLf/wBFLQB47RRRQB1Pw48ZXfgPxXb69ptvb3FzCjoI592whlKnoQe9ew/8NXeKv+gFon5S/wDxdfOtFAH0V/w1d4q/6AWiflL/APF0f8NXeKv+gFon5S//ABdfOtFAH158H/2gde8cfEXSPDt/pWl29teedvlgEm9dkLyDGWI6qBX0xXwB+y5/yXbwx/29f+kstff9ABRRSZGetAC5FcT46+J3hLwSjrr2sQJdqM/Y4D5s57j5ByPq2B71458eP2gk019S8M+Ctz36fuptWSQbYGBG5Yxg7j1XdkYPTJ5r5KnnkuJ5JriR5ZpGLPJIxZmJ6kk8k0AfQPjP9qLxHqJaLwrY2+iw5/10uLiY/wDfQ2D6bT9a4qb4+fEuZNreJ3Azn5LO3U/mI815bRQB6XF8c/iPE2V8U3JO7d80MTDP4oePbpWhbftD/EqG4jkk1+O4RTkxS2NuFb2O1AfyIrySigD6++Hv7UWn39ylp4205dMyP+P603yRbuODHgso68gt9O9fQ+ia1pmu2KXui6ha39o3AmtpRIue4yO/tX5d12Hw08f6x8PvEUGo6RPIbfev2qz37Y7mMHlTkEA4yA2MjPFAH6R5FFcT8KfiFpXxH8NLqmlgwXEREd1ZuwZ7d+uM8ZU9mwM+gIIHbUAFFFFABkVzvjDxj4f8HWJuvEeq2tku0skcjjzZcED5EHzN1HQHFc/8ZfiXYfDPw5FfXMH2y/unMdpaB9nmkYLMWwcKoI7Hkgd818EeLvEmo+LPEN7rOsztLd3UjOQWJWNSSQiZJwozgD0oA+h/Hf7VFw0xt/A+lRxwjIN3qS7mb0KxqQF+pJ+grzR/2g/iYzsw8RhASSFWwtsD25jzXlFFAHpEnxv+IzshPim7BU5GI4xn64Xn8aswfHv4lwZ2eJ5Tn+/aW7/zjNeXUUAexaX+0d8R7Obfc6raX6f887iyiVf/ACGFP616Z4Y/avhaWOPxP4caOM8NcafNux/2zfH/AKHXyjRQB+l/gTxnovjrQzq3hy5ee0WUwOZI2Ro5AFJUg98MvIyOetdLXjP7JmiPpHwdtJ5Sd2p3U17t/ujiMfmIgfxr2agAzSEigiqWr3qadpd5eyDKQRPKR67QTj9KaTbshN2Vz5u+J91He+PtXlhIKCRY8g90RVP6qa5apLiZp7iSeQ5kkYux9STkmo6/SMNS9lRjDsj5arPmm2FFFFbkBXrn7PtrG93rNy0YMkaRIrHsGLkj/wAdWvI693+AlqI/Dd/dY+ea5K59QqjH6k14+ez5cI13O3AK9VHpruERmYgKoySe1fKvjHWH13xHfXzuxSSQiIN/CgOFH5f1r6S8ZsyeEdaZSQRZTEEdjsavlQHj3rzOHaUXKVTtodeZTekTQ0LWb7Q7+O706d4nVlLKrELIAc7WAIyvtX0b4J8YWHimx3QMIr2MZmtmOWX3HqPf86+YatabfXOmXsV3YzSQ3ER3K69f/wBVermWWQxcXJaSRx4XFSpOz27H12eSKb5S7920ZxjOOazfDN/JqXh7Tb2cBZbi3SVgBgAlQTj2rUDcZNfDNOLa7Hvppq6FyKMj1rzPxb8VbbRdam0+0sBfeQdkknn+WA46qPlOcdPrn0q34G+JNr4m1E2NxaCwuWG6IGbzBLjqM4HOP6+ldTy/EKn7Zx93cxWKpOXJfU7/AGjHQU6jPNc34916bw74ZuNRt4RNIpCAMTtUk4BPsP8AJFc1ODnJQW7NZSUYuXYofEDxpaeG9OmS2nt5tW4EdtuyVJwdzAcgYOeetfPGqale6teNdaldS3M5/ikbO0ZJwOwGSeBgVXuJ5Lm4kmnkaSaRt7u5yST3J+tR191l2WwwcU3rJ9TwMTiZVnpt2O0+EWqLpfje2EhCx3atbMT2zgj/AMeUfnX0jmvj6CV4J45ojiSNg6n0IOR/KvrrT7hbqxt7hRhZo1kHfgjNeHxDQUKsai6o78tneLj2PDvjvpS2viG1v402pdxbXIHV04z+RX8q8yr3f4+xqfDVhKfvLdhR9Cj/AOArwivZySq6mFSfTQ4cdFRquwUUUV65xhW94FuXtfGOiyQttP2uOMn/AGWYKf0JrBqSCVreeOaI4kjYOp9CDmscTT9pSlHui6b5ZJn2HkYoyKpaNepqWlWd7GMJcQpKB6bgDj9auYr82aadmfUp3Vx1FFFIYUUUUAFFFFABXx3+25/yOXh7/sHt/wCjDX2JXx3+25/yOXh7/sHt/wCjDQB830UUUAdp8GP+SteD/wDsKW//AKMFfo/uHrX5wfBj/krPg/8A7Clv/wCjBX3l8TfHGnfD7wnca3qatKAwht7dOGnmIJVAccfdJJPQA9elAFH4q/EnRfh1oU11fzxTakyZtdPWQCWdjkA46hMg5boMdzgV+fGt6zqGvapNqOtXs99fTHLzTuWY+g56ADgDoBgDFa3xF8X3fjjxjqPiC/jWGS6YbIVYssSKoVVB9gBk8ZOTjmuYoAKXBowa7H4V+A9Q+IviyLRdNkSBRGZ7m5cZEMQIBbbkbjlgAvcnqBkgA0vgz8ONS+IHiqzhS0m/sOKdTf3eCsaxggsgfpvYHAHXnPQE1+gGi6Pp+h6ZDp+jWVvY2UIwkNvGEUepwO5OST3PNZXw88I2fgfwfp3h/TpGlhtVO6ZwA0rsxZmOPUk4HYYHauloAKKKKAPgD9qP/ku3if8A7df/AEliryqvVf2o/wDku3if/t1/9JYq8qoAK9r/AGQ/+SyW3/XlP/6CK8Ur2v8AZD/5LJbf9eU//oIoA+6aKKKACvhb9rz/AJLJc/8AXlB/6Ca+6a+Fv2vP+SyXP/XlB/6CaAPFKKKKAPf/ANir/kqmqf8AYGl/9HwV9q18VfsVf8lU1T/sDS/+j4K+1aACuU+LP/JK/GP/AGBr3/0Q9dXXKfFn/klfjH/sDXv/AKIegD81qKKKAClwaSvpv4C/ATRPFnhXSvFfiK/ubm2uzIRp0S+Uo2SvHh5ASzA7M/LtIz1oA+ZcUYPpX6UaN8OvB+iwrHpnhnSYsfxtbI7/AIuwLHv1NTar4F8K6tbvDqHhvSJ0ZdvzWke4D2YDIP0IoA/NHBpK+qvjB+zXa2um3WseAHmBgQySaXKTIXUdfKfrkD+E5z69BXysVIPI5oAStLQdZv8AQNZtdU0e6ltL61ffFLGcFT0P1BBII6EEg9azaKAP0j+FXjW18e+CrHW7XYsrDyrqFT/qZ1A3p+oI/wBllrsa+Qf2NPGTWevah4RuSPs9+pvLbn7syABxj/aQZ/7Z+9fX1ABUdxPFbW8s9zKkUESl5JJGCqigZJJPAAHepK8S/ay8Ux6H8LptKDuL7W5BbR7G2kRqyvI3uMAIR/t/hQB84/tE/EY+PfGsq6bPN/YNiPs9tH5jeXMylsz7OgLbiM4ztAz6V5NTsim0AFLg0YNfYHwU/Z3s9KFrrnjhYr+8khDrpUkWY7ZyQQXOfnYDjbjaMnrwaAPljR/CniLWofN0bQdW1CLn57SzklHBweVB71W1bQ9W0aQR6vpl9YSE4C3UDRH8mAr9Pbe3itoY4beNIoY1CrGihVUDoABwBVTXNE07X9Nk0/WrG2vrOT70VxGHXPqM9DzwRyKAPy9xSV7v+0R8Fv8AhBGOveHmeXw9PNsaAglrIkDapYk7lJzgnkcA5PJ8IoAdkdq+y/2RPH174h0LUvD2s3v2i70vZJavPLumkhbIK88kIQBnnAdRxgV8ZV13wr8XSeB/Hela7GGeK3k2Txg48yJhtcfkcj3AoA/SaimxyJLGrxsHRhlWU5BFOoAxfGv/ACJuv/8AXhcf+i2r8xa/Trxr/wAibr//AF4XH/otq/MWgAooooAXBor6l/Zh+FnhHxd4Jl1vxFpZv71L6SBd87qgVUQj5VIB+8eua+grD4ceC9Pj2WnhTQ0x3NjGzf8AfRBNAH5sUYNfpFqnww8D6nGyXnhPRTu6tFaJE/8A30gB/WuA8QfszeBNSJbThqWkP2Ftc+YmfUiQMfyIoAy/2MtE+w/D3UtXki2y6jfFUYjG+KJQBz/vNJ+tfQlc58P/AAvF4M8G6X4ftpjcR2MZTzSu0yEsWY4ycZLHua6OgDwD9tX/AJJXpf8A2GYv/RE9fFVfav7av/JK9L/7DMX/AKInr4qoAKXBpK1fDCJL4k0mKVFeOS7iV1YZVgXAII7igDLwaMGv03s/Cfh6xVVstA0i3VSMCKzjTp06Cr76VYOpV7G1ZWGCDEpBH5UAflzg+lFfenxL+AnhTxjbB9PtofD+pKTtuLG3UI2cZ3xjAb6gg89e1fE/jTw3e+EfFGo6FqYUXVlL5bMvRhgFWHsVIb6GgDCp4I96ZRQB9t/sj+Nr3xP4LvdJ1SaW4u9FkRFnkYszQybigJPUqUcfTaO1e818Pfsh+IW0n4pDTHP7jWLZ4CCcASIPMU/krD/gVfcNABRRVe9u4LGzuLu7kWK3gjaWRz0VVGST9ADQB4p+098UZfBegpoeiTtFr+pRFvNRsNbQZILg9mYgqD2wT1Ar4kuJ5LmeSe4leWaRi7yOxZnY8kknqSec10/xQ8Z3PjzxtqGvXStGkxCQQFt3kxKMKn9T7kmuSoAKXFJXpHwU+GV58S/EjWgke00m1G+8u1UMUBztRQerMR+ABPbBAPP7Kzur64W3srea5nb7scKF2P0A5rZ1HwR4r0y1a51HwzrlpbL96WewljQfUlcV+h/gXwVoXgfSRp3hyxW2hJ3SSE7pJWwPmZjyTx9PQCujA+tAH5WgE0lfd/xi+A+jePJDqOmPFo2uBSDNHCDFcdT+8UY5yfvjnHXdgY+FJoZIJpIZkaOWNiro4wVIOCCPWgCOu++Cvj6b4e+ObTVMs2ny/wCj30QGd0JIyQP7ykBh9MdzXA0UAfqbZXdvfWcF3ZTx3FrOgkimiYMjoRkMCOCCOc1PXi37JeuJq3wgs7MbvP0q4mtXLNnOWMqkegxJt/4DXtNABXwb+1j/AMls1X/rhb/+ilr7yr4N/ax/5LZqv/XC3/8ARS0AeO0UUUAKBmkr0j4AeF9K8Y/E2x0bXoGnsJYpmdFcoSVQkcgg9RX1b/wzn8N/+gPc/wDgbL/8VQB8FUV96/8ADOfw3/6A9z/4Gy//ABVH/DOfw3/6A9z/AOBsv/xVAHy/+y7x8dfDP/bz/wCkstff9eb+Evgt4J8J+ILXW9D02eHUbbf5TtdSOBuRkPBJB4Y16RQAV4Z+098UZfBegpoeiTtFr+pRFvNRsNbQZILg9mYgqD2wT1Ar2u9u4LGzuLu7kWK3gjaWRz0VVGST9ADX5wfFDxnc+PPG2oa9dK0aTEJBAW3eTEowqf1PuSaAOVDDvTKKKAFAJ6VPZWdzfXC29lbzXM78LHChdj9AOa9K+BXwqm+Jut3SXFxNY6RZIrz3UcQcuxYYiXJGGK7jnBxgZHIr7g8F+DtF8F6PFpvh6witoEGGfrJKc53O/Vjk9+nQYHFAH53aj4I8V6Zatc6j4Z1y0tl+9LPYSxoPqSuK5/Br9UgPrXiHxt+BWkeMbe91rQ0+weI1jeXEKjy7xgp2qykgKxIA3j1yQaAPhuipJoZIJpIZkaOWNiro4wVIOCCPWo6APQvgr8RLr4d+M7e9WWU6TcMsWoW6kkSR/wB7HdkySD9R0Jr9C7K7t76zgu7KeO4tZ0EkU0TBkdCMhgRwQRzmvyyr7r/ZL1xNW+EFnZjd5+lXE1q5Zs5yxlUj0GJNv/AaAPaaKKKAPgv9p7xk/ir4m3lpDP5ml6Pmzt1VsrvGPNcDpksMZ9FWvH6sXdxJd3U1xOd0srtI5z1JOT+tV6AClINJX09+yH8O9J1mG88XavGl3LZ3RtLW2kXKRvsVjIR0Y4kAAI4wT1xgA+ftK8IeJdYgE2k+HtYvoSMh7ayklU/iqmprvwL4tso9954W123T+9Lp8yD8yvuK/S/6UuKAPywmhlhkaOaN45F4KuMEfhTrW2mu7qG2to2knmdY441HLMTgAe5Jr9NPEPhfQ/EkPla/pFhqKgYBuYFdl/3SRkfhXmNt+zt4Q03xdpWu6I99ZNYXSXQtWl86JtjbgPm+ccgc7j9KAPVfDOkRaD4c0zSbcL5VlbR264GAdqgZ/HGa06KKAErgfjVfNZeCJI0JDXUyQ5H4sf0Uj8a76vIf2gNRVbPStNUZLyNO3sFG0fnub8q7MtpupiYLzOfFS5aTPFqKKK/RD5oKKO+KdGjyMFjVnY9lGTScktWxpXG19AfAp1Pg2YA5K3bg/wDfK149pHg/X9UlRbTTLkKxx5kqGNB7ljive/h74Tk8J6XPaSXguhLJ5vEewKdoBHU56DnivnM+xVKdJUoyuz0svpTVTmasix8RHZfBGslBljbMMYzx3r560bwjr2sqX07TJ5EAzvbEan6FiAfwr6mdQ6FWAIPYjOadjHTFeJgszng6coQjq+5318Iq0k5M8F0X4Qa1dMj6nNb2MZ+8obzJP04/WvQtC+GPh/S/mlga/k4+a5IYD/gIwPzzXdCkzU180xNdWlKy8h08JSh0I7eCO3gjhgRI4kUIqIMKqgYAAHQUlzEZbeWNXaMupUMpwVyMZHvUgYeopx5rgT1OnpofIOoxXEOoXUd8zG6SVlmLncS4JDZPc5zRpsVxLqNpHZMy3ckqrCVbad5I24PY5xivd/Ffwr0zWbya9srmSwu5naSQ481GZjknBIIJPoce1T+DvhnpmgzrdXUhv72N90crKY1T6Lk5Puc/hX1zzuh9Xt9rtY8ZYGr7Ty7ndWsRhtooyzOyKFLNyTgYyabeWkF7bvb3cMc0D8NHIoZW+oPBqxTdwz1r5Hmd7nsaWszzvW/hLod6rNp7TafMemxi6fipOfyIrgNY+E3iKzmxYLDfxH+JJFjI+oYj9Ca+hAaU16NDNsTQ2lf1OaeCpT6WPk3WfD2r6Kf+Jpp9xbrnG9lyhPoGHH619M+Dt6+EtFEud4soQ3OedgrUZFkQiQBgeCGGc05FCIFQBVAAAAwAPSjHZlLGxipqzQYfCqhJtO9zzT49nPhKzx/z+r/6LkrwavpT4n+GrnxP4cFvYuonhlE6q3/LTCsNuex+brXzzqWk6hpkhTULK4tmH/PSMqD9D3r3cgrU1RcG9bnn5hTm6nNbQo0UevtRX0KdzzmrbhRRRTEfQ/wU1IXvgxLcuWltJGiOeuCdy/zx+FegCvF/2e51E+twl/mZYXVfYbwT+or2fNfnuZ01SxU4rv8A8E+kwkuakmOooorhOkKKKKACiiigAr47/bc/5HLw9/2D2/8ARhr7Er47/bc/5HLw9/2D2/8ARhoA+b6KKKAOn+Geq2eifEHw7qmpSmGys76GeaQKW2orAk4AJPHpV34m/ETW/iDrk15q1zIlmHJtrFJCYbdegCjoWx1bGT9MAcXRQAUuDSVs+FNH/wCEg8SadpJvbax+2TLEbm6bbHHnuT+gHc4HFAGr8NvAms+P/EMWmaNbu8YZDdXIA2W0RYAu2SM4BJ2g5ODgGvv3wB4F0LwJo0Wn6DZRxEIFmuSo864Iyd0j9TyTx0GcAAVX+FngSx+HvhC20WxdbiRS0lxdmIRtcSEn5mAz0GFAyeABmuxoAKKKKACiiigD4A/aj/5Lt4n/AO3X/wBJYq8qr1X9qP8A5Lt4n/7df/SWKvKqACva/wBkP/kslt/15T/+givFK9r/AGQ/+SyW3/XlP/6CKAPumiiigAr4W/a8/wCSyXP/AF5Qf+gmvumvhb9rz/kslz/15Qf+gmgDxSiiigD3/wDYq/5Kpqn/AGBpf/R8FfatfFX7FX/JVNU/7A0v/o+CvtWgArlPiz/ySvxj/wBga9/9EPXV1ynxZ/5JX4x/7A17/wCiHoA/NaiiigAr7/8A2XP+SE+GP+3n/wBKpa+AK+//ANlz/khPhj/t5/8ASqWgD1WiiigBvNfAH7R/hJvCXxV1RI022WpH+0LbGMbZGO4YHTDhhj0x61+gNfLH7b2nL5XhTU1HzBri2c+o+Rl9/wC/+dAHylRRRQB13wo1g6D8SvDOpCQosN/EJGGf9WzbXH/fLNX6TZr8ro3Mbq6khlIII7Gv1JsLgXdjbXIGBNEsgHpkA/1oAsV8MftZ+JDrXxVmsI5i9rpECWypk7RIRvcgeuSAT/sD0r7nr8yfHWpHWPGuv6ixP+l3884HoGkYgfrQBg0UUUAelfs+eE4/GPxT0myuoEn0+2LXl3HIAVaOPGFIP3gXKKR3Br9CAK/NTwH431vwJqk+o+G7iK3u5oTbu7wrJlCwYj5gccqPyruf+GjPiR/0GLb/AMAov/iaAPvSivgv/hoz4kf9Bi2/8Aov/iaP+GjPiR/0GLb/AMAov/iaAPtP4gaM3iHwLr+kRRxyT3ljNDCsgBXzChCHnphtpz2xX5mkEHBGDXr/APw0Z8SP+gxbf+AMP/xNeRzytNNJLIcu7Fjx3PJoAjooooA/RP4BatLrfwe8L3s7u8n2YwMzHJYxO0WST/uV6DXlX7LpA+BXhkf9fP8A6VS16rQBi+Nf+RN1/wD68Lj/ANFtX5i1+nXjX/kTdf8A+vC4/wDRbV+YtABRRRQB9vfsa/8AJJbj/sKTf+i4692rwn9jX/kktx/2FJv/AEXHXu1ABRRRQAUUUUAeAftq/wDJK9L/AOwzF/6Inr4qr7V/bV/5JXpf/YZi/wDRE9fFVABWt4T/AORq0b/r9h/9DFZNa3hP/katG/6/Yf8A0MUAfp9RRRQAV8V/tlaAunfEWx1eGMLHqtmN5/vSxHYf/HPKr7Ur5h/bftQ2jeE7s/einuIh9GVCf/QBQB8k0UUUAdb8Kb46b8TPCt1u2qmp2+8j+6ZFDenYmv0nr8wvCf8AyNOjf9fsP/oYr9PaACvLP2mdRfTvgn4ieGcwTTLDbqVOCweZA6/QpvB9s16nXzr+2rqRg8B6Jpy5ButR8089VjjYY/NwfwoA+NaKKKACv0V+B3hOLwf8NdEsfs6Q3ssC3N4Qo3NM43HcR1K5Cj2UV+dVewD9ov4j4wNXtgO3+gxf/E0AfelFfBf/AA0Z8SP+gxbf+AUX/wATR/w0Z8SP+gxbf+AUX/xNAH3pXxH+174Wj0L4jwataQxxW2swecwRQoM6HEhwO5BRie5Y1j/8NGfEj/oMW3/gFF/8TXIfED4j+I/H4sP+EnvI7n7D5nkbIEj279u77oGc7F60AcdRRRQB9HfsV60bbxnrWjSSMI72zE6L/CXjYD89rn8vpX2NXwN+yzdm1+N2gqDhZ0uIm9/3Dkfqor75oAK+Df2sf+S2ar/1wt//AEUtfeVfBv7WP/JbNV/64W//AKKWgDx2iiigD2P9k3/ktml/9e9x/wCimr7xr4O/ZN/5LZpf/Xvcf+imr7xoAKKKKACiiigDyz9pnUX074J+InhnME0yw26lTgsHmQOv0KbwfbNfn9X2V+2rqRg8B6Jpy5ButR8089VjjYY/Nwfwr41oAKKKKAP0i+EnhOHwX8PtG0lLeOK6SBZLsqAC87AFySPvYPyg+igdK7Kvgv8A4aM+JH/QYtv/AABh/wDiaP8Ahoz4kf8AQYtv/AKL/wCJoA+9KSvgz/hoz4kf9Bi2/wDAKL/4mj/hoz4kf9Bi2/8AAKL/AOJoA2P2vfC0ehfEeDVrSGOK21mDzmCKFBnQ4kOB3IKMT3LGvB67H4gfEfxH4/Fh/wAJPeR3P2HzPI2QJHt37d33QM52L1rjqACvo79ivWjbeM9a0aSRhHe2YnRf4S8bAfntc/l9K+ca9b/ZZuza/G7QVBws6XETe/7hyP1UUAffNFFFAH5heKtKl0PxNqulTxmOWyupLcqe21iPy461kV9CftheD49F8Z2niS1YmHW1YTIFIEcsSouc9PmUjj1Vq+fMGgBK9a+APxZl+HGuSQagJZ/Dt6wN1FGNzRuBgSIMjnoG9R9BXktFAH6VeCPH3hjxvbyy+GdWgvTEdrxENHIpwDyjgNjn72MdeeDXVZHrX5Z2l3NZ3EdxaTywXEZ3JLExVlPqCORXtfgL9pPxb4eWK311YvENlGu0C4by5+mB+9AOfcsrE+vegD7hzRXk3ws+OHhjx0sVrLIuj60zbRY3MoIk/wCucmAG+nDcdMYr1nIoAKKKKAG5r5z+NFy9x49uonYlbeOONR6AqGP6tX0Ya8H+OmiPa+IINVjDGG8UI5x0dRjH4rj8jXr5FKMcXaXVHDmCfstDzGij6UV9zszwTvfg7o+n6v4klXU4451ggMiQyDKscgZI6HGf5V7/AG1na2aBbe3ghRRgBECgD8K+TNPvbnTr2K7spmhuYjuSReqn/D2rW1nxhr+swmHUNSmlhPWNAqKfqFAz+NfPZhlVfFV+eM/dPQw+LhRhZrU+gtW8ceG9JuTBe6pEso6pGrSFfrtBx+NLo3jnw7rF/HZadqIluZM7IzFIu7AyeWUDoDXy6Kt6TfzaXqdtfWpAmt5BIuehIPQ+x6fiaylw9BQdpPmt8rlrMpc22h9d8V5t44+JMnhzVpdNGkNJKo3LJLNtVgejAAHI69xXc6DqcOsaNaahbH93PGHwDnae4+oOR+FeffHPQHv9It9WtkzJZZWYAcmM45/Aj8mNeFgIUvrCpV1pt8z0MRKfs+am9TidQ+K/iS53iB7W1U9PKiywH1Ynn8K5268X+IbmTe+tagD/ALE7IPyUisKivtqeAw0F7sEeFKvVnuz0D4X63q1z4602GfUb24hkaTfG87Mrfu2OSCfxr6GHSvHfgT4fUJc69cKdxJt7fI4x/E31zx+Br2LNfH5xKnLEtU1otD2sEpKknLqGR60ZHrXmvxL+IM3hu9gsNJjt5rrbvnMwJCA9AACOT19hjjmtT4Z+MJPFemXJvFgiv7eTDJDkAqeVbBz7jqenvXLLB1Y0fbte6aqvBz9n1O2PSvlvxHrWvR+IL37bf3sV1HM6lVnYeXyeFwcAemOK+pDXgfx20r7J4ngv0j2xXkIDMO8inB/8d2frXoZHKH1jkmtznzBS9mpRexyEHizxDDIsia1qJYf37hnH5E4rodP+Knia0wJpre7Uf894Rn81xXB0DnpX1c8Bhpr3oI8iNerH4ZH0F8P/AIhzeKdWbT5NNWF0iaYyrNkYBAxtI/2vWvRDiuD+FXhAeHdJ+1XYI1K7UNKD/wAs16hR/M+/0ruJ5o4IZJZWCxoCzE9ABXw2N9l7dxoL3T3qHP7NOo9Tm/EPjrQNAvGtNQvG+1IAWhjiZiAenOMfrVey+IPhW/kWFdTRHk/hmjeMfQlgB+tfO+t6nPrGq3eoXePPuHLkL0HoB7AYH4VR/SvoafD9N005SfN+p50swlzOyVj6uk0HRL0B5NM0+cP8wZoEbPv0rwf4t6JZ6L4qK6eIooLiJZfJjAAiOSCAB0Bxn8TWFofifWdCDDSr+aBD1jJDp9drAjPvjPvVDUr651O9lvL+d57qXlpG6njH8gK1wGV18NXc3O8TPEYqnVhZRsyrRRRkV75552/wdvpLPx1aRrnZcq8LgHttLD9VFfR9eAfA7R/t3ih9Qc4j0+PI9S7gqPwwG/Svf6+Hz2cXirR6bnvZen7K7HUUUV453hRRRQAUUUUAFfHf7bn/ACOXh7/sHt/6MNfYlfHf7bn/ACOXh7/sHt/6MNAHzfRRRQAuD6UYrovh7o9t4i8caDo18ZVtb+9it5WiIDhWYAkEg88+lb3xg+Geq/DfX/sl5m40yclrO9VcLKo6g+jjuPxHFAHn1PBA96aQR2pKAPqT9mz43NBJaeEfGNzLKsjrDp19JukcMzACGQ8nGT8rHhRwcADH1fuHrX5XhsH5TivsL9l/4v3/AIouP+ET8SvFLe21rvs7xmxJOqEAo+T8zgHOR1CknJBJAPo+ikBBpaACiiigD4B/aj/5Lt4m/wC3X/0lirymvX/2rIRH8b9adVIMsVu5J7/uEGf/AB3H4V5BQAV7X+yJx8ZLbP8Az5z/APoIrxSvXf2V70Wvxt0VCQq3EdxCT/2xdh+qigD73ooooAK+Fv2vP+SyXP8A15Qf+gmvumvhb9rz/kslz/15Qf8AoJoA8UooooA9/wD2Kv8Akqmqf9gaX/0fBX2rXxV+xV/yVTVP+wNL/wCj4K+1aACuU+LP/JK/GP8A2Br3/wBEPXV1ynxZ/wCSV+Mf+wNe/wDoh6APzWooooAK+/8A9lz/AJIT4Y/7ef8A0qlr4Ar7/wD2XP8AkhPhj/t5/wDSqWgD1WiiigAr5p/bcI/4RfwyMjJvJSB/wCvpavj39tTX1uvFeh6FGykWFq9xJjP35WAAP0WMH/gX5AHzbRRRQAuK/TzwkGHhTRQ/3xZQ5+vlivzL0+1e9v7a1iyZJ5ViUD1YgD+dfqNawJbW0UEQIjiQIufQDAoAlr8tL8ub64MwCy+Y28DoGzziv1Lr8x/G1h/ZfjPXrAAj7LqE8OD1+WRh/SgDDooooAXBpK9F+D3wxufiZfalaWWqW1hNZxpLiZGberEg4x6cfnXqH/DJ2uf9DLpv/fh6APmqivpX/hk7XP8AoZdN/wC/D0f8Mna5/wBDLpv/AH4egD5qor6V/wCGTtc/6GXTf+/D0f8ADJ2uf9DLpv8A34egD5qor6V/4ZO1z/oZdN/78PR/wydrn/Qy6b/34egD2T9ldHX4H6CXOVZ7lkGc4HnyD+YNet1x3wk8JT+B/h7pXhy7uYrqaz83dNEpCtvld+AfZgPwrsaAMXxr/wAibr//AF4XH/otq/MWv068a/8AIm6//wBeFx/6LavzFoAKKKKAPt79jX/kktx/2FJv/Rcde7V4T+xr/wAkluP+wpN/6Ljr3agAooooAKKKKAPAP21f+SV6X/2GYv8A0RPXxVX2r+2r/wAkr0v/ALDMX/oieviqgArW8J/8jVo3/X7D/wChismtbwn/AMjVo3/X7D/6GKAP0+ooooAK+a/23v8AkVfDP/X7J/6BX0pXzX+29/yKvhn/AK/ZP/QKAPj+iiigDW8J/wDI1aN/1+w/+hiv0+r8wfCf/I1aN/1+w/8AoYr9PqACvmD9uED+y/CP/Xa5/wDQY6+n6+bf227LzPCHhy+5/cX7we3zxk/+06APj2iiigAoor6K/wCGUvFP/Qd0T85f/iKAPnWivor/AIZR8Vf9B3RPzl/+Io/4ZR8Vf9B3RPzl/wDiKAPnWivor/hlHxV/0HdE/OX/AOIo/wCGUfFX/Qd0T85f/iKAPnWivor/AIZR8Vf9B3RPzl/+Io/4ZR8Vf9B3RPzl/wDiKAOD/ZsiaX43+FwgyRLKx57CCQn9Aa/Qavm34M/ADXfAvxBsNf1LVNLuba2SVfLg3l8vGygjcoH8VfSVABXwb+1j/wAls1X/AK4W/wD6KWvvKvg39rDn426t7QW//opaAPHaKKKAPY/2Tf8Aktml/wDXvcf+imr7xr4O/ZO4+NmlZ7wXH/opq+8aACiiigAooooA+YP24MHSvCR/6bXP/oMdfJVfZf7a1iZPAOiXw5MGpCI/R4nOfzQfnXxpQAUUUUAFFfRR/ZS8UjrruifnL/8AEUf8Mo+Kv+g7on5y/wDxFAHzrRX0V/wyj4q/6DuifnL/APEUf8Mo+Kv+g7on5y//ABFAHzrRX0V/wyj4q/6DuifnL/8AEUf8Mo+Kv+g7on5y/wDxFAHzrXp37NcTS/G/wuIxkiWVjz2EMhP6A13n/DKPir/oO6J+cv8A8RXbfB39n7XPA/xC0zxDqep6Zc29msv7u3Mm8l42QfeUD+KgD6UooooAx/FPhrSvFOjTaXr1lDeWcoPyyKCUbBAdSfusMnDDmvhf4r/BnxL4EudRvRZPdeGoZcQ36SK+I2PyeYowynkAnaFz0PNfoBUUkSyxvHKivG4KsrDIYHsR6UAfljg0YNfdfjT9nPwT4iuHurGK50S6YNxYsohZj0JjYEDHopUV84+P/gH408Iie4t7QazpsZOLiwBd9ueC0X3h743AeuOaAPIaKcyMjEMpBBwQeoNJg0ALnJ617f8ABj48a54a8RQW/i7VrzU/D9w2Lh7pmuJbckcOjE7sA4yvPGcDNeHUUAfqLoOs6fr+kWuqaPdR3dhdIJIpkzhh9DyD2IPIIINX6+SP2NPHJttSvPBd2EEF2ZL60k53eaFUOnpgou4cfwt68fW9ADSDjisbxVoFt4j0ibT71Plb5kkHWNx0Ye/+JHetuinGTg+aO5MoqSaZ8ka/pF1oeq3Gn3yBZoT1ByGU8hh7EYNZ1fTHj7wXa+KrMMx8q/gU+TMO/wDst6rn8vzB+aZEaOVo5FKSISrKwwQR1Br7rKswji6dn8S3Pn8VhnQl5MbRRRXqnLcKKKKPID1z4K+L4rXHh/UZNiu+bNm6bmPKe2TyPqfavZXRZonSRVZGBDKRkEGvkO2nktrmKeB2SaJxIjr1Vgcg/nX0P8MvG3/CU2k0F4kcWo2+CypwsiHoygnPHQ/UeuK+QzrLpUpvEU9up7GBxKkvZy3PL/iR4GvdC1C71C1gD6RJJ5gaMACHcfulR0APAPTGO9cPbwyXE8UECF5ZGCIo6kk4A/Ovrq8t4ry0mtbhBJBKhjdSfvAjBFcJonwv0/R/FNvqdvPNJbQhnWCUgkSZ+U5A5ABPvkDrVYPPOWi4Vd1t5irYBuacNnudb4X006T4d02yKoskECI4QAAvgbj+JyfxqXXdWtdF0ye/vpNkEI5OMknsB7mtEV4f8ddfFzqNvo1vITHbfvZwDxvI+UH3A5/4FXk4PDvGYhR+87K1RUKR5trWoS6tq15fTk77mVpCCc7QTkDnsBx9BVzwlr1x4d163voGfy1bEqA/6xD94Y/XnvisaivvJYeEqXsmtLWPn1UalzdT6+sbuG+sYLq2ffDOiyRtgjcrDIOD7GsD4ieH/wDhIvDF1bJGrXaDzLcnGd45wD2yMj8a4v4KeLGuYf7CvWHmQR7rZj1ZAeV+o7e30r1ojjHavga1OeCxHL1TPoac44ilfufHffHevUvhV4B/tCRNY1u3zZDmGCVeJv8AaYH+H27/AE69Ro/wm0u01qW8u5XuLZZS0FqR8gX0fP3sE+3QZznFekKoRQAAFHQelevmGdqrD2VDS+7OPDYDllz1OgueOK8f+NPi4rnw/p0zrJ1vGXK8FQQnuCDk/gPUDq/iZ4zHhfTY47IwyanOwCRvztTnLkD8h7+uDXztd3M15dy3F1I0s0rF3djyxJyajJcudWSr1Fp08x47EqK9nHchooor7Gx4oUUUUDuFX9D0u61nVYLCxj3zzNtGegHck+g5P4VSjRpJFSNS7sQFVRkknoAK+jvhj4Oj8NaSs9yg/tW4XM77s7BnIQeg6Z65P4V5eZ4+OEp6fE9kdOFw7ry8ja8JeG7Pw1piWtlGN5A82YgB5WHcn8Tgdq3MHFOor4Wc5VG5Sd2z6GMVFJIKKKKkoKKKKACiiigAr47/AG3P+Ry8Pf8AYPb/ANGGvsSvjv8Abc/5HLw9/wBg9v8A0YaAPm+iiigDtPgx/wAla8H/APYUt/8A0YK/QDxv4S0nxp4euNG162We1lGUbA3wvggSIezDJ59yDkEg/n/8GP8AkrXg/wD7Clv/AOjBX6QUAfm38TvA+p/D7xVcaNqi74x89tchSEuIj0ce/YjsQRzwa5Cv0f8Ain8O9I+I/h4abrAkiliYyW13DjzIH9RkcqeMr39iAR+dur6ZeaPql3pupW7wXtpI0U0bdVYHBFAFGrNje3Gn3kV3YXE1rdQsHjmhco6MOhVhyD71WooA/QD4AfEm38feDbaO8vYpPEllFtv4QpQn5iqyc8HcACSvAJxxwK9UyK/ND4f+Lb7wR4s0/XNLc+Zbv+8i3YWaM/ejPsR+RweoFfov4V1+w8T+HrHWdImEtneRiRD3Hqp9CDkEeooA2KKKKAPi39s7TXtfiTp1+E/c3unIM+ro7hh+RSvn2vtP9snw0dT+H9jrsSsZtHucOB08qXCsT/wNY/1r4twaAErd8E643hrxfo2tR7v9Bu4p2AP3lVgWX8RkfjWFRQB+pem39tqenWt/YzLNaXUSTwyrnDowDKw+oINWa+Mvg5+0ZdeGbPTdB8V2i3eiWsQgiurdT9oiUD5QQTtdRwuBtIA79K9/0347fDm/jVk8SwwseqXEMsZB98rj8qAPTs18Lftef8lkuf8Aryg/ka+l7349/Da1j3HxIkpPRYbWZyfyTHfvXyN8fvGGleN/iLPrGhNO1k1vFCDNHsJKg549KAPNqKKKAPf/ANir/kqmqf8AYGl/9HwV9q18VfsVf8lU1T/sDS/+j4K+1aACuU+LP/JK/GP/AGBr3/0Q9dXXKfFn/klfjH/sDXv/AKIegD81qKKKACvv/wDZc/5IT4Y/7ef/AEqlr4Ar7K/Z0+KfgvRPhXoehavr9tZapbGcSxTo6Bd88jL85XaeGB4PegD6KoyK5NPiT4HdAw8Y+HACMjOpwg/kWrn/ABP8bvAGgWssj+IbW/mVSUt9Ob7Q0h/ugr8oJ9WIFAHoOr6lZ6Ppd1qOp3CW9laxtLNK/RFAyT/9avzc+JHiD/hKfHuvayJ5poLu9leBpfvCHcRGuO2E2jHbFdp8ZPjZrHxHiGnLAmmaHHIXW2jcs83TaZW6HGMgAAZJznAI8loAKKKXBoA9U/Zs8MyeJPi1o/7oPa6cxv7gnBCiPGzjvlyg/M9q+/6+dv2MvDaWXgjUtfngdLrUrowxSPjDwRgYK+mXaQH12j0r6JoAK+A/2n9FbRvjNrZ8sJDfeXexY/iDqAx/77V6+/K+dP2xfBcOo+FLfxbb4W80llgnBIAeCR8D8Q7DHszUAfG1FLg0lAHcfBzxvJ4B8e6drG6Q2WfJvYk/5aQtw3HcjhgPVRX6K2N7bX9nBd2U8dxazoJIpYm3K6kZBBHBFfllXp3wv+NHij4ewGysJIL7SSdws7wMyxnOSYyCChPPqOScZoA/QbIorxHwZ+0h4J1q1iGszS6Fftw8VwjSR5/2ZFGMe7Ba9Jt/H3g+5TfB4r0GRfVdQhOP/HqAOlorlrv4i+C7QMbnxboCEDJU6hEW/LdmuS1v4/8Aw60qMka6b6QdIrO3eQnj+8QF/wDHqAPVs0ZFfJ3iz9q64MzJ4S8PwpECNs+puWLD3jjIx3/jNe//AAj8UT+NPh1ouv3axLdXcbecIlIQOrsjYBJI5X1oA7KiiigDF8a/8ibr/wD14XH/AKLavzFr9OvGv/Im6/8A9eFx/wCi2r8xaACiiigD7e/Y1/5JLcf9hSb/ANFx17tXhP7Gv/JJbj/sKTf+i4692oAKKKKACiiigDwD9tX/AJJXpf8A2GYv/RE9fFVfav7av/JK9L/7DMX/AKInr4qoAK1vCf8AyNWjf9fsP/oYrJrW8J/8jVo3/X7D/wChigD9PqKKKACvmv8Abe/5FXwz/wBfsn/oFfSlfNf7b3/Iq+Gf+v2T/wBAoA+P6KKKANbwn/yNWjf9fsP/AKGK/T6vzB8J/wDI1aN/1+w/+hiv0+oAK8j/AGqbKO7+CWuSNHvktZLeePjOD5yKT/3y7V65WZ4j0a18Q6Df6PqKF7O9geCXacEKwxkehHUH1xQB+X+DSVu+NfDt34T8VanoWoKftFjO0ZbHDr1Vx7MpB/GsKgAr77/Z++Jtn478JWlndXYbxJYQKt7E+d0gB2iUE8NnAJx0J5xkZ+BK2/CHiTUfCXiKz1vRJxDfWrEozLuBBBVlIPUEEj8aAP05yKK+YPh/+1LaT5g8d6d9llZztutNjZogvH3kZiw5zyCfoK910X4ieDtajDab4m0iYn+A3SI4+qMQw/KgDqqKyv8AhJND/wCg1pn/AIFJ/jWHqnxQ8DaWpN54s0UEdUju0lcf8BQk/pQB2ORRketeEeK/2mvBelGSPRor/Wp16NFH5MRPuz4b8lNZ/wAC/jjrXxD8fXGjavY6ZZ2RtJJ7cW6P5m9XTCszOQRtL9FHQUAfQ9FFFABXwv8AteWj23xjuJWXAubKCZT6gAp/NDX3RXyP+29p0UeueFNUXPn3FvPbNn+7GyMv6zNQB8x0UUUAd98CtXbRfi/4Vu1OA98lsxzgbZv3RJ9gHz+FfosSBX5XpI0ciujFXUgqynBBFfW3wn/aXsbm2Nj8RNtlcRKoiv7eF3SUAYPmIuSrZAOVGDk8LjkA+mqK4WP4u/D+S3WZfFukBGGQGnCt+KnkfiKw9b+P3w70qM4137dIOkdnA8hP/AsBf1oA9V3Clr5+8GftF23i/wCJWk+HtN0R7TTbyWSM3d1KDKcRsy4ReFJYKPvN1NfQNAHk/wC1NbpcfA/xAxj3vA1vKnHKnz4wT/3yWr4Ewa/UDxHo1r4h0G/0fUUL2d7A8Eu04IVhjI9COoPrivzb8a+Hbvwn4q1PQtQU/aLGdoy2OHXqrj2ZSD+NAGFRRRQB94/s3fEy08aeEbTSr26J8SaZbhLmOTO6WNSFWYMeuQVB5zuzkYIz7FuHrX5keEPE+reEdch1bQL17S8jGNy8h1yCVZejKcDg+3pX0z4E/aotJlWDxvpTW0xP/H3pylo8dsxsSw+oZs+goA+n6K5PRfiP4M1tQdN8T6TMxGQhuVR/++GIb9K1ZPE2gxozSa3piqoySbqMAD160Aa9JkVyOp/E3wPpqE3fizRQR1SO7SR/++VJP6V5x4s/aZ8FaVHMmjLe61cqp2eVF5MRbHALvggZ4yFNAHu2RRXzz8C/jlrHxD8fXOjatp+nWVmbSSe2FuH8wurJ8rMzEH5S3RR0r6GoAKKKMigAyKM18169+0m3hv4ja9o2p6NHeaPZ3RtoprRysylDtfcGJV/mBwPlxjvmvUPCHxk8C+KliWx16C3upB/x63v7iRT1x83BP+6SKAPRKbtJqO3ure4z9nnilx12MGx+VTUAcZ42+GfhPxnBOut6Latcyj/j9hQR3APY+YBk49DkeoNfE/xo+F2o/DXXRHMftGjXbubG6yMuoxlXA6MARnjB6juB+g9xcQ20LzXEqRRIMs7sFVR6knpXxz+1l8SdJ8U3mn+HdAlivbfT5XmuLtPmVpCNoRG7gDOSOCSMdKAPnWiiigDqfhnq7aD8QvDmppIyC3v4WcqcZQuA4/FSw/Gv0rr8utDjeXWrCKMZd7iNVHqSwr9RaACiiigBMV5h8X/BR1e1/tfS4c6hAP3yLwZowOw7sP1GfavUKaRnrW2HxE8PUVSD1RnVpRqx5ZHxz3xRXp/xh8GHS7t9b02PFjM375FHETnuPQE/qfcV5ieK/QMHio4qkqkfmfOVqUqU3FiUUUV1GIVJbzS280c0EjxzRkMro2CpHIIPY1HRSlFSVmhpuOqPdfBHxQstQjtLDWRJBfnEZnIBjkPABJH3Se/GPevUAwIyDxXx/awyXNzDbwpvmlcIiDqxJwB+eK+uNPiFtYW8QVI1jjVNqDCjAxge1fE5xgqeFqL2fXoe5gq86sXzdCxyfavJdd+DsdxO8+natMruxdluV8wsT33DB9exrpU+JWgLrdzptzNJbvDIYvOkX92xHXkdOQeSK6uy1Gy1CLzLG7t7mP8AvRSBx+YrhpTxGDfPG6udE40q6tLU8Ob4OeINx23emEZ4zI4/9kpV+Duvlhuu9MC98SOf/ZK973L6ijcv94V1f2zjP5jH6jQPMvB/wsGh6ta6lPqsslzA24LDGEXoQQSckggkduvavTap6hqljpsBm1C7gto/70rhR+tchL8UPDi6tb2UU8kqyPta4C4ijPTknB9OQMc1zTeJxkueScn6G0XSoLlTsd2CMV5r42+J9lpBmstIAvL9RjzAQYYzzkE5ySPQcc9e1ejS5eB9oUkjgMOPxr5FvoJbW9uLe4jEU0UjI6f3SDgj+ddmT4Kniqj9p06GGNrSpRXJ1I7iaW5uJJ7iV5ZpGLO7nJYk8k5qOiivtoxUVZbHhtt6sKKKKokKKDx1r0z4S+Bzq9xHrWob0soJA0CjH751bPOf4QRj39eDXLjMVDC0nUka0aUqs1FHUfB/wVPpKNq+rQoLqaNfs6HO+FTnJIPAJGPoM9MmvUsetAGKca/P8TiJ4mo6k3qz6SlSjSioxCiiisTQKKKKACiiigAooooAK+O/23P+Ry8Pf9g9v/Rhr7Er48/bb58ZeHv+we3/AKMNAHzdRRRQB2nwY/5K14P/AOwpb/8AowV+kFfnB8GB/wAXa8H/APYUt/8A0MV+j9ABXzz+1v8ADs694bj8VaVbb9T0tdt0E6yWvJJ9yh5/3S3oK+hqZIgkRkdVZWGCCMgj0NAH5YBSegpterftEfDz/hAfHcqafbvHoOofv7FidwXpvjzjjax4HPyleSc15TQAV7p+y38S7PwT4gu9J1oyLpusPEizBvlt5gSAzAnAUhsM3+yvavC6dkde9AH6o5FLXkP7MvjkeMfhzb293cGXV9JxaXO77zpz5T/ioxnuyNXr1AGT4p0ddf8ADOr6PJIYk1CzmtDIBkoJEK7gPbOa/N/xn4a1Lwf4lvdD1mJY721faxXlHB5DqcDKkEEcA+vNfptXk/x0+D9p8S7KC6guRZa7ZxskExUeXKCQQknG7AIOCDxuY4OcUAfAmDSVqeItE1Dw7rV3pOsWsltfWshjkjcdwcZB7g9QRwRyKzMGgBKdkUmDRigBSR2ptLijFACUUuD6UYoA9+/Yq/5Kpqn/AGBpf/R8FfatfFf7FYP/AAtPVP8AsDS/+j4K+1KACuU+LP8AySvxj/2Br3/0Q9dXXKfFj/klnjH/ALA15/6IegD81qKXFGKAEp2aSigAzRnikpaAEopcUYNABg16J8Evh3dfEXxjBZFJU0i2Ilv7hRgJH2UH+82MD8TyAaf8HfhXq/xL1V1tmFnpFsV+1XzjIXP8KD+Jzg8dB3I4B+6PAng3R/A3h2DR/D9uYoE+Z5HIMkz45eRscsfyHQADigDbsbOGws7e0soUgtbeNYookGFRFGFUD0AAFWaKKACqOsaXaazpV3pupQLPZXUTQzRt0ZWGCPar1FAH50fGL4eXfw38WnTLmZbm0njNxaToD80RdlAbIADjHIGRyPWuDxX6U/EPwJonj/QzpniG3Z0Vt8M8RCywN/eRiDj3BBB7g18N/Fv4U698Nr4f2gn2vSZX2W+oRKQkhwSFYfwPgH5T6HBOKAPOaKXFGDQAufU0ZGKTBpKAHZpM0YpKACvs/wDYx1cXnw81TSmOZNPvy444EciAj/x5Xr4xwa+p/wBhuVRL4ziLfOws2VfUDz8n9RQB9WUUUUAYvjX/AJE3X/8ArwuP/RbV+Ytfp142I/4Q3X/+vC4/9FtX5i0AFFFFAH29+xr/AMkluP8AsKTf+i4692rwj9jX/kktx/2FJv8A0XHXu9ABRRRQAUUUUAeAftq/8kr0v/sMxf8AoieviqvtX9tX/klml/8AYZi/9ET18VUAFa3hP/katG/6/Yf/AEMVk1r+EufFWjf9fkP/AKMFAH6e0UUUAFfNf7b3/Iq+Gf8Ar9k/9Ar6Ur5r/be/5FXw1/1+yf8AoFAHx/RRRQBreE/+Rq0b/r9h/wDQxX6fV+YXhLnxVo3/AF+Q/wDowV+ntABRRRQB88ftTfCjUPFscHifw+PP1DT7UxXFpk7poVJYGMY5Ybm47jGORg/GZBHXiv1Sxx0r5l+OX7PUF5FqfiTwT9pbU5JWuZtMJUpLuI3eV0Kn7zbSTnoMcCgD5Goqa6tp7S5kt7uGWC4iO145FKsh9CDyDUWDQAlOyB0pMGkoAWnZHem4pKAHZ4r0D4B6uNE+MHhe6ckJJdi1b6TAxc+wL5/CvPsVZsLqWwvre7tzie3kWVD6MpyP1FAH6lUVT0u9j1HTLS9gIMVzCkyd+GAI/nVygAry39oXwBL4/wDAEttp6odYsX+1Wm443kAho89tynjtkLnA5HqVNwcDigD8r3RkdkdSrqcFSMEGm19T/tL/AAUlM+o+NvCy+YjBrnUrLhdmFG6WPAGRwWYHJySRnoPlnafSgBKdnikxRigBcj1pKKMUAa/hHV/7C8VaNq3zf6BeQ3JC9SEcMR+lfp2jq6KykFWGQR3Fflbg1+kXwh1g698L/DOouQZJbGNZCO7oNjfqpoA7Gvnj9qb4Uah4tjg8T+Hx5+oafamK4tMndNCpLAxjHLDc3HcYxyMH6HpMcdKAPytxSV9a/Gn9nO0eyvtd8ApOt7u859IXaY3BxkQ9CuOW2knPRccA/KF1bT2lzJb3cMsFxEdrxyKVZD6EHkGgCGilwaKAFGKA1NpcUAGc9TRSUtAHoPwD1caJ8YPC905ISS7Fq30mBi59gXz+FfolX5a2F1LYX1td25xPbyLLGfRlOR+or9PtLvY9R0y0vYCDFcwpMnfhgCP50AXKzvEGpxaJoOparcqWgsbaS5kA6lUUsQPwBrRrhvjhqMel/CHxdPN9x9Olthn+9KPLH6uKAPzsvLl7y7muZ3LTTO0jt6sxyf1JqHPvSYNFADifemUuKSgB2aM8dabS4oASlxRg1u+C/DOp+MPElnomiwiW9umIBY7URQMszHsAASe/Yc0AeifsweCrjxT8S7O/eMf2boki3lw7dN4J8pB7lhnHorV95Vw/wi+Hdl8N/Cx0myuZbuWaX7Rc3EgALyFVU7QBwo2jAJOMnmu4oAKKKKACiiigCtd20V5az21ygeGZDG6n+JSMEflXzf8AEHwVc+Fr0OGE2mzuRDJ1Yd9re+Pzxn1FfS9ZXiPQbHxBprWWpQiSIncpBwUYA4YH1GT+td+X4+eDqX+y9zlxWHVaPmj5OorV8U6NN4f1670ydxI0BG1wMBlIyp/Ij8c1lV99SqRqwU4PRnz0ouMuV9Aoooq3oI9U+Dvg17m9h17UEX7JGSbdG6vIDgP9Bzj3Htz1Xxs199L8PRafBuEuolkLDoI1xvH1O4D6E+1dX4Okh/4RLRniYCL7HERz0+QV4d8WfEia/wCIxHZyb7CyUxRMOjMfvMD6cAfRfevjcMqmYY7mqLSP6bHsVXHD4e0XqziP0HakPXgfjRRX2PKux49x8cjxHMTuhx1U4NLJNJLjzXd8dNzZxUdFT7OHYfMw64yfxpc46UlFUopbIV2e+fBTxH/aehNpVwSbiwAVCT96I/d/LBH021hfHDwtcPcjxBaRo0AjWO4VR8wIJw59RjA9sDt0474W6ymi+M7SWeYQ2k4aCZm6YI+X6fMF5r6L1F7NtNuDftEbMxsZDIRt245z7V8di1LLscqlNaP9dz2qVsRh+WW6PkaiiivsYu6ueKwpSMHHekrS8OaRNrmuWenwKxaeQBmAzsTPzMfoM1NSpGlFzlshxi5Oy6mx8PPCkvirWRC7NHYwAPPIM9M/dB/vHn6AE89D9KWNnDYWkNrZxLFbwqERF4CgVS8PaFY6Bp6WemwiKEHc3OS7d2JPU1q18DmGPljKl/srY+gwuH9hHXdjuaKKK4DrCiiigAooooAKKKKACiiigArxH49/BnUPiZrumX9jqtrYpaWxgZZo2YsSxbIx9a9uooA+QP8Ahk7XP+hl03/vw9H/AAydrn/Qy6b/AN+Hr6/ooA+XfAv7NOseG/Gei61Pr+nzRWF3HctGkLhmCsDgZ+lfUVFFABRRRQBzHxG8JWvjfwdqehXwRftMZ8mVl3eTKOUkA9jjPTIyOhr5y/4ZKvv+hutv/AFv/i6+tKKAPkv/AIZKvv8Aobrb/wAAW/8Ai6P+GSr7/obrb/wBb/4uvrSigD57+FPwD1n4feNLPXbXxTbzxoGiuLf7Gy+dE3Vc7+OQrA+qivoSiigAooooAyfEvh7S/E+kS6Zr9jDe2MuN0cmeo5BBHIPuDmvA/F37K2jXjeb4V1m501uSYLtPtEZPYKwKso+u78K+kqKAPi6T9lbxrvITVvDrJnALTzgkfTyj/Omf8MqeN/8AoKeGv/Aif/4zX2pRQB8V/wDDKnjf/oKeGv8AwIn/APjNS2/7KnjJpgLjWPDyR92SWZiPw8ofzr7PooA+YNI/ZNtEcNrPiq4nXvHaWixH/vpmb+Veg+Hv2d/h7o4UzaZcapKvIkv7hm/8dXah/Fa9eooAz9J0fT9Htvs+k2FpYW//ADytYViX8lAFaFFFABUNzBHcwSW9xFHNBKpSSORQyupGCpB6gjqKmooA8f8AFn7PHgLX2aS3sJ9HuGOTJp0mxT7bGDIB9AK8p8Qfsn6kkjt4e8SWc6H7qX8TREexZN2frgfSvraigD4s/wCGVfG46ap4bJ/6+J//AIzWVffs0/EO2z5Nvpt3jp5N4Bn/AL7C190UUAfn3N8BPiXEQG8MSkn+7d27fykq3Y/s9fEq6kVZNCjtkP8Ay0mvYMD8A5P6V98Y4o/CgD4ttf2V/Gz+WZ9T8Pwq33h58zMo+gjwfzr2b4c/s6eFfCtxb3+rGTXdSiAP+kqBbq2Ooi79/vE9jgEV7bRQAxU24AAAHAA7Cn0UUAFFFFABRRRQAUwpuUq4DKRggjgin0UAeNfEP9nnwj4tunvbIS6FfspBaxRBC5/vNHjBP0K5714nefsreM4pJPsmq6BPED8m6aVHYe48sgH8a+0aKAPge+/Z5+JNrKyxaHFdIoz5kN7Bg/QM4P6VRh+A/wASpn2p4XmBxn57qBB+ZcV+guKMHFAHwjp/7OHxGupEE+m2dkG6tPexkLz32Fj78VvRfsq+NDIBLq3h1UzyUmmYj8DEM/nX2jRQB8z+Fv2U9Mt5IpfE2v3N7ggtb2cQhQ+xcliQfYA8/jXu3g7wX4f8G2Ult4Z0q30+OTHmMgLPJjpudiWbGTjJOMn1roqKACiiigChrdgdT0a/sN/lfaoJIPMxu27lK5xkZxnpmvmT/hkb/qdv/KT/APbq+qqKAPlX/hkb/qdv/KT/APbqP+GRv+p2/wDKT/8Abq+qqKAOC+Dnw/Pw28JSaINS/tIvdPc+d9n8nG5VG3bub+71z36V3tFFABRRRQAUUUUAcV8VPh9YfEfw9b6Rqt1dWsEN0t2Htiu4sqOuPmBGMOfyryr/AIZR8Lf9B3W/zi/+Ir6KooA+df8AhlHwt/0Hdb/OL/4irGm/sueGbDUbW8j1vWXe3lWVVYxYJUg4Pye1fQVFABRRRQAVwXxZ+GenfEvTrCz1a8u7VLOVpUa225JK4wdwNd7RQB86/wDDKPhb/oO63+cX/wARR/wyj4W/6Dut/nF/8RX0VRQB8+6b+y54ZsNRtbyPW9Zd7eVZVVjFglSDg/J7V9BUUUAFFFFABTcfWnUUAcz4z8C+HPGtqIfEukW16VG1JmG2WMf7MgwwHtnFfOviz9lG6Ehfwl4gheMniHU0KlR/10jBz/3wK+sKKAPhvVv2ZfiDZLm2TSdROM4trvafp+8VK52b4DfEuF9r+F5icZ+S6gYfmHNfoNSY4oA+BLb9n34mTlCfDoiVhndJfW4x9QJM/pXQWP7Lvjy5j3zXGhWjf3Jrpyf/AByNh+tfbeOaWgD5B0b9lDXJdv8AbPiPTbUZ5+yQvOcf8C2V7D4H/Z+8EeFpluZbOTWbxRw+pFZEU+qxgBfzBI9a9dooAYiCNFSNQqqAAoGAAO1PoooAKKKKAG4Neb/E74NeF/iC63WoQyWOqKCPttltSR+BgSZBDgYHXnHQivSqKAPjnVv2U/E8d440fXNGuLTPytdGWF8dsqqOP1rJf9l3x4rkC50JwDwwunwfzjr7cooA+JYP2W/HcjYe80CIY6vcyYP/AHzGavWX7Kfi55gL3WtBhhPVoXmkYf8AATGoP519mUUAeHeCv2a/B2hNDPrBuddvEALfaSEgLY6iMdvZmavZ9PsbbTrSO1sLaG1tYhiOGFAiIPQKOBVqigAooooAbj61zfjPwL4c8a2oh8S6RbXpUbUmYbZYx/syDDAe2cV01FAHyd4t/ZRu1lD+EPEEMkZPMOqKUKD18yNTk9ONo+tcXqn7M3xBs8/Z49L1DA/5drvbn2/eBa+5aKAPz5m+A3xLhfa/heYnGfkuoGH5hzVq2/Z9+Jk5Qnw6IlYZ3SX1uMfUCTP6V9944oxzQB8SWP7Lvjy5j3zXGhWjf3Jrpyf/AByNh+tdBof7KGtSOh1zxFp1umfmFnE8xI9AWCfy49DX15RQB5J4G+AHgnwrJ58tm+s3nBEupbZFU/7MYAX8wTx1r1hEEaKkahVUABQMAAdqfRQAVl+ItC03xHpM+l63Yw3unzjEkMo4PuD1BHUEcj1FalFAHzf4z/ZY0W+zN4T1a40uTk/Z7oefEfQBshl/Hd+FeaX/AOy547tbd5Le60O8YH5Yobl1dv8AvuNR+tfbdFAH556n8EviLpzET+F7yQDnNu8c+f8AvhjWZ/wqnx7/ANChrf8A4CP/AIV+j2KXFAH502nwe+IN0cReE9TXnH72MR/+hEV1uj/s1/EHUApurfTtNBGf9LuwcemfLD190c4oxQB8s+Cv2VdjibxrrSuFbi20vOGHvI6g/gF/GvpTw/oemeHtNi0/RNPt7Gzj+7FAgUZ9T6k+pya06KACiiigAooooAKKKKAExRilooA5L4heE4fFOitEAqX8ILW0p4w390n0P/16+ary2ms7qW2uo2iniYo6NwVI7V9gdq8x+L3go6tbf2tpUG/UIRiZEUlpk7cd2X8yPoBXuZPmX1eao1H7r/A87HYX2i5o7o8HopzqUdlcFWU4Ibgg02vs17yueJboLuO0jse1J3zRRQopbBdhRRRTEFFFFABRRRQAdOB0pc8Y5I9DSUUnFMa02CiiihhYnsbSe/vIrWziaa4lYKiL1Jr6T+HPhMeF9CWGZYjqEpLXEkZJDcnaASAcAY/HPrXP/CPwW2jWo1bUoyuozrhI3GDCh9uzH9OnrXpor4zOMy+sSdKm/dX4nt4LC+zXPLcMUY9qWivDPRCiiigAooooAKKKKACiiigAooooAKKKKACiiigAooooAKKKKACiiigAooooAKKKKACiiigAooooAKKKKACiiigAooooAKKKKACiiigAooooAKKKKACiiigAooooAKKKKACiiigAooooAKKKKACiiigAooooAKKKKACiiigAooooAKKKKACiiigAooooAKKKKACiiigAooooAKKKKACiiigAooooAKKKKACiiigAooooAKKKKACiiigAooooAKKKKACiiigAooooAKKKKACiiigAooooAKKKKACiiigAooooAKKKKACiiigAooooAKKKKACiiigAooooAKKKKACiiigAooooAKKKKACiiigAooooAKKKKACiiigBvPpSFc9RxT6KAPJviJ8MZtW1GbVNCeJZ5QWlt5DtDMB1UgdTjvjk5zXk9/4a1vT5jFd6VeRtnGfKLA/Qjg/hX1hTGUcDFevhs6rYaKhL3kjhq4GFR8y0Pkj+ytQ/58Lv/vy3+FJ/Zeof8+F3/wB+W/wr652j0H5UmB6Cuz/WOf8AJ+Jh/Zkf5j5H/svUP+fC7/78t/hR/Zeof8+F3/35b/CvrjA9BRgego/1in/J+If2ZH+Y+R/7L1D/AJ8Lv/vy3+FH9l6h/wA+F3/35b/CvrjA9BRgego/1in/ACfiH9mR/mPkf+y9Q/58Lv8A78t/hR/Zeof8+F3/AN+W/wAK+uMD0FGB6Cj/AFin/J+If2ZH+Y+R/wCy9Q/58Lv/AL8t/hS/2VqH/Phd/wDflv8ACvrfA9BS4HoPyo/1jn/J+If2Yv5j5Ji0bU5ZFSLTrx3boqwMSf0r0/4c/DO6S9t9U8QpHHHH+8jtDyxbPG/sB3xz2zjkV7MAMkYFKByK5sVndbEQcIrlubUcvhTlzN3ALTsUtFeJY7wooopgFFFFABRRRQAUUUUAFFFFABRRRQAUUUUAFFFFABRRRQAUUUUAFFFFABRRRQAUUUUAFFFFABRRRQAUUUUAFFFFABRRRQAUUUUAFFFFABRRRQAUUUUAFFFFABRRRQAUUUUAFFFFABRRRQAUUUUAFFFFABRRRQAUUUUAFFFFABRRRQAUUUUAFFFFABRRRQAUUUUAFFFFABRRRQAUUUUAFFFFABRRRQAUUUUAFFFFABRRRQAUUUUAFFFFABRRRQAUUUUAFFFFABRRRQAUUUUAFFFFABRRRQAUUUUAFFFFABRRRQAUUUUAFFFFABRRRQAUUUUAFFFFABRRRQAUUUUAFFFFABRRRQAUUUUAFFFFAH//2Q==;" vertex="1" parent="1">
          <mxGeometry x="800" y="189.99999999999997" width="270" height="46.41" as="geometry" />
        </mxCell>
      </root>
    </mxGraphModel>
  </diagram>
</mxfile>
